<svg width="25" height="25" viewBox="0 0 25 25" fill="none" xmlns="http://www.w3.org/2000/svg">
<path d="M10.1562 4.6875C10.1562 4.25603 10.506 3.90625 10.9375 3.90625H22.2656C22.6971 3.90625 23.0469 4.25603 23.0469 4.6875C23.0469 5.11897 22.6971 5.46875 22.2656 5.46875H10.9375C10.506 5.46875 10.1562 5.11897 10.1562 4.6875Z" fill="#FF8C2E"/>
<path d="M1.95312 4.6875C1.95313 5.30557 2.1364 5.90975 2.47978 6.42366C2.82316 6.93756 3.31122 7.3381 3.88224 7.57462C4.45326 7.81115 5.08159 7.87303 5.68778 7.75245C6.29397 7.63188 6.85079 7.33425 7.28783 6.89721C7.72487 6.46017 8.0225 5.90335 8.14308 5.29716C8.26366 4.69097 8.20177 4.06263 7.96525 3.49161C7.72872 2.9206 7.32819 2.43254 6.81428 2.08916C6.30038 1.74578 5.69619 1.5625 5.07812 1.5625C4.24961 1.56343 3.45529 1.89297 2.86944 2.47882C2.28359 3.06467 1.95406 3.85898 1.95312 4.6875ZM5.07812 3.125C5.38716 3.125 5.68925 3.21664 5.9462 3.38833C6.20316 3.56002 6.40342 3.80405 6.52169 4.08956C6.63995 4.37507 6.67089 4.68923 6.6106 4.99233C6.55031 5.29542 6.4015 5.57383 6.18298 5.79235C5.96446 6.01087 5.68605 6.15969 5.38295 6.21998C5.07986 6.28027 4.76569 6.24932 4.48018 6.13106C4.19467 6.0128 3.95064 5.81253 3.77895 5.55558C3.60726 5.29863 3.51562 4.99653 3.51562 4.6875C3.51609 4.27324 3.68086 3.87608 3.97378 3.58316C4.26671 3.29023 4.66387 3.12547 5.07812 3.125Z" fill="#FF8C2E"/>
<path d="M10.1562 12.5C10.1562 12.0685 10.506 11.7188 10.9375 11.7188H22.2656C22.6971 11.7188 23.0469 12.0685 23.0469 12.5C23.0469 12.9315 22.6971 13.2812 22.2656 13.2812H10.9375C10.506 13.2812 10.1562 12.9315 10.1562 12.5Z" fill="#FF8C2E"/>
<path d="M5.07812 15.625C5.69619 15.625 6.30038 15.4417 6.81428 15.0983C7.32819 14.755 7.72872 14.2669 7.96525 13.6959C8.20177 13.1249 8.26366 12.4965 8.14308 11.8903C8.0225 11.2842 7.72487 10.7273 7.28783 10.2903C6.85079 9.85325 6.29397 9.55563 5.68778 9.43505C5.08159 9.31447 4.45326 9.37635 3.88224 9.61288C3.31122 9.8494 2.82316 10.2499 2.47978 10.7638C2.1364 11.2777 1.95313 11.8819 1.95312 12.5C1.95406 13.3285 2.28359 14.1228 2.86944 14.7087C3.45529 15.2945 4.24961 15.6241 5.07812 15.625ZM5.07812 10.9375C5.38716 10.9375 5.68925 11.0291 5.9462 11.2008C6.20316 11.3725 6.40343 11.6165 6.52169 11.9021C6.63995 12.1876 6.67089 12.5017 6.6106 12.8048C6.55031 13.1079 6.4015 13.3863 6.18298 13.6049C5.96446 13.8234 5.68605 13.9722 5.38295 14.0325C5.07986 14.0928 4.76569 14.0618 4.48018 13.9436C4.19467 13.8253 3.95064 13.625 3.77895 13.3681C3.60726 13.1111 3.51562 12.809 3.51562 12.5C3.51609 12.0857 3.68086 11.6886 3.97378 11.3957C4.26671 11.1027 4.66387 10.938 5.07812 10.9375Z" fill="#FF8C2E"/>
<path d="M10.1562 20.3125C10.1562 19.881 10.506 19.5312 10.9375 19.5312H22.2656C22.6971 19.5312 23.0469 19.881 23.0469 20.3125C23.0469 20.744 22.6971 21.0938 22.2656 21.0938H10.9375C10.506 21.0938 10.1562 20.744 10.1562 20.3125Z" fill="#FF8C2E"/>
<path d="M5.07812 23.4375C5.69619 23.4375 6.30038 23.2542 6.81428 22.9108C7.32819 22.5675 7.72872 22.0794 7.96525 21.5084C8.20177 20.9374 8.26366 20.309 8.14308 19.7028C8.0225 19.0967 7.72487 18.5398 7.28783 18.1028C6.85079 17.6658 6.29397 17.3681 5.68778 17.2475C5.08159 17.127 4.45326 17.1889 3.88224 17.4254C3.31122 17.6619 2.82316 18.0624 2.47978 18.5763C2.1364 19.0902 1.95313 19.6944 1.95312 20.3125C1.95406 21.141 2.28359 21.9353 2.86944 22.5212C3.45529 23.107 4.24961 23.4366 5.07812 23.4375ZM5.07812 18.75C5.38716 18.75 5.68925 18.8416 5.9462 19.0133C6.20316 19.185 6.40343 19.429 6.52169 19.7146C6.63995 20.0001 6.67089 20.3142 6.6106 20.6173C6.55031 20.9204 6.4015 21.1988 6.18298 21.4174C5.96446 21.6359 5.68605 21.7847 5.38295 21.845C5.07986 21.9053 4.76569 21.8743 4.48018 21.7561C4.19467 21.6378 3.95064 21.4375 3.77895 21.1806C3.60726 20.9236 3.51562 20.6215 3.51562 20.3125C3.51609 19.8982 3.68086 19.5011 3.97378 19.2082C4.26671 18.9152 4.66387 18.7505 5.07812 18.75Z" fill="#FF8C2E"/>
</svg>
