<svg width="13" height="12" viewBox="0 0 13 12" fill="none" xmlns="http://www.w3.org/2000/svg">
<path d="M0.88851 0.437395C0.88851 0.32139 0.841705 0.210137 0.758391 0.12811C0.675077 0.0460825 0.562079 0 0.444255 0C0.326431 0 0.213433 0.0460825 0.130119 0.12811C0.0468053 0.210137 1.75571e-09 0.32139 0 0.437395V11.2265C0 11.4679 0.199026 11.6639 0.444255 11.6639H11.2545C11.3723 11.6639 11.4853 11.6178 11.5686 11.5357C11.6519 11.4537 11.6987 11.3425 11.6987 11.2265C11.6987 11.1105 11.6519 10.9992 11.5686 10.9172C11.4853 10.8352 11.3723 10.7891 11.2545 10.7891H0.88851V0.437395Z" fill="#660091"/>
<path d="M12.6044 5.18919C12.6829 5.10627 12.7256 4.99661 12.7236 4.88329C12.7215 4.76998 12.6749 4.66186 12.5935 4.58172C12.5121 4.50158 12.4023 4.45568 12.2872 4.45368C12.1721 4.45168 12.0607 4.49374 11.9765 4.57101L8.58835 7.90687L6.38484 5.73739C6.30154 5.65548 6.18863 5.60947 6.0709 5.60947C5.95317 5.60947 5.84026 5.65548 5.75696 5.73739L2.20292 9.23655C2.15927 9.27659 2.12426 9.32488 2.09998 9.37853C2.0757 9.43219 2.06265 9.49011 2.06159 9.54883C2.06054 9.60756 2.07151 9.6659 2.09386 9.72036C2.1162 9.77483 2.14946 9.8243 2.19164 9.86583C2.23383 9.90737 2.28408 9.94011 2.3394 9.96211C2.39471 9.98411 2.45397 9.99491 2.51362 9.99388C2.57327 9.99284 2.63209 9.97999 2.68659 9.95608C2.74108 9.93217 2.79013 9.89771 2.8308 9.85473L6.0709 6.66467L8.27441 8.83414C8.3577 8.91605 8.47062 8.96206 8.58835 8.96206C8.70607 8.96206 8.81899 8.91605 8.90229 8.83414L12.6044 5.18919Z" fill="#660091"/>
<path d="M12.6044 2.55322C12.6829 2.47031 12.7256 2.36064 12.7236 2.24732C12.7215 2.13401 12.6749 2.02589 12.5935 1.94576C12.5121 1.86562 12.4023 1.81971 12.2872 1.81771C12.1721 1.81571 12.0607 1.85778 11.9765 1.93504L8.58835 4.36203L6.38484 1.28368C6.30154 1.20177 6.18863 1.15576 6.0709 1.15576C5.95317 1.15576 5.84026 1.20177 5.75696 1.28368L2.20292 4.78284C2.15927 4.82288 2.12426 4.87117 2.09998 4.92482C2.0757 4.97847 2.06265 5.03639 2.06159 5.09512C2.06054 5.15385 2.07151 5.21219 2.09386 5.26665C2.1162 5.32112 2.14946 5.37059 2.19164 5.41212C2.23383 5.45366 2.28408 5.4864 2.3394 5.5084C2.39471 5.5304 2.45397 5.5412 2.51362 5.54016C2.57327 5.53913 2.63209 5.52627 2.68659 5.50237C2.74108 5.47846 2.79013 5.44399 2.8308 5.40102L6.0709 2.21096L8.27441 5.2893C8.3577 5.37121 8.47062 5.41722 8.58835 5.41722C8.70607 5.41722 8.81899 5.37121 8.90229 5.2893L12.6044 2.55322Z" fill="#660091"/>
</svg>
