<svg width="9" height="9" viewBox="0 0 9 9" fill="none" xmlns="http://www.w3.org/2000/svg">
<g clip-path="url(#clip0)">
<path d="M4.24999 1.32522e-06C6.59721 1.12002e-06 8.5 1.90279 8.5 4.24999C8.5 6.59719 6.59721 8.5 4.24999 8.5C1.90278 8.5 -1.63788e-05 6.59721 -1.6584e-05 4.24999C-1.67892e-05 1.90278 1.90279 1.53042e-06 4.24999 1.32522e-06ZM4.24999 7.43749C6.0104 7.43749 7.43749 6.0104 7.43749 4.24999C7.43749 2.48958 6.0104 1.06249 4.24999 1.06249C2.48958 1.06249 1.06249 2.48958 1.06249 4.24999C1.06249 6.0104 2.48958 7.43749 4.24999 7.43749Z" fill="#838B9F"/>
<path d="M4.25 3.71881C4.54339 3.71881 4.78125 3.95665 4.78125 4.25006L4.78125 5.84381C4.78125 6.1372 4.54341 6.37506 4.25 6.37506C3.95658 6.37506 3.71874 6.13722 3.71874 5.84381L3.71874 4.25006C3.71876 3.95665 3.9566 3.71881 4.25 3.71881Z" fill="#838B9F"/>
<path d="M4.25 2.12493C3.9566 2.12493 3.71875 2.36278 3.71875 2.65618C3.71875 2.94959 3.9566 3.18744 4.25 3.18744C4.5434 3.18744 4.78125 2.94959 4.78125 2.65618C4.78125 2.36278 4.5434 2.12493 4.25 2.12493Z" fill="#838B9F"/>
</g>
<defs>
<clipPath id="clip0">
<rect width="8.5" height="8.5" fill="white" transform="translate(8.5 8.5) rotate(180)"/>
</clipPath>
</defs>
</svg>
