<svg width="20" height="20" viewBox="0 0 20 20" fill="none" xmlns="http://www.w3.org/2000/svg">
<path d="M11.1111 20H6.66665V6.66665H11.1111V8.88887C11.579 8.29362 12.1728 7.80928 12.8499 7.47061C13.5271 7.13193 14.2708 6.94731 15.0277 6.92999C16.3515 6.93734 17.6183 7.46934 18.5504 8.40935C19.4825 9.34936 20.0038 10.6206 20 11.9444V20H15.5555V12.5C15.4696 11.8995 15.1696 11.3503 14.7109 10.9534C14.2521 10.5565 13.6655 10.3387 13.0589 10.34C12.7874 10.3486 12.5204 10.4119 12.274 10.5262C12.0276 10.6405 11.8068 10.8034 11.6249 11.0051C11.443 11.2068 11.3037 11.4432 11.2154 11.7001C11.1271 11.957 11.0916 12.229 11.1111 12.5V20ZM4.44444 20H0V6.66665H4.44444V20ZM2.22222 4.44444C1.63285 4.44444 1.06762 4.21031 0.650872 3.79356C0.234126 3.37682 0 2.81159 0 2.22222C0 1.63285 0.234126 1.06762 0.650872 0.650872C1.06762 0.234126 1.63285 0 2.22222 0C2.81159 0 3.37682 0.234126 3.79356 0.650872C4.21031 1.06762 4.44444 1.63285 4.44444 2.22222C4.44444 2.81159 4.21031 3.37682 3.79356 3.79356C3.37682 4.21031 2.81159 4.44444 2.22222 4.44444Z" fill="#0077B5"/>
</svg>
