<svg width="30" height="30" viewBox="0 0 30 30" fill="none" xmlns="http://www.w3.org/2000/svg">
<path d="M3.125 3.4375C3.125 3.18886 3.02623 2.9504 2.85041 2.77459C2.6746 2.59877 2.43614 2.5 2.1875 2.5C1.93886 2.5 1.7004 2.59877 1.52459 2.77459C1.34877 2.9504 1.25 3.18886 1.25 3.4375V26.5625C1.25 27.08 1.67 27.5 2.1875 27.5H25C25.2486 27.5 25.4871 27.4012 25.6629 27.2254C25.8387 27.0496 25.9375 26.8111 25.9375 26.5625C25.9375 26.3139 25.8387 26.0754 25.6629 25.8996C25.4871 25.7238 25.2486 25.625 25 25.625H3.125V3.4375Z" fill="#FF8C2E"/>
<path d="M27.8499 9.72499C28.0155 9.54727 28.1057 9.31221 28.1014 9.06934C28.0971 8.82646 27.9987 8.59473 27.827 8.42296C27.6552 8.2512 27.4235 8.15281 27.1806 8.14852C26.9377 8.14424 26.7027 8.23439 26.5249 8.39999L19.3749 15.55L14.7249 10.9C14.5492 10.7244 14.3109 10.6258 14.0624 10.6258C13.814 10.6258 13.5757 10.7244 13.3999 10.9L5.89995 18.4C5.80784 18.4858 5.73396 18.5893 5.68272 18.7043C5.63148 18.8193 5.60393 18.9435 5.60171 19.0693C5.59949 19.1952 5.62264 19.3203 5.66979 19.437C5.71695 19.5537 5.78713 19.6598 5.87615 19.7488C5.96517 19.8378 6.07122 19.908 6.18795 19.9551C6.30469 20.0023 6.42972 20.0255 6.5556 20.0232C6.68148 20.021 6.80562 19.9935 6.92062 19.9422C7.03562 19.891 7.13912 19.8171 7.22495 19.725L14.0624 12.8875L18.7124 17.5375C18.8882 17.7131 19.1265 17.8117 19.3749 17.8117C19.6234 17.8117 19.8617 17.7131 20.0374 17.5375L27.8499 9.72499Z" fill="#FF8C2E"/>
</svg>
