<svg width="30" height="30" viewBox="0 0 30 30" fill="none" xmlns="http://www.w3.org/2000/svg">
<path d="M12.1875 5.625C12.1875 5.10723 12.6072 4.6875 13.125 4.6875H26.7188C27.2365 4.6875 27.6562 5.10723 27.6562 5.625C27.6562 6.14277 27.2365 6.5625 26.7188 6.5625H13.125C12.6072 6.5625 12.1875 6.14277 12.1875 5.625Z" fill="white"/>
<path d="M2.34375 5.625C2.34375 6.36668 2.56368 7.0917 2.97574 7.70839C3.38779 8.32507 3.97346 8.80572 4.65869 9.08955C5.34391 9.37338 6.09791 9.44764 6.82534 9.30295C7.55277 9.15825 8.22095 8.8011 8.7454 8.27665C9.26985 7.7522 9.627 7.08402 9.7717 6.35659C9.91639 5.62916 9.84213 4.87516 9.5583 4.18994C9.27447 3.50471 8.79382 2.91904 8.17714 2.50699C7.56045 2.09493 6.83543 1.875 6.09375 1.875C5.09953 1.87612 4.14635 2.27156 3.44333 2.97458C2.74031 3.6776 2.34487 4.63078 2.34375 5.625ZM6.09375 3.75C6.46459 3.75 6.8271 3.85997 7.13544 4.06599C7.44379 4.27202 7.68411 4.56486 7.82602 4.90747C7.96794 5.25008 8.00507 5.62708 7.93272 5.99079C7.86038 6.35451 7.6818 6.6886 7.41958 6.95083C7.15735 7.21305 6.82326 7.39163 6.45954 7.46397C6.09583 7.53632 5.71883 7.49919 5.37622 7.35727C5.03361 7.21536 4.74077 6.97504 4.53474 6.66669C4.32872 6.35835 4.21875 5.99584 4.21875 5.625C4.21931 5.12789 4.41703 4.6513 4.76854 4.29979C5.12005 3.94828 5.59664 3.75056 6.09375 3.75Z" fill="white"/>
<path d="M12.1875 15C12.1875 14.4822 12.6072 14.0625 13.125 14.0625H26.7188C27.2365 14.0625 27.6562 14.4822 27.6562 15C27.6562 15.5178 27.2365 15.9375 26.7188 15.9375H13.125C12.6072 15.9375 12.1875 15.5178 12.1875 15Z" fill="white"/>
<path d="M6.09375 18.75C6.83543 18.75 7.56045 18.5301 8.17714 18.118C8.79382 17.706 9.27447 17.1203 9.5583 16.4351C9.84213 15.7498 9.91639 14.9958 9.7717 14.2684C9.627 13.541 9.26985 12.8728 8.7454 12.3484C8.22095 11.8239 7.55277 11.4668 6.82534 11.3221C6.09791 11.1774 5.34391 11.2516 4.65869 11.5355C3.97346 11.8193 3.38779 12.2999 2.97574 12.9166C2.56368 13.5333 2.34375 14.2583 2.34375 15C2.34487 15.9942 2.74031 16.9474 3.44333 17.6504C4.14635 18.3534 5.09953 18.7489 6.09375 18.75ZM6.09375 13.125C6.46459 13.125 6.8271 13.235 7.13544 13.441C7.44379 13.647 7.68411 13.9399 7.82602 14.2825C7.96794 14.6251 8.00507 15.0021 7.93272 15.3658C7.86038 15.7295 7.6818 16.0636 7.41958 16.3258C7.15735 16.588 6.82326 16.7666 6.45954 16.839C6.09583 16.9113 5.71883 16.8742 5.37622 16.7323C5.03361 16.5904 4.74077 16.35 4.53474 16.0417C4.32872 15.7334 4.21875 15.3708 4.21875 15C4.21931 14.5029 4.41703 14.0263 4.76854 13.6748C5.12005 13.3233 5.59664 13.1256 6.09375 13.125Z" fill="white"/>
<path d="M12.1875 24.375C12.1875 23.8572 12.6072 23.4375 13.125 23.4375H26.7188C27.2365 23.4375 27.6562 23.8572 27.6562 24.375C27.6562 24.8928 27.2365 25.3125 26.7188 25.3125H13.125C12.6072 25.3125 12.1875 24.8928 12.1875 24.375Z" fill="white"/>
<path d="M6.09375 28.125C6.83543 28.125 7.56045 27.9051 8.17714 27.493C8.79382 27.081 9.27447 26.4953 9.5583 25.8101C9.84213 25.1248 9.91639 24.3708 9.7717 23.6434C9.627 22.916 9.26985 22.2478 8.7454 21.7234C8.22095 21.1989 7.55277 20.8418 6.82534 20.6971C6.09791 20.5524 5.34391 20.6266 4.65869 20.9105C3.97346 21.1943 3.38779 21.6749 2.97574 22.2916C2.56368 22.9083 2.34375 23.6333 2.34375 24.375C2.34487 25.3692 2.74031 26.3224 3.44333 27.0254C4.14635 27.7284 5.09953 28.1239 6.09375 28.125ZM6.09375 22.5C6.46459 22.5 6.8271 22.61 7.13544 22.816C7.44379 23.022 7.68411 23.3149 7.82602 23.6575C7.96794 24.0001 8.00507 24.3771 7.93272 24.7408C7.86038 25.1045 7.6818 25.4386 7.41958 25.7008C7.15735 25.963 6.82326 26.1416 6.45954 26.214C6.09583 26.2863 5.71883 26.2492 5.37622 26.1073C5.03361 25.9654 4.74077 25.725 4.53474 25.4167C4.32872 25.1084 4.21875 24.7458 4.21875 24.375C4.21931 23.8779 4.41703 23.4013 4.76854 23.0498C5.12005 22.6983 5.59664 22.5006 6.09375 22.5Z" fill="white"/>
</svg>
