<svg width="12" height="12" viewBox="0 0 12 12" fill="none" xmlns="http://www.w3.org/2000/svg">
<path fill-rule="evenodd" clip-rule="evenodd" d="M5.625 0.375C5.79076 0.375 5.94973 0.440848 6.06694 0.558058C6.18415 0.675269 6.25 0.83424 6.25 1V6C6.25 6.16576 6.18415 6.32473 6.06694 6.44194C5.94973 6.55915 5.79076 6.625 5.625 6.625H0.625C0.45924 6.625 0.300269 6.55915 0.183058 6.44194C0.0658481 6.32473 0 6.16576 0 6C0 5.83424 0.0658481 5.67527 0.183058 5.55806C0.300269 5.44085 0.45924 5.375 0.625 5.375H5V1C5 0.83424 5.06585 0.675269 5.18306 0.558058C5.30027 0.440848 5.45924 0.375 5.625 0.375Z" fill="white"/>
<path fill-rule="evenodd" clip-rule="evenodd" d="M5 6C5 5.83424 5.06585 5.67527 5.18306 5.55806C5.30027 5.44085 5.45924 5.375 5.625 5.375H10.625C10.7908 5.375 10.9497 5.44085 11.0669 5.55806C11.1842 5.67527 11.25 5.83424 11.25 6C11.25 6.16576 11.1842 6.32473 11.0669 6.44194C10.9497 6.55915 10.7908 6.625 10.625 6.625H6.25V11C6.25 11.1658 6.18415 11.3247 6.06694 11.4419C5.94973 11.5592 5.79076 11.625 5.625 11.625C5.45924 11.625 5.30027 11.5592 5.18306 11.4419C5.06585 11.3247 5 11.1658 5 11V6Z" fill="white"/>
</svg>
