<svg width="20" height="19" viewBox="0 0 20 19" fill="none" xmlns="http://www.w3.org/2000/svg">
<path d="M9.91709 15.9946L15.2911 18.8198C15.393 18.8735 15.5046 18.9 15.6156 18.9C15.76 18.9 15.9044 18.8553 16.0258 18.7667C16.2408 18.6104 16.3482 18.346 16.3035 18.0843L9.91709 15.9946ZM9.91709 15.9946L4.54375 18.8191M9.91709 15.9946L4.54375 18.8191M4.54375 18.8191C4.30931 18.9433 4.02393 18.923 3.80902 18.766M4.54375 18.8191L3.80902 18.766M3.80902 18.766C3.59412 18.6097 3.48667 18.3453 3.53132 18.0836L3.80902 18.766ZM14.9282 11.7424C14.8103 11.8573 14.7565 12.0228 14.7844 12.185L15.8107 18.1685C15.8107 18.1685 15.8107 18.1685 15.8107 18.1685C15.8233 18.2429 15.7928 18.318 15.7318 18.3624L15.7311 18.3629C15.698 18.387 15.6575 18.4 15.6156 18.4C15.5841 18.4 15.5528 18.3925 15.5244 18.3775L15.5238 18.3772L10.1497 15.552C10.0041 15.4754 9.8301 15.4754 9.68445 15.552L4.31111 18.3765L4.30969 18.3772C4.24422 18.4119 4.16424 18.4063 4.10397 18.3623L4.10311 18.3617C4.04203 18.3172 4.0115 18.2421 4.0242 18.1678L5.05051 12.1843C5.07833 12.0221 5.02454 11.8566 4.90666 11.7417L0.560341 7.50629C0.560293 7.50624 0.560245 7.5062 0.560197 7.50615C0.505381 7.45244 0.486834 7.3732 0.509478 7.30392C0.533043 7.23183 0.595724 7.17914 0.669923 7.16821C0.670009 7.1682 0.670096 7.16818 0.670182 7.16817L6.67674 6.29604C6.83962 6.27239 6.98043 6.17009 7.05327 6.02249L9.73959 0.578679L9.7396 0.57866C9.75315 0.551185 9.80401 0.5 9.91709 0.5C10.0302 0.5 10.081 0.551185 10.0946 0.57866L10.0946 0.578679L12.7809 6.02249C12.8537 6.17009 12.9946 6.27239 13.1574 6.29604L19.164 7.16817C19.164 7.16818 19.1641 7.16818 19.1641 7.16819C19.2389 7.17914 19.3011 7.23157 19.3246 7.30353C19.3473 7.37316 19.3293 7.45156 19.2736 7.50652C19.2735 7.50666 19.2733 7.5068 19.2732 7.50695L14.9282 11.7424Z" stroke="#4C4F57" stroke-linecap="round" stroke-linejoin="round"/>
<path d="M9.91709 15.9946L4.54375 18.8191C4.30931 18.9433 4.02393 18.923 3.80902 18.766C3.59412 18.6097 3.48667 18.3453 3.53132 18.0836L4.55771 12.0998L0.210752 7.86376C0.0209655 7.67816 -0.0481113 7.40046 0.0342227 7.14858C0.116557 6.89669 0.334951 6.71179 0.598001 6.67341L6.60489 5.80123L9.29121 0.35742C9.52635 -0.11914 10.3078 -0.11914 10.543 0.35742L13.2293 5.80123C11.5 11 11.5 11 9.91709 15.9946Z" fill="#4C4F57"/>
</svg>
