<svg width="66" height="66" fill="none" xmlns="http://www.w3.org/2000/svg"><circle cx="33" cy="33" r="32.34" fill="#fff" stroke="#660091" stroke-width="1.32"/><path d="M20.569 24.2H17.75l6.218 17.28h3.012L33.2 24.2h-2.818l-4.81 14.074h-.194L20.568 24.2Zm24.55 4.54h2.515c-.076-2.768-2.523-4.776-6.032-4.776-3.468 0-6.126 1.983-6.126 4.961 0 2.405 1.721 3.814 4.497 4.565l2.042.556c1.848.49 3.274 1.097 3.274 2.633 0 1.688-1.612 2.801-3.831 2.801-2.008 0-3.679-.894-3.83-2.776h-2.616c.169 3.13 2.59 5.063 6.463 5.063 4.058 0 6.395-2.135 6.395-5.063 0-3.113-2.775-4.32-4.97-4.86l-1.687-.438c-1.35-.346-3.147-.98-3.138-2.633 0-1.468 1.341-2.556 3.467-2.556 1.983 0 3.392.928 3.578 2.522Z" fill="#660091"/></svg>