<svg id="close-popUp" width="19" height="19" viewBox="0 0 19 19" fill="none" xmlns="http://www.w3.org/2000/svg">
<circle cx="9.72514" cy="9.27287" r="5.30326" fill="#660091"/>
<path d="M10.7977 9.27286L12.941 7.13035C13.0114 7.05996 13.0672 6.97639 13.1053 6.88442C13.1434 6.79246 13.163 6.69389 13.163 6.59434C13.163 6.49479 13.1434 6.39622 13.1053 6.30425C13.0672 6.21229 13.0114 6.12872 12.941 6.05833C12.8706 5.98794 12.7871 5.93211 12.6951 5.89401C12.6031 5.85592 12.5045 5.83631 12.405 5.83631C12.3055 5.83631 12.2069 5.85592 12.1149 5.89401C12.0229 5.93211 11.9394 5.98794 11.869 6.05833L9.72648 8.20161L7.58396 6.05833C7.4418 5.91617 7.24899 5.83631 7.04795 5.83631C6.84691 5.83631 6.6541 5.91617 6.51194 6.05833C6.36979 6.20049 6.28992 6.3933 6.28992 6.59434C6.28992 6.69389 6.30953 6.79246 6.34762 6.88442C6.38572 6.97639 6.44155 7.05996 6.51194 7.13035L8.65522 9.27286L6.51194 11.4154C6.36979 11.5575 6.28992 11.7503 6.28992 11.9514C6.28992 12.1524 6.36979 12.3452 6.51194 12.4874C6.6541 12.6296 6.84691 12.7094 7.04795 12.7094C7.24899 12.7094 7.4418 12.6296 7.58396 12.4874L9.72648 10.3441L11.869 12.4874C12.0112 12.6296 12.204 12.7094 12.405 12.7094C12.606 12.7094 12.7989 12.6296 12.941 12.4874C13.0832 12.3452 13.163 12.1524 13.163 11.9514C13.163 11.7503 13.0832 11.5575 12.941 11.4154L10.7977 9.27286ZM9.72648 16.849C5.54221 16.849 2.15039 13.4571 2.15039 9.27286C2.15039 5.08859 5.54221 1.69678 9.72648 1.69678C13.9108 1.69678 17.3026 5.08859 17.3026 9.27286C17.3026 13.4571 13.9108 16.849 9.72648 16.849Z" fill="#F7E3FF"/>
</svg>
