<svg width="27" height="27" viewBox="0 0 27 27" fill="none" xmlns="http://www.w3.org/2000/svg">
<path d="M24.2827 11.489H14.4904C14.0586 11.489 13.709 11.8386 13.709 12.2703V15.4008C13.709 15.8326 14.0586 16.1821 14.4904 16.1821H20.0059C19.4045 17.7499 18.2736 19.0607 16.8395 19.8934L19.1886 23.9646C22.9565 21.7851 25.1874 17.9555 25.1874 13.6736C25.1874 13.0619 25.1411 12.625 25.0537 12.1367C24.9817 11.7615 24.6579 11.489 24.2827 11.489Z" fill="#167EE6"/>
<path d="M13.185 20.8786C10.4864 20.8786 8.13209 19.4034 6.86757 17.2239L2.79645 19.5679C4.86799 23.1609 8.74893 25.5769 13.185 25.5769C15.3645 25.5769 17.4155 24.9909 19.1889 23.968V23.9628L16.8398 19.8917C15.7603 20.5188 14.5164 20.8786 13.185 20.8786Z" fill="#12B347"/>
<path d="M19.1836 23.9682V23.9631L16.8345 19.892C15.7602 20.5139 14.5162 20.8789 13.1849 20.8789V25.5772C15.3644 25.5772 17.4154 24.9912 19.1836 23.9682Z" fill="#0F993E"/>
<path d="M5.88043 13.5755C5.88043 12.2442 6.2454 11.0002 6.86737 9.92589L2.79625 7.58191C1.76819 9.34504 1.18219 11.3909 1.18219 13.5755C1.18219 15.7601 1.76819 17.806 2.79625 19.5691L6.86737 17.2251C6.24026 16.1508 5.88043 14.9069 5.88043 13.5755Z" fill="#FFD500"/>
<path d="M13.185 6.26917C14.943 6.26917 16.5622 6.89629 17.8216 7.93463C18.1351 8.19164 18.5875 8.17108 18.8702 7.88836L21.0857 5.67289C21.4095 5.34905 21.3838 4.8196 21.0394 4.52146C18.9267 2.68123 16.1767 1.57092 13.185 1.57092C8.74893 1.57092 4.86799 3.98687 2.79645 7.57995L6.86757 9.92393C8.13209 7.74444 10.4864 6.26917 13.185 6.26917Z" fill="#FF4B26"/>
<path d="M17.8214 7.93463C18.135 8.19164 18.5873 8.17108 18.8701 7.88836L21.0855 5.67289C21.4094 5.34905 21.3837 4.8196 21.0393 4.52146C18.9266 2.68123 16.1765 1.57092 13.1849 1.57092V6.26917C14.9429 6.26917 16.5621 6.89114 17.8214 7.93463Z" fill="#D93F21"/>
</svg>
