<svg width="125" height="22" viewBox="0 0 125 22" fill="none" xmlns="http://www.w3.org/2000/svg">
<g clip-path="url(#clip0_1101_57317)">
<path fill-rule="evenodd" clip-rule="evenodd" d="M43.4107 5.313V1.64148H36.9453V5.313H43.4107Z" fill="#C3C3C3"/>
<path fill-rule="evenodd" clip-rule="evenodd" d="M43.4107 21.007V6.53693H36.9453V21.007H43.4107Z" fill="#C3C3C3"/>
<path fill-rule="evenodd" clip-rule="evenodd" d="M63.8725 5.313V1.64148H57.3361V5.313H63.8725Z" fill="#C3C3C3"/>
<path fill-rule="evenodd" clip-rule="evenodd" d="M63.8725 21.007V6.53693H57.3361V21.007H63.8725Z" fill="#C3C3C3"/>
<path fill-rule="evenodd" clip-rule="evenodd" d="M25.7906 6.53693H19.2542V16.7596C19.3252 20.7911 24.867 22.8068 29.343 19.9992V21.007H35.311V6.53693H28.7746V15.0318C28.7746 16.7596 25.7906 17.1195 25.7906 14.9598V6.53693Z" fill="#C3C3C3"/>
<path fill-rule="evenodd" clip-rule="evenodd" d="M74.885 21.007H81.0662V10.7843C81.0662 5.60101 75.7376 4.73712 71.2616 7.54476V6.53689H65.3646V21.007H71.6168V12.0082C71.6168 10.2804 74.885 9.92044 74.885 12.0802V21.007Z" fill="#C3C3C3"/>
<path fill-rule="evenodd" clip-rule="evenodd" d="M17.8332 6.17524L16.9096 0.847937C16.128 0.559975 13.3571 0.487984 12.3625 0.487984C11.0126 0.415994 8.59413e-05 2.07178 8.59413e-05 10.5667C-0.0709623 16.8298 8.24168 22.8771 17.4069 20.3574L18.1174 15.0301C17.1938 15.606 14.636 15.894 13.9255 15.894C13.2151 15.894 7.31805 15.1741 7.31805 10.4227C7.247 5.7433 14.1387 4.59145 17.8332 6.17524Z" fill="#C3C3C3"/>
<path fill-rule="evenodd" clip-rule="evenodd" d="M106.644 7.68878V6.53693H100.96V21.007H106.928V13.88C106.928 12.4402 107.852 11.0723 111.475 11.5043V6.53693C110.054 6.53693 107.78 6.68091 106.644 7.68878Z" fill="#C3C3C3"/>
<path fill-rule="evenodd" clip-rule="evenodd" d="M113.961 4.9529V6.53669H112.469V11.1441H113.961V16.9033C114.033 18.7031 115.454 22.0867 121.919 21.0788L122.843 16.3994H121.137C120.64 16.3994 120.285 16.1114 120.285 15.6075V11.1441H122.487V6.53669H120.285V2.57721L113.961 4.9529Z" fill="#C3C3C3"/>
<path fill-rule="evenodd" clip-rule="evenodd" d="M123.482 12.5842C124.121 12.5842 124.548 13.0881 124.548 13.736C124.548 14.384 124.05 14.8879 123.482 14.8879C122.842 14.8879 122.345 14.384 122.345 13.736C122.416 13.0881 122.913 12.5842 123.482 12.5842V12.3682C122.771 12.3682 122.132 12.9441 122.132 13.736C122.132 14.5279 122.771 15.1039 123.482 15.1039C124.192 15.1039 124.832 14.5279 124.832 13.736C124.832 12.9441 124.192 12.3682 123.482 12.3682V12.5842Z" fill="#C3C3C3"/>
<path fill-rule="evenodd" clip-rule="evenodd" d="M123.198 13.16H123.553C123.695 13.16 123.908 13.232 123.908 13.376C123.908 13.592 123.695 13.664 123.553 13.664H123.269V13.8799H123.553L123.979 14.5998H124.263L123.837 13.8799C124.05 13.8799 124.263 13.736 124.263 13.448C124.263 13.16 124.05 13.0161 123.695 13.0161H123.127V14.5998H123.34V13.16H123.198Z" fill="#C3C3C3"/>
<path fill-rule="evenodd" clip-rule="evenodd" d="M92.2207 11.7202C89.5209 10.2084 82.0608 11.2883 82.0608 15.5358C82.0608 19.7832 87.1763 21.007 88.5262 21.007C89.8761 21.007 92.2917 20.6471 93.0022 19.6392V21.007H99.5387V12.2242C99.5387 7.32882 94.7784 6.53693 92.718 6.53693H85.5422L84.8317 9.7765C85.329 9.48854 87.1763 9.34456 89.5919 9.41655C91.9365 9.41655 92.4338 10.8564 92.2207 11.7202ZM90.8708 14.3119C91.9365 14.3119 92.8601 15.0318 92.8601 15.8957C92.8601 16.7596 91.9365 17.4795 90.8708 17.4795C89.805 17.4795 88.8814 16.7596 88.8814 15.8957C88.8814 15.0318 89.805 14.3119 90.8708 14.3119Z" fill="#C3C3C3"/>
<path fill-rule="evenodd" clip-rule="evenodd" d="M55.4887 6.53693H49.4496C47.8155 6.53693 45.3288 6.82489 44.9026 8.84063C44.4763 10.8564 45.0447 12.3682 46.5367 13.2321C48.0997 14.1679 49.4496 15.1038 49.2365 15.8957C48.9523 16.8316 46.2525 16.6876 44.8315 16.0397V20.0712C46.3946 20.7911 49.0234 21.007 50.2312 21.007C51.3679 21.007 55.1335 19.9272 55.915 17.8395C56.6966 15.7517 55.3466 14.0959 53.9257 13.376C52.5047 12.6561 51.0838 11.8642 51.5811 10.8564C52.0784 9.84849 54.7072 10.2804 55.5598 10.3524V6.53693H55.4887Z" fill="#C3C3C3"/>
</g>
<defs>
<clipPath id="clip0_1101_57317">
<rect width="124.832" height="20.8053" fill="white" transform="translate(0 0.492188)"/>
</clipPath>
</defs>
</svg>
