<svg width="125" height="25" viewBox="0 0 125 25" fill="none" xmlns="http://www.w3.org/2000/svg">
<path d="M11.6916 19.4677C7.67716 19.4677 5.09051 16.5707 5.09051 12.2665C5.09051 7.96235 7.65646 5.06531 11.6916 5.06531C14.4852 5.06531 16.5545 6.36898 17.7133 8.35552L21.1898 5.35502C19.3481 2.52006 16.3062 0.492126 11.6916 0.492126C4.34556 0.492126 0 5.95512 0 12.2665C0 18.5779 4.34556 24.0409 11.6916 24.0409C16.2855 24.0409 19.3274 22.013 21.1898 19.178L17.7133 16.1775C16.5545 18.1641 14.4852 19.4677 11.6916 19.4677ZM45.318 24.0409C52.2088 24.0409 57.051 19.178 57.051 12.2665C57.051 5.35502 52.1881 0.492126 45.318 0.492126C38.4479 0.492126 33.6057 5.35502 33.6057 12.2665C33.6057 19.1987 38.4272 24.0409 45.318 24.0409ZM45.318 19.5091C41.3656 19.5091 38.6134 16.5293 38.6134 12.2665C38.6134 7.98305 41.3656 5.02393 45.318 5.02393C49.3118 5.02393 52.064 8.00374 52.064 12.2665C52.0433 16.55 49.2911 19.5091 45.318 19.5091ZM76.0887 23.6685H81.3655V5.47918H89.084L88.6908 0.84391H68.8461L68.4529 5.47918H76.0887V23.6685ZM115.861 18.1641C115.861 16.0948 116.378 15.1222 118.427 12.8046L120.6 10.3421C123.104 7.48641 124.138 5.16878 124.138 1.36124V0.864603H118.924V1.25777C118.924 4.52729 118.344 5.74819 116.316 8.06582L114.806 9.80404C113.936 10.818 113.316 11.7906 113.316 11.7906C113.316 11.7906 112.695 10.818 111.826 9.80404L110.294 8.06582C108.267 5.74819 107.687 4.52729 107.687 1.25777V0.864603H102.328V1.36124C102.328 5.16878 103.383 7.48641 105.887 10.3421L108.06 12.8046C110.129 15.1222 110.626 16.0948 110.626 18.1641V23.6685H115.84L115.861 18.1641Z" fill="#C3C3C3"/>
</svg>
