<svg width="108" height="28" viewBox="0 0 108 28" fill="none" xmlns="http://www.w3.org/2000/svg">
<path d="M29.9703 9.01866C29.426 9.02838 28.886 8.92163 28.3861 8.70553C27.8862 8.48943 27.4379 8.16894 27.0711 7.76541C26.7044 7.36188 26.4276 6.88458 26.2591 6.36531C26.0906 5.84603 26.0344 5.2967 26.0942 4.75392C26.2982 2.40034 28.3682 0.492188 30.7143 0.492188C33.0603 0.492188 34.7974 2.40034 34.5904 4.75392C34.3864 7.1075 32.3193 9.01866 29.9703 9.01866ZM25.6172 10.2677H33.0153L30.1893 26.3425H22.8451L25.6172 10.2677ZM36.5074 1.19947H43.9026L39.4325 26.3425H32.0883L36.5074 1.19947ZM16.476 11.297C15.501 10.0089 14.4269 9.28652 13.4969 9.28652C12.4709 9.28652 9.47982 9.41895 8.6188 14.4391C7.58978 20.4164 11.2859 20.3652 12.1109 20.3652C12.9299 20.3652 13.4459 20.3652 14.2679 19.7452L14.5739 18.0989H11.5439L12.4679 12.7417H23.2531L21.2521 23.9708C16.629 26.5471 13.9589 26.8541 11.2859 26.8541C0.653625 26.8541 -0.732407 18.5082 0.293616 12.7386C1.31964 6.96906 6.86676 2.33111 13.2899 2.33111C20.1721 2.33111 22.7401 5.8344 23.7661 8.46187L16.476 11.297ZM107.774 19.4412L96.5988 19.4352C96.7278 21.1929 97.6458 22.3516 98.7048 22.3516C99.4488 22.3516 100.349 22.0627 100.862 20.8769L106.904 22.0266C105.161 25.5088 101.528 27.4922 97.7148 27.4922C91.8287 27.4922 87.9616 22.0266 89.7466 16.4556L88.1266 16.4496L86.3805 26.3425H78.9824L80.7314 16.4496H77.8543L76.1083 26.3425H68.7131L70.5102 16.4496H68.5121C68.5751 17.3104 68.4941 18.5955 68.3291 19.4443L57.1539 19.4352C57.2799 21.1929 58.2009 22.3546 59.2599 22.3546C60.0039 22.3546 60.904 22.0657 61.417 20.8799L67.4591 22.0296C65.7161 25.5118 62.086 27.4952 58.2699 27.4952C53.5898 27.4952 49.9147 23.8685 49.9147 19.4924L48.6817 26.3425H41.3375L45.7536 1.19947H53.1488L50.5417 15.7845C52.0388 12.1006 55.7948 9.42196 59.8419 9.42196C63.805 9.42196 67.3421 11.0683 68.2901 14.9959L69.1211 10.2677H71.5362L72.8202 3.15878H80.2154L78.9314 10.2677H81.8054L83.0895 3.15878H90.4846L89.2516 10.2677H91.7177L91.0726 13.8011C92.9237 11.1796 96.0107 9.42497 99.2838 9.42497C106.313 9.42196 108.794 14.1652 107.774 19.4412ZM57.6549 16.4436L61.927 16.4406C62.089 14.5083 61.108 14.1291 59.9799 14.1502C59.1279 14.1652 58.2099 15.1103 57.6549 16.4436ZM97.0938 16.4616L101.369 16.4677C101.531 14.5324 100.556 14.1321 99.4278 14.1502C98.5698 14.1652 97.6458 15.1193 97.0938 16.4616Z" fill="#C3C3C3"/>
</svg>
