<svg width="114" height="17" viewBox="0 0 114 17" fill="none" xmlns="http://www.w3.org/2000/svg">
<g clip-path="url(#clip0_1101_57326)">
<path d="M82.9336 16.4023H86.9113V11.2314L94.071 0.491821H89.6956L85.1213 7.75099L80.5471 0.491821H75.8734L82.9336 11.3309V16.4023Z" fill="#CECECE"/>
<path d="M44.2512 8.44707L52.9025 0.491821H58.2723L49.621 8.44707L58.2723 16.4023H52.9025L44.2512 8.44707Z" fill="#CECECE"/>
<path d="M22.3742 0.491821H18.2971V16.4023H22.3742V0.491821Z" fill="#CECECE"/>
<path d="M59.1674 16.4019H71.8958C74.0835 16.4019 75.5751 15.2086 75.5751 12.6232V10.4355C75.5751 8.14833 74.3818 6.65672 71.8958 6.65672H62.3495V3.6735H74.6801V0.491394H62.1506C59.8635 0.491394 58.4713 1.78412 58.4713 4.27014V6.25895C58.4713 8.44665 59.764 9.93826 62.1506 9.93826H71.6969V13.2198H59.1674V16.4019Z" fill="#CECECE"/>
<path d="M94.3695 16.4019H107.794C109.982 16.4019 111.473 15.2086 111.473 12.6232V10.4355C111.473 8.14833 110.28 6.65672 107.794 6.65672H98.2476V3.6735H110.578V0.491394H97.9493C95.6622 0.491394 94.27 1.78412 94.27 4.27014V6.25895C94.27 8.44665 95.5627 9.93826 97.9493 9.93826H107.496V13.2198H94.3695V16.4019Z" fill="#CECECE"/>
<path d="M0.00012207 16.4023H15.8112V13.2202H4.07719V0.49176H0.00012207V16.4023Z" fill="#CECECE"/>
<path d="M25.4571 16.4019H29.1364V5.06566L41.1687 16.4019H43.6547V0.491394H39.9754V10.0377L29.9319 0.491394H25.4571V16.4019Z" fill="#CECECE"/>
<path d="M112.368 0.690275H111.971V1.68468H111.772V0.690275H111.374V0.491394H112.269L112.368 0.690275ZM113.76 0.491394H113.562L113.164 1.38636L112.667 0.491394H112.468V1.68468H112.667V0.789716L113.064 1.58524H113.164L113.562 0.789716V1.58524H113.76V0.491394Z" fill="#CECECE"/>
</g>
<defs>
<clipPath id="clip0_1101_57326">
<rect width="113.76" height="15.9105" fill="white" transform="translate(0 0.492188)"/>
</clipPath>
</defs>
</svg>
