<svg width="22" height="21" viewBox="0 0 22 21" fill="none" xmlns="http://www.w3.org/2000/svg">
<path d="M12.1436 0.81575C11.6073 -0.271917 10.0571 -0.271917 9.52085 0.81575L6.96635 5.99083L1.25393 6.82067C0.0546813 6.99508 -0.425236 8.4695 0.443598 9.31558L4.57651 13.3456L3.60151 19.0331C3.39568 20.228 4.65018 21.1391 5.72376 20.5747L11.2098 17.6908C11.4005 17.5906 11.5437 17.4186 11.6077 17.2128C11.6717 17.007 11.6513 16.7842 11.551 16.5934C11.4507 16.4026 11.2788 16.2595 11.073 16.1955C10.8672 16.1315 10.6444 16.1519 10.4536 16.2522L5.25901 18.9832L6.19285 13.5341C6.2328 13.3006 6.21541 13.0608 6.14219 12.8355C6.06897 12.6102 5.94211 12.406 5.77251 12.2406L1.81401 8.38175L7.28485 7.58658C7.76151 7.51725 8.17318 7.21825 8.38551 6.78708L10.8317 1.82975L13.5281 7.293C13.5952 7.42901 13.6991 7.54351 13.828 7.62354C13.9568 7.70357 14.1055 7.74593 14.2572 7.74583H20.8547C21.0702 7.74583 21.2768 7.66023 21.4292 7.50786C21.5816 7.35548 21.6672 7.14882 21.6672 6.93333C21.6672 6.71784 21.5816 6.51118 21.4292 6.35881C21.2768 6.20644 21.0702 6.12083 20.8547 6.12083H14.762L12.1436 0.81575Z" fill="#660091"/>
<path d="M13.542 11.2666C13.542 11.0511 13.6276 10.8445 13.78 10.6921C13.9323 10.5397 14.139 10.4541 14.3545 10.4541H20.8545C21.07 10.4541 21.2766 10.5397 21.429 10.6921C21.5814 10.8445 21.667 11.0511 21.667 11.2666C21.667 11.4821 21.5814 11.6888 21.429 11.8411C21.2766 11.9935 21.07 12.0791 20.8545 12.0791H14.3545C14.139 12.0791 13.9323 11.9935 13.78 11.8411C13.6276 11.6888 13.542 11.4821 13.542 11.2666Z" fill="#660091"/>
<path d="M13.542 15.6C13.542 15.3845 13.6276 15.1778 13.78 15.0255C13.9323 14.8731 14.139 14.7875 14.3545 14.7875H20.8545C21.07 14.7875 21.2766 14.8731 21.429 15.0255C21.5814 15.1778 21.667 15.3845 21.667 15.6C21.667 15.8155 21.5814 16.0221 21.429 16.1745C21.2766 16.3269 21.07 16.4125 20.8545 16.4125H14.3545C14.139 16.4125 13.9323 16.3269 13.78 16.1745C13.6276 16.0221 13.542 15.8155 13.542 15.6Z" fill="#660091"/>
</svg>
