<svg width="20" height="20" viewBox="0 0 20 20" fill="none" xmlns="http://www.w3.org/2000/svg">
<path d="M10.9995 0C10.7343 0 10.4799 0.105357 10.2924 0.292893C10.1049 0.48043 9.99951 0.734784 9.99951 1V9C9.99951 9.26522 10.1049 9.51957 10.2924 9.70711C10.4799 9.89464 10.7343 10 10.9995 10H18.9995C19.2647 10 19.5191 9.89464 19.7066 9.70711C19.8942 9.51957 19.9995 9.26522 19.9995 9C19.9995 6.61305 19.0513 4.32387 17.3635 2.63604C15.6756 0.948211 13.3865 0 10.9995 0ZM11.9995 8V2.07C13.4957 2.28561 14.8819 2.97978 15.9508 4.04868C17.0197 5.11759 17.7139 6.50379 17.9295 8H11.9995Z" fill="#FF8C2E"/>
<path d="M18.8194 12.0601C18.6953 12.0158 18.5637 11.9964 18.4321 12.0031C18.3005 12.0097 18.1715 12.0424 18.0526 12.099C17.9336 12.1557 17.827 12.2354 17.739 12.3334C17.6509 12.4314 17.5831 12.5458 17.5394 12.6701C17.0887 13.944 16.3227 15.0831 15.3128 15.9809C14.303 16.8787 13.0821 17.5061 11.7642 17.8046C10.4463 18.103 9.07426 18.0628 7.77611 17.6876C6.47796 17.3124 5.296 16.6145 4.3405 15.659C3.385 14.7035 2.6871 13.5215 2.31191 12.2234C1.93672 10.9252 1.89647 9.55319 2.1949 8.23527C2.49334 6.91736 3.12075 5.69652 4.01859 4.68664C4.91643 3.67677 6.05544 2.91077 7.32936 2.46012C7.57999 2.3726 7.78558 2.1891 7.90092 1.94999C8.01625 1.71088 8.03188 1.43575 7.94436 1.18512C7.85684 0.934493 7.67334 0.728897 7.43423 0.613562C7.19512 0.498227 6.91999 0.482601 6.66936 0.570123C5.0764 1.1329 3.65199 2.09009 2.52907 3.35234C1.40616 4.6146 0.621341 6.14078 0.247878 7.78843C-0.125585 9.43608 -0.0755212 11.1515 0.393397 12.7746C0.862315 14.3976 1.7348 15.8754 2.92942 17.0701C4.12404 18.2647 5.60185 19.1372 7.22492 19.6061C8.84799 20.075 10.5634 20.1251 12.2111 19.7516C13.8587 19.3781 15.3849 18.5933 16.6471 17.4704C17.9094 16.3475 18.8666 14.9231 19.4294 13.3301C19.5158 13.0808 19.5003 12.8074 19.386 12.5695C19.2717 12.3316 19.068 12.1485 18.8194 12.0601Z" fill="#FF8C2E"/>
</svg>
