<svg width="16" height="16" viewBox="0 0 16 16" fill="none" xmlns="http://www.w3.org/2000/svg">
<path fill-rule="evenodd" clip-rule="evenodd" d="M6.14286 9H1.85714C1.384 9 1 8.60178 1 8.11111V1.88889C1 1.39822 1.384 1 1.85714 1H6.14286C6.616 1 7 1.39822 7 1.88889V8.11111C7 8.60178 6.616 9 6.14286 9Z" stroke="#4C4F57" stroke-linecap="round" stroke-linejoin="round"/>
<path fill-rule="evenodd" clip-rule="evenodd" d="M6.14286 15H1.85714C1.384 15 1 14.6416 1 14.2V11.8C1 11.3584 1.384 11 1.85714 11H6.14286C6.616 11 7 11.3584 7 11.8V14.2C7 14.6416 6.616 15 6.14286 15Z" stroke="#4C4F57" stroke-linecap="round" stroke-linejoin="round"/>
<path fill-rule="evenodd" clip-rule="evenodd" d="M14.1429 6H9.85714C9.384 6 9 5.62667 9 5.16667V1.83333C9 1.37333 9.384 1 9.85714 1H14.1429C14.616 1 15 1.37333 15 1.83333V5.16667C15 5.62667 14.616 6 14.1429 6Z" stroke="#4C4F57" stroke-linecap="round" stroke-linejoin="round"/>
<path fill-rule="evenodd" clip-rule="evenodd" d="M14.1429 15H9.85714C9.384 15 9 14.608 9 14.125V8.875C9 8.392 9.384 8 9.85714 8H14.1429C14.616 8 15 8.392 15 8.875V14.125C15 14.608 14.616 15 14.1429 15Z" stroke="#4C4F57" stroke-linecap="round" stroke-linejoin="round"/>
</svg>
