<svg width="6" height="9" viewBox="0 0 6 9" fill="none" xmlns="http://www.w3.org/2000/svg">
<path d="M5.27436 3.84212L1.63773 0.211722C1.50073 0.0684983 1.33883 0 1.13333 0C0.927838 0 0.765934 0.0684983 0.628937 0.211722L0.205494 0.628938C0.0684979 0.765934 0 0.934066 0 1.13333C0 1.32637 0.0684979 1.49451 0.205494 1.64396L2.91428 4.35275L0.211722 7.05531C0.0747253 7.19231 0.00622701 7.36044 0.00622701 7.55971C0.00622701 7.75275 0.0747253 7.92088 0.211722 8.07033L0.635164 8.48754C0.772161 8.62454 0.940293 8.69304 1.13956 8.69304C1.33883 8.69304 1.50696 8.62454 1.64396 8.48754L5.28058 4.85714C5.41758 4.71392 5.48608 4.54579 5.48608 4.34652C5.47985 4.14725 5.41135 3.97912 5.27436 3.84212Z" fill="#F7F7F7"/>
</svg>
