<svg width="14" height="14" viewBox="0 0 14 14" fill="none" xmlns="http://www.w3.org/2000/svg">
<path d="M11.9497 8.49915C11.1744 7.72382 10.249 7.1531 9.23929 6.81335C10.1705 6.12511 10.7755 5.01971 10.7755 3.77554C10.7756 1.6937 9.08187 0 7 0C4.91813 0 3.22443 1.6937 3.22443 3.77554C3.22443 5.01974 3.82949 6.12514 4.76068 6.81335C3.75093 7.15307 2.82562 7.72379 2.05023 8.49915C0.728137 9.82127 0 11.5791 0 13.4489C0 13.7533 0.246723 14 0.551086 14H13.4489C13.7533 14 14 13.7533 14 13.4489C14 11.5791 13.2719 9.82127 11.9497 8.49915ZM4.32666 3.77554C4.32666 2.30144 5.5259 1.1022 7.00003 1.1022C8.47416 1.1022 9.6734 2.30144 9.6734 3.77554C9.6734 5.24964 8.47416 6.44889 7.00003 6.44889C5.5259 6.44891 4.32666 5.24964 4.32666 3.77554ZM1.12774 12.8978C1.40648 9.90314 3.93375 7.55109 7 7.55109C10.0662 7.55109 12.5935 9.90311 12.8723 12.8978H1.12774Z" fill="#4C4F57"/>
</svg>
