<svg width="21" height="19" viewBox="0 0 21 19" fill="none" xmlns="http://www.w3.org/2000/svg">
<path d="M20.4574 7.86376L16.1111 12.1005L17.1375 18.0843C17.1822 18.346 17.0747 18.6104 16.8598 18.7667C16.7384 18.8553 16.594 18.9 16.4496 18.9C16.3386 18.9 16.227 18.8735 16.1251 18.8198L10.7511 15.9946L5.37773 18.8191C5.14329 18.9433 4.85791 18.923 4.64301 18.766C4.4281 18.6097 4.32065 18.3453 4.36531 18.0836L5.39169 12.0998L1.04474 7.86376C0.85495 7.67816 0.785873 7.40046 0.868207 7.14858C0.950541 6.89669 1.16894 6.71179 1.43199 6.67341L7.43887 5.80123L10.1252 0.35742C10.3603 -0.11914 11.1418 -0.11914 11.3769 0.35742L14.0633 5.80123L20.0702 6.67341C20.3332 6.71179 20.5516 6.89599 20.6339 7.14858C20.7163 7.40116 20.6472 7.67747 20.4574 7.86376Z" fill="#4C4F57"/>
</svg>
