<svg width="22" height="22" viewBox="0 0 22 22" fill="none" xmlns="http://www.w3.org/2000/svg">
<path d="M12.3096 1.36153C11.7734 0.27386 10.2231 0.27386 9.68686 1.36153L7.13236 6.53661L1.41995 7.36644C0.220697 7.54086 -0.25922 9.01528 0.609613 9.86136L4.74253 13.8914L3.76753 19.5789C3.5617 20.7738 4.8162 21.6849 5.88978 21.1204L11.3758 18.2366C11.5666 18.1363 11.7097 17.9644 11.7737 17.7586C11.8377 17.5528 11.8173 17.33 11.717 17.1392C11.6168 16.9484 11.4448 16.8053 11.239 16.7413C11.0332 16.6773 10.8104 16.6977 10.6196 16.7979L5.42503 19.529L6.35886 14.0799C6.39881 13.8463 6.38143 13.6066 6.30821 13.3813C6.23499 13.156 6.10812 12.9518 5.93853 12.7864L1.98003 8.92753L7.45086 8.13236C7.92753 8.06303 8.3392 7.76403 8.55153 7.33286L10.9977 2.37553L13.6941 7.83878C13.7613 7.97479 13.8651 8.08929 13.994 8.16932C14.1228 8.24934 14.2715 8.29171 14.4232 8.29161H21.0207C21.2362 8.29161 21.4428 8.20601 21.5952 8.05363C21.7476 7.90126 21.8332 7.6946 21.8332 7.47911C21.8332 7.26362 21.7476 7.05696 21.5952 6.90459C21.4428 6.75221 21.2362 6.66661 21.0207 6.66661H14.928L12.3096 1.36153Z" fill="#FF8C2E"/>
<path d="M13.7085 11.8125C13.7085 11.597 13.7941 11.3903 13.9465 11.238C14.0988 11.0856 14.3055 11 14.521 11H21.021C21.2365 11 21.4431 11.0856 21.5955 11.238C21.7479 11.3903 21.8335 11.597 21.8335 11.8125C21.8335 12.028 21.7479 12.2347 21.5955 12.387C21.4431 12.5394 21.2365 12.625 21.021 12.625H14.521C14.3055 12.625 14.0988 12.5394 13.9465 12.387C13.7941 12.2347 13.7085 12.028 13.7085 11.8125Z" fill="#FF8C2E"/>
<path d="M13.7085 16.1458C13.7085 15.9303 13.7941 15.7236 13.9465 15.5712C14.0988 15.4189 14.3055 15.3333 14.521 15.3333H21.021C21.2365 15.3333 21.4431 15.4189 21.5955 15.5712C21.7479 15.7236 21.8335 15.9303 21.8335 16.1458C21.8335 16.3612 21.7479 16.5679 21.5955 16.7203C21.4431 16.8727 21.2365 16.9583 21.021 16.9583H14.521C14.3055 16.9583 14.0988 16.8727 13.9465 16.7203C13.7941 16.5679 13.7085 16.3612 13.7085 16.1458Z" fill="#FF8C2E"/>
</svg>
