<svg width="21" height="19" viewBox="0 0 21 19" fill="none" xmlns="http://www.w3.org/2000/svg">
<path d="M10.253 15.9946L15.6271 18.8198C15.7289 18.8735 15.8406 18.9 15.9515 18.9C16.0959 18.9 16.2404 18.8553 16.3618 18.7667C16.5767 18.6104 16.6841 18.346 16.6395 18.0843L10.253 15.9946ZM10.253 15.9946L4.87969 18.8191M10.253 15.9946L4.87969 18.8191M4.87969 18.8191C4.64525 18.9433 4.35987 18.923 4.14496 18.766M4.87969 18.8191L4.14496 18.766M4.14496 18.766C3.93006 18.6097 3.8226 18.3453 3.86726 18.0836L4.14496 18.766ZM15.2641 11.7424C15.1462 11.8573 15.0925 12.0228 15.1203 12.185L16.1466 18.1685C16.1466 18.1685 16.1466 18.1685 16.1466 18.1685C16.1593 18.2429 16.1288 18.318 16.0677 18.3624L16.067 18.3629C16.0339 18.387 15.9934 18.4 15.9515 18.4C15.9201 18.4 15.8887 18.3925 15.8603 18.3775L15.8597 18.3772L10.4857 15.552C10.34 15.4754 10.166 15.4754 10.0204 15.552L4.64705 18.3765L4.64563 18.3772C4.58015 18.4119 4.50018 18.4063 4.43991 18.3623L4.43905 18.3617C4.37796 18.3172 4.34744 18.2421 4.36013 18.1678L5.38645 12.1843C5.41427 12.0221 5.36048 11.8566 5.2426 11.7417L0.896278 7.50629C0.896231 7.50624 0.896183 7.5062 0.896135 7.50615C0.841319 7.45244 0.822772 7.3732 0.845415 7.30392C0.868981 7.23183 0.931661 7.17914 1.00586 7.16821C1.00595 7.1682 1.00603 7.16818 1.00612 7.16817L7.01267 6.29604C7.17556 6.27239 7.31637 6.17009 7.38921 6.02249L10.0755 0.578679L10.0755 0.57866C10.0891 0.551185 10.1399 0.5 10.253 0.5C10.3661 0.5 10.417 0.551185 10.4305 0.57866L10.4305 0.578679L13.1168 6.02249C13.1897 6.17009 13.3305 6.27239 13.4934 6.29604L19.4999 7.16817C19.5 7.16818 19.5 7.16818 19.5 7.16819C19.5749 7.17914 19.637 7.23157 19.6605 7.30353C19.6832 7.37316 19.6652 7.45156 19.6095 7.50652C19.6094 7.50666 19.6092 7.5068 19.6091 7.50695L15.2641 11.7424Z" stroke="#4C4F57" stroke-linecap="round" stroke-linejoin="round"/>
</svg>
