<svg width="20" height="20" viewBox="0 0 20 20" fill="none" xmlns="http://www.w3.org/2000/svg">
<path d="M19.6234 8.77111L15.2772 13.0078L16.3035 18.9917C16.3482 19.2533 16.2408 19.5178 16.0258 19.6741C15.9044 19.7627 15.76 19.8073 15.6156 19.8073C15.5046 19.8073 15.393 19.7808 15.2911 19.7271L9.91709 16.9019L4.54375 19.7264C4.30931 19.8506 4.02393 19.8304 3.80902 19.6734C3.59412 19.5171 3.48667 19.2526 3.53132 18.991L4.55771 13.0071L0.210752 8.77111C0.0209655 8.58551 -0.0481113 8.30781 0.0342227 8.05592C0.116557 7.80404 0.334951 7.61913 0.598001 7.58076L6.60489 6.70858L9.29121 1.26477C9.52635 0.788209 10.3078 0.788209 10.543 1.26477L13.2293 6.70858L19.2362 7.58076C19.4992 7.61913 19.7176 7.80334 19.7999 8.05592C19.8823 8.30851 19.8132 8.58481 19.6234 8.77111Z" fill="#BDBDBD"/>
<path d="M9.90243 13.8401C11.2093 13.8401 12.1439 13.1214 12.1411 12.1271C12.1439 11.4026 11.6837 10.8856 10.8286 10.7776V10.7322C11.4791 10.6157 11.928 10.1555 11.9252 9.50207C11.928 8.58445 11.124 7.86286 9.91948 7.86286C8.7263 7.86286 7.82857 8.56173 7.81152 9.56741H8.9905C9.00471 9.12423 9.41096 8.83729 9.9138 8.83729C10.411 8.83729 10.7433 9.13843 10.7405 9.57593C10.7433 10.0333 10.3541 10.343 9.79448 10.343H9.25186V11.2464H9.79448C10.4536 11.2464 10.8655 11.5759 10.8627 12.0447C10.8655 12.5077 10.4678 12.8259 9.90527 12.8259C9.36266 12.8259 8.95641 12.5418 8.93368 12.1157H7.69505C7.71493 13.1327 8.62402 13.8401 9.90243 13.8401Z" fill="white"/>
</svg>
