<svg width="20" height="20" viewBox="0 0 20 20" fill="none" xmlns="http://www.w3.org/2000/svg">
<path d="M19.6234 8.77111L15.2772 13.0078L16.3035 18.9917C16.3482 19.2533 16.2408 19.5178 16.0258 19.6741C15.9044 19.7627 15.76 19.8073 15.6156 19.8073C15.5046 19.8073 15.393 19.7808 15.2911 19.7271L9.91709 16.9019L4.54375 19.7264C4.30931 19.8506 4.02393 19.8304 3.80902 19.6734C3.59412 19.5171 3.48667 19.2526 3.53132 18.991L4.55771 13.0071L0.210752 8.77111C0.0209655 8.58551 -0.0481113 8.30781 0.0342227 8.05592C0.116557 7.80404 0.334951 7.61913 0.598001 7.58076L6.60489 6.70858L9.29121 1.26477C9.52635 0.788209 10.3078 0.788209 10.543 1.26477L13.2293 6.70858L19.2362 7.58076C19.4992 7.61913 19.7176 7.80334 19.7999 8.05592C19.8823 8.30851 19.8132 8.58481 19.6234 8.77111Z" fill="#55A73F"/>
<path d="M9.93546 14.3221C11.2309 14.3221 12.1116 13.4783 12.1088 12.3022C12.1116 11.1886 11.3332 10.3874 10.2849 10.3874C9.77353 10.3874 9.33319 10.6005 9.12864 10.8874H9.09455L9.24512 9.43005H11.7877V8.42437H8.23091L7.95534 11.4926L9.04909 11.6886C9.22807 11.4471 9.57466 11.2965 9.91841 11.2965C10.5036 11.2994 10.9241 11.7227 10.9241 12.3335C10.9241 12.9386 10.5122 13.3562 9.93546 13.3562C9.44682 13.3562 9.05194 13.0494 9.02353 12.5977H7.83034C7.85307 13.6033 8.73091 14.3221 9.93546 14.3221Z" fill="white"/>
</svg>
