<svg width="20" height="19" viewBox="0 0 20 19" fill="none" xmlns="http://www.w3.org/2000/svg">
<path d="M19.6234 7.86376L15.2772 12.1005L16.3035 18.0843C16.3482 18.346 16.2408 18.6104 16.0258 18.7667C15.9044 18.8553 15.76 18.9 15.6156 18.9C15.5046 18.9 15.393 18.8735 15.2911 18.8198L9.91709 15.9946L4.54375 18.8191C4.30931 18.9433 4.02393 18.923 3.80902 18.766C3.59412 18.6097 3.48667 18.3453 3.53132 18.0836L4.55771 12.0998L0.210752 7.86376C0.0209655 7.67816 -0.0481113 7.40046 0.0342227 7.14858C0.116557 6.89669 0.334951 6.71179 0.598001 6.67341L6.60489 5.80123L9.29121 0.35742C9.52635 -0.11914 10.3078 -0.11914 10.543 0.35742L13.2293 5.80123L19.2362 6.67341C19.4992 6.71179 19.7176 6.89599 19.7999 7.14858C19.8823 7.40116 19.8132 7.67747 19.6234 7.86376Z" fill="#E64747"/>
<path d="M10.706 6.63183H9.54972L8.10938 7.54376V8.63467L9.44176 7.79944H9.47585V12.45H10.706V6.63183Z" fill="white"/>
</svg>
