<svg width="24" height="24" viewBox="0 0 24 24" fill="none" xmlns="http://www.w3.org/2000/svg">
<g clip-path="url(#clip0_2113_7297)">
<path d="M16.5297 5.53762L17.6496 4.41773V8.62809C17.6496 9.08547 18.0204 9.45626 18.4777 9.45626C18.9351 9.45626 19.3059 9.08547 19.3059 8.62809V4.41773L20.4259 5.53762C20.7517 5.85855 21.2762 5.85456 21.5971 5.52863C21.9145 5.20625 21.9145 4.68879 21.5971 4.36641L19.0633 1.83264C18.7399 1.50924 18.2155 1.50924 17.8921 1.83264L15.3585 4.36641C15.0336 4.68841 15.0313 5.21277 15.3532 5.53762C15.6752 5.86248 16.1996 5.86483 16.5244 5.54287C16.5262 5.54114 16.5279 5.53941 16.5296 5.53767V5.53762H16.5297Z" fill="#660091"/>
<path d="M7.34374 18.422L6.22389 19.5419V15.3313C6.22389 14.8739 5.85311 14.5031 5.39572 14.5031C4.93833 14.5031 4.56755 14.8739 4.56755 15.3313V19.5416L3.44765 18.422C3.12565 18.0971 2.60129 18.0948 2.27644 18.4167C1.95158 18.7387 1.94924 19.2631 2.27119 19.588L2.27639 19.5932L4.81011 22.1269C5.13352 22.4503 5.65792 22.4503 5.98137 22.1269L8.51515 19.5929C8.84286 19.2738 8.84985 18.7495 8.53075 18.4218C8.21166 18.0941 7.6873 18.0871 7.35963 18.4062C7.3542 18.4114 7.34895 18.4167 7.34374 18.422Z" fill="#660091"/>
<path d="M23.1693 22.3406H15.7847L23.7548 14.3704C24.0782 14.047 24.0782 13.5226 23.7548 13.1992C23.5995 13.0439 23.3889 12.9567 23.1693 12.9566H13.7852C13.3278 12.9566 12.957 13.3274 12.957 13.7848C12.957 14.2422 13.3278 14.6129 13.7852 14.6129H21.1697L13.1996 22.5832C12.8762 22.9067 12.8762 23.431 13.1996 23.7545C13.3549 23.9098 13.5656 23.9971 13.7852 23.9971H23.1692C23.6266 23.9971 23.9974 23.6263 23.9974 23.1689C23.9974 22.7115 23.6266 22.3406 23.1693 22.3406Z" fill="#660091"/>
<path d="M6.26693 0.460821C6.06223 0.0517964 5.56473 -0.113913 5.15565 0.0907868C4.99557 0.170877 4.86576 0.300735 4.78562 0.460821L0.0934516 9.84473C-0.117434 10.2506 0.0406364 10.7506 0.446475 10.9615C0.85236 11.1724 1.35235 11.0143 1.56323 10.6085C1.56717 10.6009 1.57101 10.5932 1.57472 10.5855L3.13405 7.46683H7.91807L9.47736 10.5855C9.68825 10.9914 10.1882 11.1495 10.5941 10.9386C10.9912 10.7323 11.1525 10.248 10.9586 9.84478L6.26693 0.460821ZM3.96241 5.81048L5.52616 2.68309L7.0899 5.81048H3.96241Z" fill="#660091"/>
</g>
<defs>
<clipPath id="clip0_2113_7297">
<rect width="24" height="24" fill="white"/>
</clipPath>
</defs>
</svg>
