<svg width="24" height="24" viewBox="0 0 24 24" fill="none" xmlns="http://www.w3.org/2000/svg">
<path d="M21.3675 9.25H16.2525V5.8825C16.2505 5.38254 16.0505 4.90374 15.6963 4.55091C15.3421 4.19809 14.8625 4 14.3625 4H9.6375C9.13754 4 8.65794 4.19809 8.30371 4.55091C7.94948 4.90374 7.74948 5.38254 7.7475 5.8825V12.25H2.6325C2.13384 12.252 1.65616 12.4509 1.30355 12.8036C0.950943 13.1562 0.751975 13.6338 0.75 14.1325V17.275C0.75 17.7325 0.931741 18.1713 1.25524 18.4948C1.57874 18.8183 2.0175 19 2.475 19H21.525C21.9825 19 22.4213 18.8183 22.7448 18.4948C23.0683 18.1713 23.25 17.7325 23.25 17.275V11.1325C23.248 10.6338 23.0491 10.1562 22.6964 9.80355C22.3438 9.45094 21.8662 9.25198 21.3675 9.25ZM7.7475 17.5H2.4975C2.43842 17.4981 2.38228 17.4738 2.34048 17.432C2.29868 17.3902 2.27438 17.3341 2.2725 17.275V14.1325C2.27233 14.0348 2.30953 13.9408 2.37646 13.8697C2.4434 13.7986 2.535 13.7557 2.6325 13.75H7.7475V17.5ZM14.7525 17.5H9.2475V5.8825C9.24749 5.83163 9.25763 5.78127 9.27732 5.73437C9.29701 5.68747 9.32585 5.64496 9.36217 5.60935C9.39849 5.57373 9.44154 5.54571 9.48882 5.52694C9.5361 5.50816 9.58664 5.499 9.6375 5.5H14.3625C14.4134 5.499 14.4639 5.50816 14.5112 5.52694C14.5585 5.54571 14.6015 5.57373 14.6378 5.60935C14.6741 5.64496 14.703 5.68747 14.7227 5.73437C14.7424 5.78127 14.7525 5.83163 14.7525 5.8825V17.5ZM21.75 17.275C21.7481 17.3341 21.7238 17.3902 21.682 17.432C21.6402 17.4738 21.5841 17.4981 21.525 17.5H16.275V10.75H21.39C21.4402 10.75 21.49 10.7599 21.5364 10.7791C21.5828 10.7983 21.625 10.8265 21.6605 10.862C21.696 10.8976 21.7242 10.9397 21.7434 10.9861C21.7626 11.0325 21.7725 11.0823 21.7725 11.1325L21.75 17.275Z" fill="#660091"/>
</svg>
