<?xml version="1.0" encoding="UTF-8"?>
<svg width="811px" height="523px" viewBox="0 0 811 523" version="1.1" xmlns="http://www.w3.org/2000/svg" xmlns:xlink="http://www.w3.org/1999/xlink">
    <title>C71D86CA-C2EF-4832-A75E-F738E08CE3FB</title>
    <defs>
        <polygon id="path-1" points="299.96577 0.70785 346.99275 28.58427 400.31667 61.02486 306.37737 355.52439 0.0234 86.33547"></polygon>
        <linearGradient x1="79.1659203%" y1="13.7863564%" x2="41.0092975%" y2="56.4157609%" id="linearGradient-3">
            <stop stop-color="#FFCC0D" offset="0%"></stop>
            <stop stop-color="#FFFFFF" stop-opacity="0" offset="100%"></stop>
        </linearGradient>
    </defs>
    <g id="Page-1" stroke="none" stroke-width="1" fill="none" fill-rule="evenodd">
        <g id="Desktop-HD---404" transform="translate(-490.000000, -114.000000)">
            <g id="404-sketch" transform="translate(490.000000, 114.000000)">
                <polygon id="Fill-1" fill="#FFFFFF" points="62.633493 199.438551 -0.000117 308.042631 -0.000117 359.632611 72.658053 359.632611 72.658053 389.498031 137.791953 389.498031 137.791953 359.632611 181.258623 359.632611 181.258623 308.042631 137.791953 308.042631 137.791953 199.438551"></polygon>
                <polygon id="Fill-2" fill="#FFFFFF" points="464.72985 308.042631 464.72985 359.632611 449.69652 359.632611 449.69652 389.498031 384.56145 389.498031 384.56145 359.632611 311.90679 359.632611 311.90679 308.042631 374.54157 199.438551 449.69652 199.438551 449.69652 308.042631"></polygon>
                <g id="Group-10" transform="translate(70.200000, 0.597870)">
                    <path d="M263.690973,296.415405 C263.690973,351.097695 219.356163,395.432505 164.670363,395.432505 C109.983393,395.432505 65.652093,351.097695 65.652093,296.415405 C65.652093,241.727265 109.983393,197.393625 164.670363,197.393625 C219.356163,197.393625 263.690973,241.727265 263.690973,296.415405" id="Fill-3" fill="#FFFFFF"></path>
                    <g id="Group-7" transform="translate(0.000000, 125.190000)">
                        <mask id="mask-2" fill="white">
                            <use xlink:href="#path-1"></use>
                        </mask>
                        <g id="Clip-6"></g>
                        <polygon id="Fill-5" fill="url(#linearGradient-3)" mask="url(#mask-2)" points="299.96577 0.70785 346.99275 28.58427 400.31667 61.02486 306.37737 355.52439 0.0234 86.33547"></polygon>
                    </g>
                    <path d="M640.369197,293.69223 L621.423387,261.17325 M638.824797,299.64285 L640.369197,293.69223 M621.423387,261.17325 L615.505527,259.62885 M493.752987,150.76737 L500.397417,154.57338 M483.712047,144.99459 L488.641257,147.84471 M471.817827,138.18402 L478.628397,142.08948 M737.991657,465.84252 L738.860967,462.56184 M724.321377,437.66541 L719.882397,430.07445 M730.143297,447.66891 L728.567307,444.93579 M738.860967,462.56184 L734.389227,454.93929 M719.882397,430.07445 L716.215617,429.1092 M492.568947,97.29018 L486.660447,98.88021 M525.240027,115.98912 L492.657867,97.26912 M584.625717,289.09296 L597.911067,311.86584 M699.231897,485.68923 L705.182517,487.23363 M693.120987,475.20252 L699.231897,485.68923 M687.299067,465.19902 L692.220087,473.65929 M680.287257,453.16908 L686.398167,463.65579 M681.830487,447.25122 L680.287257,453.16908 M513.187857,121.42962 L513.403137,120.88323 M503.173827,115.67439 L503.390277,115.128 M508.870557,153.77427 L590.062707,274.39308 M608.814297,263.45592 L518.857677,129.79161 M629.078697,357.70176 L629.175807,357.83046 M656.420427,353.48859 L656.483607,353.23119 M654.714567,350.20674 L654.458337,350.1108 M646.673157,354.29238 L646.481277,354.38832 M639.114957,365.84028 L641.398797,364.48893 M637.538967,357.76611 L635.222367,359.14905 M634.964967,359.56791 L634.836267,360.1143 M638.085357,365.67882 L638.631747,365.84028 M627.824457,355.12893 L627.792867,355.70808 M627.824457,355.38633 L627.471117,355.57938 M629.078697,358.34526 L629.433207,358.12062 M656.645067,355.32198 L656.998407,354.93588 L657.191457,354.45267 L657.127107,353.42424 L656.838117,352.55493 L656.452017,351.68679 L655.969977,350.883 L655.262127,350.01486 L654.778917,349.53165 L654.200937,349.14555 L653.557437,348.92091 L652.945527,349.04961 M656.612307,355.06458 L656.869707,354.80718 L656.902467,354.64572 M632.263437,304.37082 L632.327787,303.43833 M613.221687,314.60013 L614.058237,314.98623 M631.974447,307.52397 L631.812987,307.29816 L631.555587,306.39726 L631.619937,305.49753 L631.941687,304.62822 L631.974447,304.59663 M614.347227,314.85753 L615.055077,314.88912 L615.891627,315.21087 L616.598307,315.79002 L616.952817,316.30482 M660.793887,357.05826 L660.087207,355.86837 M650.115297,338.75595 L631.941687,307.55556 M616.984407,316.27206 L635.158017,347.47362 M628.918407,351.17199 L635.190777,361.9161 M636.669657,364.48893 L669.736197,421.19649 M666.359577,352.20159 L656.420427,335.15352 M697.238217,405.17802 L667.099017,353.45583 M694.343637,410.19615 L694.214937,409.97151 L693.957537,409.1022 L693.989127,408.20247 L694.310877,407.33316 L694.696977,406.78677 L694.954377,406.56213 L695.050317,406.46502 M671.955687,419.94225 L672.020037,419.91066 L672.148737,419.8779 L672.374547,419.81355 L672.823827,419.71761 L673.628787,419.78196 L674.465337,420.07095 L675.172017,420.61851 L675.558117,421.1649 M707.208957,432.3267 L694.343637,410.22891 M675.558117,421.1649 L688.457367,443.26269 M457.225587,119.50497 L462.124377,118.28466 M473.309577,99.67581 L472.105647,94.74777 M471.978117,124.24464 L472.313907,124.93377 M483.516657,105.54687 L483.212457,105.55272 M462.124377,118.28466 L471.994497,124.21656 M483.179697,105.60771 L473.309577,99.67581 M732.169737,493.95528 L728.471367,490.25691 M706.759677,490.25691 L703.156077,493.82658 M728.502957,478.80612 L728.986167,478.00116 L729.435447,477.16578 L729.789957,476.26488 L730.111707,475.39557 L730.336347,474.46308 L730.497807,473.53059 L730.593747,472.5981 L730.626507,472.3407 M728.471367,490.2885 L728.471367,478.83771 M706.759677,486.33273 L706.759677,490.2885 M381.410757,2.25693 L375.014367,12.89808 M381.686877,2.0475 L381.642417,2.05803 L381.599127,2.06973 L381.582747,2.09664 L381.521907,2.13525 L381.504357,2.16333 L381.461067,2.17386 L381.427137,2.22885 L381.410757,2.25693 M386.321247,0.89271 L381.686877,2.0475 M386.664057,0.9477 L386.635977,0.93132 L386.580987,0.89856 L386.552907,0.88101 L386.509617,0.89271 L386.481537,0.87633 L386.410167,0.87048 L386.365707,0.88101 L386.321247,0.89271 M421.731297,121.73967 L424.847007,123.61167 M424.847007,123.61167 L424.928907,123.66198 L425.028357,123.68421 L425.100897,123.68889 L425.188647,123.66783 L425.276397,123.6456 L425.354787,123.57891 L425.414457,123.5403 L425.464767,123.4584 M421.113537,121.89294 L421.146297,121.83795 L421.223517,121.77243 L421.284357,121.73382 L421.389657,121.68351 L421.461027,121.68936 L421.549947,121.66713 L421.648227,121.68936 L421.731297,121.73967 M345.171177,62.55054 L325.419237,95.41233 M374.965227,12.98115 L358.593417,40.21875 M325.429767,95.64399 L325.419237,95.59953 L325.408707,95.55624 L325.397007,95.51178 L325.386477,95.46732 L325.402857,95.44041 L325.419237,95.41233 M325.447317,95.61591 L325.683657,95.90958 L325.921167,96.20208 M349.860537,54.74781 L345.205107,62.49555 M358.560657,40.27491 L353.904057,48.02148 M328.496337,97.22349 L328.396887,97.38963 M353.871297,48.07647 L349.876917,54.7209 M318.807567,106.41267 L318.261177,107.13456 L317.593107,107.74647 L316.837287,108.19224 L315.976167,108.50112 L315.116217,108.62163 L314.238717,108.58185 L313.361217,108.35487 L312.539877,107.97462 M410.244237,166.70043 L409.522347,166.15287 L408.910437,165.4848 L408.464667,164.72898 L408.139407,163.89594 L408.035277,163.00791 L408.075057,162.13041 L408.302037,161.25408 L408.682287,160.43157 M408.682287,160.43157 L413.637237,152.18892 M324.822537,96.40449 L318.807567,106.41267 M324.822537,96.40449 L324.872847,96.32259 L324.933687,96.28398 L324.994527,96.24537 L325.054197,96.20676 L325.143117,96.18453 L325.214487,96.19038 L325.285857,96.19506 L325.385307,96.21729 M413.467587,151.03647 L413.571717,151.17336 L413.648937,151.29504 L413.709777,151.4448 L413.742537,151.57701 L413.758917,151.7373 L413.748387,151.88004 L413.692227,152.03448 L413.653617,152.16084 M335.053017,99.73899 L334.953567,99.90396 M432.806517,23.57901 L432.653247,22.96125 M424.134477,17.84016 L423.488637,17.97822 M423.488637,17.97822 L421.235217,21.7269 M430.553097,27.32769 L432.806517,23.57901 M597.041757,303.82443 L596.817117,303.34239 L596.688417,302.69889 L596.784357,301.34754 L597.234807,300.06054 L597.911067,298.83906 L599.003847,297.61641 L600.419547,296.58681 L602.317287,295.84737 L604.053567,295.78302 L605.469267,296.20071 L606.723507,297.07002 L607.495707,298.19556 L607.817457,299.41821 L607.785867,300.70404 L607.335417,301.99104 L606.241467,303.47109 L604.279377,304.82127 L602.767737,305.36883 L601.256097,305.56188 L600.000687,305.49753 L598.779207,305.17578 L598.102947,304.85403 L597.427857,304.33923 L597.138867,303.95313 L597.041757,303.82443 M591.219837,293.82093 L590.995197,293.33889 L590.866497,292.69539 L590.962437,291.34404 L591.381297,290.02545 L592.087977,288.83556 L593.181927,287.61291 L594.564867,286.58331 L596.462607,285.84387 L598.231647,285.77952 L599.647347,286.19721 L600.901587,287.06652 L601.642197,288.19206 L601.995537,289.41471 L601.931187,290.70054 L601.513497,291.98754 L600.419547,293.46759 L598.457457,294.81777 L596.945817,295.36533 L595.434177,295.55838 L594.178767,295.49403 L592.957287,295.17228 L592.281027,294.85053 L591.605937,294.33573 L591.316947,293.94963 L591.219837,293.82093 M628.756947,285.36183 L628.242147,284.13918 L628.017507,282.94929 L628.081857,281.82258 L628.532307,280.6011 L629.464797,279.66744 L630.236997,279.4428 L630.976437,279.50715 L631.748637,279.86049 L632.456487,280.50399 L633.099987,281.34054 L633.388977,281.75823 L633.679137,282.27303 L633.903777,282.65913 L634.129587,283.04523 L634.418577,283.62438 L634.900617,284.87862 L635.029317,285.87546 L634.804677,286.74477 L633.775077,287.70885 L632.520837,287.9019 L631.298187,287.61291 L630.172647,286.96941 L629.175807,285.93981 L628.756947,285.36183 M622.935027,275.35833 L622.420227,274.13568 L622.195587,272.94579 L622.259937,271.81908 L622.710387,270.5976 L623.642877,269.66394 L624.415077,269.4393 L625.154517,269.50365 L625.895127,269.85699 L626.634567,270.50049 L627.278067,271.33704 L627.567057,271.75473 L627.857217,272.26953 L628.081857,272.65563 L628.306497,273.04173 L628.596657,273.62088 L629.078697,274.87512 L629.207397,275.87196 L628.982757,276.74127 L627.953157,277.70535 L626.698917,277.8984 L625.444677,277.60941 L624.350727,276.96591 L623.321127,275.93631 L622.935027,275.35833 M586.330407,289.8324 L598.135707,310.0968 M586.877967,281.27619 L587.199717,283.10958 L587.295657,284.91138 L587.231307,286.48737 L587.038257,287.87031 L586.716507,289.02861 L586.330407,289.8324 M621.423387,261.17325 L621.391797,261.20484 L621.101637,261.3663 L620.490897,261.71964 L619.589997,262.23444 L618.431697,262.90953 L617.017167,263.71332 L615.344067,264.67857 L613.510677,265.77252 L611.452647,266.93082 L609.264747,268.21665 L606.949317,269.568 L604.536777,270.95094 L602.124237,272.36664 L599.680107,273.78117 L597.267567,275.19687 L594.919377,276.57981 L592.667127,277.8984 L590.544747,279.12105 L588.614247,280.24659 L586.877967,281.27619 M605.823777,313.79634 L607.560057,312.76674 L609.490557,311.6412 L611.612937,310.41855 L613.865187,309.09996 L616.212207,307.71702 L618.624747,306.30132 L621.070047,304.88562 L623.482587,303.47109 L625.895127,302.08698 L628.210557,300.7368 L630.397287,299.4498 L632.423727,298.25991 L634.289877,297.19872 L635.962977,296.23347 L637.377507,295.42968 L638.535807,294.75342 L639.436707,294.23862 L640.047447,293.88528 L640.336437,293.72382 L640.369197,293.69223 M598.135707,310.0968 L598.875147,310.0968 L599.840397,310.32144 L602.252937,311.28669 L603.700227,312.12324 L605.147517,313.21719 L605.823777,313.79634 M612.964287,314.66448 L614.733327,313.60329 L616.662657,312.50934 L618.689097,311.31945 L620.779887,310.0968 L622.903437,308.84256 L625.025817,307.61991 L627.116607,306.39726 L629.143047,305.24013 L631.040787,304.11342 L632.778237,303.11658 L634.354227,302.18409 L635.737167,301.41189 L636.862707,300.7368 L637.763607,300.222 L638.374347,299.86749 L638.728857,299.67561 L638.793207,299.64285 L638.600157,299.77155 M605.823777,313.79634 L609.393447,314.18127 L612.964287,314.66448 M615.505527,259.62885 L615.408417,259.66044 L615.086667,259.85349 L614.443167,260.208 L613.575027,260.7228 L612.416727,261.3663 L611.033787,262.17009 L609.490557,263.07099 L607.721517,264.09942 L605.823777,265.19337 L603.797337,266.38326 L601.738137,267.57315 L599.582997,268.82856 L597.460617,270.0828 L595.369827,271.30545 L593.343387,272.46258 L591.412887,273.58812 L589.643847,274.65048 M589.643847,274.65048 L588.325257,277.93116 L586.877967,281.27619 M622.452987,309.13155 L624.222027,308.10195 L625.959477,307.10511 L627.599817,306.13986 L629.111457,305.27172 L630.397287,304.49952 L631.491237,303.88878 L632.327787,303.40674 L632.842587,303.11658 L633.099987,302.98788 L633.002877,303.02064 M612.964287,314.66448 L622.452987,309.13155 M633.002877,303.02064 L638.600157,299.77155 M486.095337,101.13012 L485.526717,102.32703 L484.852797,103.76028 L484.018587,105.39828 L483.084927,107.20125 L482.068197,109.14228 L480.941487,111.20499 L479.753937,113.30514 L478.548837,115.43454 L477.328527,117.58968 L476.069607,119.68515 L474.876207,121.67064 L473.705037,123.55551 L472.616937,125.30349 L471.601377,126.87012 L470.716857,128.21445 L469.910727,129.30606 L469.264887,130.19409 L468.773487,130.76154 M491.905557,99.89343 L486.095337,101.13012 M491.905557,99.89343 L491.325237,101.23425 L490.551867,102.83247 L489.662667,104.62491 L488.640087,106.63731 L487.491147,108.79947 L486.259137,111.09852 L484.949907,113.46426 L483.590367,115.9119 L482.187537,118.37124 L480.774177,120.78612 L479.359647,123.20217 L477.984897,125.48952 L476.647587,127.65168 L475.382817,129.63132 L474.217497,131.44482 L473.141097,133.04889 L472.213287,134.40492 L471.407157,135.49653 L470.765997,136.31319 L470.264067,136.83618 L469.943487,137.05731 M468.773487,130.76154 L469.344447,133.99542 L469.943487,137.05731 M488.712627,147.85056 L488.420127,147.7125 L487.990737,147.30417 L487.825767,146.82915 L488.035197,146.3553 L488.835477,145.89783 L490.005477,145.7001 L491.251527,145.81125 L492.663717,146.21022 L493.854777,146.85021 L494.820027,147.61773 L495.519687,148.45194 L495.987687,149.29551 L496.142127,150.28884 L495.722097,151.05051 L495.131247,151.22016 L494.391807,151.07625 L493.669917,150.71706 L493.586847,150.66792 M478.683387,142.12224 L478.407267,141.9561 L477.960327,141.57585 L477.795357,141.10083 L478.022337,140.5989 L478.822617,140.1426 L479.992617,139.94487 L481.211757,140.03964 L482.634477,140.4819 L483.841917,141.09498 L484.779087,141.84612 L485.506827,142.69554 L485.974827,143.54028 L486.128097,144.53361 L485.691687,145.32219 L485.118387,145.46493 L484.352037,145.30464 L483.657057,144.96183 L483.573987,144.91152 M505.725597,126.6642 L504.694827,125.81946 L504.016227,124.69977 L503.669907,123.40224 L503.759997,121.5045 L504.616437,119.20545 L505.578177,117.79443 L506.665107,116.60922 L507.940407,115.61121 L509.336217,114.91155 L510.660657,114.58161 L511.178967,114.59331 L511.758117,114.7536 L512.144217,114.98526 L512.481177,115.29999 L512.937477,115.91307 L513.504927,117.71721 L513.575127,119.59857 L513.324747,121.51269 L512.186337,124.28091 L510.772977,125.94582 L509.271867,126.88182 L507.849147,127.18953 L506.364417,126.97425 L505.725597,126.6642 M495.668277,120.9195 L494.664417,120.09114 L493.986987,118.97145 L493.628967,117.63063 L493.747137,115.74927 L494.603577,113.44905 L495.520857,112.04856 L496.652247,110.85282 L497.911167,109.88289 L499.323357,109.15632 L500.631417,108.85329 L501.166107,108.83691 L501.745257,108.99837 L502.131357,109.23003 L502.467147,109.54476 L502.880157,110.16837 L503.447607,111.97251 L503.562267,113.84217 L503.295507,115.78437 L502.157097,118.55259 L500.743737,120.2175 L499.259007,121.12659 L497.808207,121.41792 L496.351557,121.21785 L495.668277,120.9195 M469.943487,137.05731 L471.376737,137.91843 L471.817827,138.18402 M524.504097,118.58652 L491.905557,99.89343 M502.513947,155.73285 L502.834527,155.51289 L503.320077,155.01681 L503.988147,154.2177 L504.794277,153.12609 L505.738467,151.74198 L506.799657,150.16482 L507.964977,148.35132 L509.218047,146.32722 L510.555357,144.16623 L511.930107,141.87771 L513.355167,139.50729 L514.759167,137.04795 L516.161997,134.58861 L517.548447,132.15735 L518.857677,129.79161 L520.089687,127.49139 L521.210547,125.31402 L522.243657,123.34491 L523.150407,121.52556 L523.879317,119.93787 L524.504097,118.58652 M500.397417,154.57338 L501.737067,155.3409 L502.513947,155.73285 M502.513947,155.73285 L505.598067,154.84716 L508.870557,153.77427 M503.323587,115.23798 L503.478027,115.10577 M513.380907,120.98268 L513.490887,120.86217 M482.759667,106.55658 L482.240187,107.67042 L481.588497,109.00422 L480.776517,110.54277 L479.881467,112.21938 L478.909197,113.96151 L477.876087,115.74225 L476.842977,117.52299 L475.832097,119.20545 L474.887907,120.77676 M486.095337,101.13012 L482.759667,106.55658 M474.887907,120.77676 L468.773487,130.76154 M708.593067,485.17443 L710.040357,484.33788 L711.647937,483.37263 L713.449737,482.31144 L715.379067,481.1859 L717.405507,479.99601 L719.496297,478.77336 L721.651437,477.51912 L723.774987,476.26488 L725.833017,475.07499 L727.859457,473.91669 L729.725607,472.82274 L731.461887,471.8259 L733.006287,470.925 L734.357637,470.1528 L735.450417,469.5093 L736.319727,469.02726 L736.930467,468.70551 L737.220627,468.51246 M703.284777,483.24393 L708.593067,485.17443 M703.284777,483.24393 L704.893527,482.27985 L706.695327,481.21866 L708.689007,480.06036 L710.844147,478.77336 L713.127987,477.42201 L715.507767,476.03907 L717.953067,474.62454 L720.397197,473.20884 L722.809737,471.79314 L725.157927,470.4102 L727.441767,469.09161 L729.596907,467.83737 L731.590587,466.71183 L733.359627,465.64947 L734.936787,464.74974 L736.286967,463.97754 L737.348157,463.39839 L738.153117,462.94794 L738.635157,462.65895 L738.828207,462.56184 L738.860967,462.56184 M737.220627,468.51246 L737.991657,465.84252 M727.763517,444.09924 L727.859457,444.19518 L728.342667,444.67839 L728.631657,445.09608 L728.567307,445.32072 L728.052507,445.22478 L727.217127,444.74274 L726.380577,444.00213 L725.446917,442.94094 L724.740237,441.78264 L724.225437,440.6571 L723.903687,439.59591 L723.774987,438.66342 L723.806577,437.79411 L724.096737,437.44077 L724.321377,437.66541 L724.547187,438.24456 L724.707477,438.88806 M733.617027,454.10274 L733.681377,454.19868 L734.196177,454.68189 L734.486337,455.09958 L734.421987,455.32422 L733.874427,455.22828 L733.070637,454.74624 L732.202497,454.00563 L731.301597,452.91285 L730.593747,451.78614 L730.078947,450.6606 L729.757197,449.59941 L729.596907,448.66692 L729.661257,447.79761 L729.918657,447.44427 L730.143297,447.66891 L730.369107,448.24806 L730.529397,448.89156 M706.533867,452.78415 L706.984317,454.03839 L706.984317,455.35698 L706.598217,456.67557 L705.537027,458.25156 L703.477827,459.86031 L701.837487,460.59975 L700.132797,461.11455 L698.363757,461.37195 L696.594717,461.33919 L695.147427,460.98585 L694.632627,460.69686 L694.182177,460.278 L693.957537,459.8919 L693.828837,459.44145 L693.828837,458.70201 L694.439577,456.80427 L695.533527,455.06682 L696.884877,453.52359 L699.489297,451.65744 L701.677197,450.88641 L703.477827,450.85365 L704.893527,451.3041 L706.083417,452.205 L706.533867,452.78415 M712.355787,462.78765 L712.806237,464.04189 L712.838997,465.36048 L712.452897,466.67907 L711.358947,468.25506 L709.332507,469.86381 L707.692167,470.60325 L705.954717,471.11805 L704.185677,471.37545 L702.449397,471.34269 L700.969347,470.98935 L700.487307,470.70036 L700.036857,470.2815 L699.811047,469.8954 L699.682347,469.44495 L699.682347,468.67392 L700.294257,466.80777 L701.355447,465.07149 L702.738387,463.52709 L705.343977,461.62935 L707.499117,460.88991 L709.332507,460.85715 L710.748207,461.3076 L711.938097,462.2085 L712.355787,462.78765 M684.307377,450.72495 L703.284777,483.24393 M719.882397,430.07445 L719.882397,430.07445 L719.657757,430.17156 L719.174547,430.42896 L718.370757,430.87824 L717.309567,431.49015 L715.958217,432.26235 L714.382227,433.16208 L712.613187,434.19168 L710.619507,435.34998 L708.464367,436.57263 L706.212117,437.92281 L703.832337,439.27416 L701.419797,440.68986 L698.974497,442.13715 L696.530367,443.55168 L694.150587,444.93579 L691.866747,446.28597 L689.711607,447.54021 L687.716757,448.73127 L685.916127,449.79246 L684.307377,450.72495 M685.239867,445.19202 L684.307377,450.72495 M713.867427,428.53122 L713.578437,428.69151 L712.966527,429.01326 L712.098387,429.4953 L711.004437,430.1388 L709.654257,430.911 L708.109857,431.8119 L706.373577,432.80874 L704.507427,433.90269 L702.480987,435.05982 L700.422957,436.28247 L698.299407,437.50512 L696.144267,438.75936 L694.053477,439.98201 L692.027037,441.1719 L690.097707,442.3302 L688.295907,443.35863 L686.688327,444.32388 L685.239867,445.19202 M716.215617,429.1092 L713.867427,428.53122 M716.441427,480.60675 L718.017417,479.70585 L719.722107,478.67742 L721.522737,477.64782 L723.291777,476.61822 L724.997637,475.62138 L726.573627,474.68889 L727.988157,473.88393 M708.593067,485.17443 L712.195497,483.08364 M727.988157,473.88393 L737.220627,468.51246 M483.356367,105.18885 L486.543447,100.01043 M486.543447,100.01043 L492.353667,98.77491 M492.353667,98.77491 L524.951037,117.46683 M483.356367,105.18885 L483.439437,105.42519 M492.568947,97.29018 L492.657867,97.26912 L492.729237,97.46217 L492.646167,97.97463 L492.353667,98.77491 M482.159457,104.99463 L482.800617,103.99077 L483.793947,102.52476 L484.611777,101.28924 L485.368767,100.2807 L485.959617,99.54711 L486.400707,99.06156 L486.660447,98.88021 L486.780957,98.99019 L486.754047,99.34938 L486.543447,100.01043 M524.951037,117.46683 L525.200247,116.67825 L525.311397,116.18217 L525.240027,115.98912 M482.710527,105.32574 L482.744457,105.27075 L483.185547,104.7852 L483.400827,104.61438 L483.478047,104.73606 L483.356367,105.18885 M613.188927,314.60013 L608.106447,317.55906 M608.106447,317.55906 L604.665477,317.01267 L601.320447,316.46511 M601.320447,316.46511 L600.258087,315.08217 L599.261247,313.79634 L598.457457,312.73398 L597.846717,311.80149 L597.524967,311.02929 L597.524967,310.45014 M597.524967,310.45014 L598.167297,310.0968 M585.719667,290.18574 L585.301977,289.99269 L584.851527,289.47906 L583.919037,287.64567 L583.371477,286.29432 L582.696387,284.74992 L582.374637,283.97772 M582.374637,283.97772 L583.532937,280.82574 L584.787177,277.54506 M584.787177,277.54506 L589.612257,274.74642 M586.330407,289.8324 L585.719667,290.18574 M597.524967,310.45014 L585.719667,290.18574 M637.989417,300.15765 L632.327787,303.43833 M637.989417,300.15765 L637.152867,300.63969 L636.091677,301.2516 L634.771917,302.02263 L633.260277,302.92353 L632.327787,303.47109 M613.221687,314.60013 L611.805987,315.40392 L610.358697,316.27206 L609.104457,316.97991 L608.106447,317.55906 M709.976007,484.40223 L707.208957,486.01098 M707.208957,486.01098 L701.901837,484.04889 M701.901837,484.04889 L682.924437,451.5615 M682.924437,451.5615 L683.856927,445.99698 M683.856927,445.99698 L685.239867,445.19202 M699.231897,485.68923 L699.264657,485.68923 L699.489297,485.52777 L700.004097,485.20719 L700.809057,484.72398 L701.901837,484.04889 M706.759677,486.39708 L706.598217,486.46143 L705.858777,486.87912 L705.375567,487.13652 L705.182517,487.23363 L705.279627,487.16928 L705.665727,486.94347 L706.309227,486.55737 L707.208957,486.01098 M686.398167,463.65579 L686.462517,463.78449 L686.655567,464.13783 L686.848617,464.42799 L687.008907,464.74974 L687.234717,465.07149 L687.299067,465.19902 M692.220087,473.65929 L692.317197,473.78799 L692.510247,474.10974 L692.670537,474.43149 L692.863587,474.75324 L693.056637,475.07499 L693.120987,475.20252 M682.924437,451.5615 L681.830487,452.205 L681.026697,452.7198 L680.511897,453.04038 L680.287257,453.16908 M683.856927,445.99698 L682.956027,446.54337 L682.313697,446.92947 L681.927597,447.18687 L681.830487,447.25122 M598.424697,303.02064 L599.165307,303.92037 L600.129387,304.59663 L601.223337,304.94997 L602.348877,304.94997 L603.442827,304.62822 L604.375317,303.98472 L605.083167,303.08499 L605.469267,302.02263 L605.533617,300.8655 L605.276217,299.7072 L604.665477,298.71036 L603.828927,297.9054 L602.799327,297.39177 L601.642197,297.23031 L600.515487,297.39177 L599.518647,297.87381 L598.682097,298.64601 L598.135707,299.64285 L597.878307,300.76839 L598.007007,301.92669 L598.424697,303.02064 M598.038597,303.24528 L597.589317,302.11974 L597.460617,300.89709 L597.589317,299.93184 M603.828927,304.82127 L603.282537,305.11143 L602.124237,305.40042 L600.934347,305.30448 L599.776047,304.91838 L598.810797,304.21053 L598.038597,303.24528 M599.422707,302.44149 L601.770897,303.82443 M601.770897,303.82443 L604.053567,302.47308 M604.053567,302.47308 L604.021977,299.77155 M604.021977,299.77155 L601.673787,298.38861 M601.673787,298.38861 L599.389947,299.73996 M599.389947,299.73996 L599.422707,302.44149 M601.094637,298.74195 L601.673787,298.38861 M601.094637,298.74195 L599.389947,299.73996 M603.475587,302.82759 L603.442827,300.12489 M603.442827,300.12489 L604.021977,299.77155 M603.442827,300.12489 L601.094637,298.74195 M727.151607,440.9145 L727.634817,442.04004 L727.827867,443.19834 L727.730757,444.32388 L727.537707,444.93579 M723.774987,438.59907 L724.450077,438.72777 L725.511267,439.20981 L726.412167,439.94925 L727.151607,440.9145 M726.219117,441.46089 L724.032387,439.98201 M726.444927,444.06648 L726.219117,441.46089 M724.900527,442.23309 L726.219117,441.46089 M490.636107,150.20811 L489.682557,149.48388 L488.950137,148.51863 L488.541807,147.44808 L488.455227,146.34477 L488.487987,146.10141 M496.032147,149.47218 L495.209637,150.2163 L494.149617,150.66792 L492.969087,150.82119 L491.766327,150.69951 L490.636107,150.20811 M491.310027,149.14926 L494.012727,149.27211 M494.012727,149.27211 L494.924157,147.75579 M490.606857,145.76094 L489.927087,146.89116 M489.927087,146.89116 L491.310027,149.14926 M494.454987,148.22496 L494.012727,149.27211 M494.454987,148.22496 L494.820027,147.61773 M490.440717,146.03706 L491.752287,148.10094 M491.752287,148.10094 L491.310027,149.14926 M491.752287,148.10094 L494.454987,148.22496 M480.623247,144.45171 L479.669697,143.72865 L478.919727,142.79031 L478.528947,141.69168 L478.441197,140.58837 L478.475127,140.34618 M486.018117,143.71695 L485.168697,144.44469 L484.136757,144.91269 L482.939847,145.09404 L481.726557,144.92673 L480.623247,144.45171 M481.297167,143.39286 L483.999867,143.51688 M483.999867,143.51688 L484.911297,142.00056 M480.593997,140.00571 L479.897847,141.16401 M479.897847,141.16401 L481.297167,143.39286 M484.414047,142.45218 L483.999867,143.51688 M484.414047,142.45218 L484.779087,141.84612 M480.427857,140.28066 L481.739427,142.34571 M481.739427,142.34571 L481.297167,143.39286 M481.739427,142.34571 L484.414047,142.45218 M733.006287,450.918 L733.488327,452.04354 L733.681377,453.20184 L733.585437,454.32738 L733.359627,454.93929 M729.596907,448.60257 L730.304757,448.73127 L731.333187,449.21331 L732.266847,449.95275 L733.006287,450.918 M732.073797,451.46439 L729.885897,449.98551 M732.266847,454.06998 L732.073797,451.46439 M730.755207,452.23659 L732.073797,451.46439 M592.602777,293.01714 L593.343387,293.91687 L594.275877,294.59313 L595.369827,294.94647 L596.526957,294.94647 L597.620907,294.62472 L598.553397,293.98122 L599.229657,293.08149 L599.647347,292.01913 L599.711697,290.862 L599.422707,289.7037 L598.843557,288.70686 L598.007007,287.9019 L596.945817,287.38827 L595.820277,287.22681 L594.693567,287.38827 L593.665137,287.87031 L592.860177,288.64251 L592.313787,289.63935 L592.056387,290.76489 L592.185087,291.92319 L592.602777,293.01714 M592.216677,293.24178 L591.767397,292.11624 L591.638697,290.89359 L591.831747,289.7037 L592.345377,288.64251 L593.181927,287.7732 L593.632377,287.45262 M598.007007,294.81777 L597.427857,295.10793 L596.269557,295.39692 L595.079667,295.30098 L593.954127,294.91488 L592.988877,294.20703 L592.216677,293.24178 M593.600787,292.43799 L595.948977,293.82093 M595.948977,293.82093 L598.231647,292.46958 M598.231647,292.46958 L598.167297,289.76805 M598.167297,289.76805 L595.851867,288.38511 M595.851867,288.38511 L593.568027,289.73529 M593.568027,289.73529 L593.600787,292.43799 M595.272717,288.73845 L595.851867,288.38511 M595.272717,288.73845 L593.568027,289.73529 M597.653667,292.82409 L597.620907,290.12139 M597.620907,290.12139 L598.167297,289.76805 M597.620907,290.12139 L595.272717,288.73845 M507.294567,122.99157 L508.369797,123.45021 L509.528097,123.58359 L510.670017,123.36948 L511.646967,122.86872 L512.398107,122.11875 L512.889507,121.17573 L513.045117,120.10518 L512.825157,119.0358 L512.324397,118.05885 L511.507737,117.23049 L510.515577,116.63379 L509.368977,116.35767 L508.227057,116.38341 L507.161187,116.7192 L506.273157,117.3861 L505.643697,118.24605 L505.333647,119.26161 L505.338327,120.31461 L505.718577,121.36878 L506.369097,122.28489 L507.294567,122.99157 M507.168207,123.14016 L506.213487,122.4171 L505.509147,121.46823 L505.073907,120.3813 L505.002537,119.24991 L505.257597,118.20159 M513.187857,121.42962 L513.187857,121.42962 L512.607537,122.39487 L511.756947,123.12261 L510.681717,123.60114 L509.501187,123.75441 L508.314807,123.60465 L507.168207,123.14016 M507.842127,122.08248 L510.561207,122.17725 M510.561207,122.17725 L511.864587,120.07125 M511.864587,120.07125 L510.481647,117.81432 M510.481647,117.81432 L507.762567,117.71838 M507.762567,117.71838 L506.459187,119.82438 M506.459187,119.82438 L507.842127,122.08248 M510.987087,121.15818 L510.561207,122.17725 M510.987087,121.15818 L511.748757,119.8899 M506.999727,118.98666 L508.283217,121.03416 M508.283217,121.03416 L507.842127,122.08248 M508.283217,121.03416 L510.987087,121.15818 M702.094887,455.42133 L701.387037,454.48884 L700.487307,453.81258 L699.489297,453.39489 L698.460867,453.29778 L697.495617,453.55518 L696.723417,454.13433 L696.144267,454.93929 L695.855277,455.93613 L695.886867,457.06167 L696.177027,458.15562 L696.787767,459.18405 L697.591557,459.98901 L698.556807,460.56816 L699.586407,460.7928 L700.583247,460.72845 L701.451387,460.31076 L702.127647,459.60291 L702.578097,458.70201 L702.706797,457.60806 L702.545337,456.48252 L702.094887,455.42133 M702.191997,455.38857 L702.674037,456.48252 L702.867087,457.67241 L702.738387,458.79912 L702.352287,459.79596 L701.677197,460.56816 L701.291097,460.85715 M696.916467,453.49083 L697.398507,453.23343 L698.396517,453.04038 L699.489297,453.20184 L700.518897,453.65229 L701.451387,454.39173 L702.191997,455.38857 M701.226747,455.90337 L699.071607,454.45608 M699.071607,454.45608 L697.076757,455.58162 M697.076757,455.58162 L697.302567,458.18721 M697.302567,458.18721 L699.489297,459.66726 M699.489297,459.66726 L701.451387,458.54172 M701.451387,458.54172 L701.226747,455.90337 M697.753017,455.22828 L699.071607,454.45608 M697.753017,455.22828 L697.109517,455.61438 M699.939747,456.70833 L697.753017,455.22828 M700.132797,459.28116 L699.939747,456.70833 M699.939747,456.70833 L701.226747,455.90337 M629.078697,285.84387 L630.880497,286.87347 M630.880497,286.87347 L633.164337,285.55488 M633.164337,285.55488 L633.131577,282.85218 M633.131577,282.85218 L630.783387,281.46924 M630.783387,281.46924 L628.499547,282.78783 M628.499547,282.78783 L628.532307,284.81427 M630.204237,281.79099 L630.783387,281.46924 M630.204237,281.79099 L628.499547,282.78783 M632.585187,285.87546 L632.552427,283.17393 M632.552427,283.17393 L633.131577,282.85218 M632.552427,283.17393 L630.204237,281.79099 M623.256777,275.84037 L625.058577,276.86997 M625.058577,276.86997 L627.342417,275.55138 M627.342417,275.55138 L627.278067,272.84868 M627.278067,272.84868 L624.961467,271.46574 M624.961467,271.46574 L622.646037,272.78433 M622.646037,272.78433 L622.710387,274.81077 M624.382317,271.78749 L624.961467,271.46574 M624.382317,271.78749 L622.646037,272.78433 M626.763267,275.87196 L626.698917,273.17043 M626.698917,273.17043 L627.278067,272.84868 M626.698917,273.17043 L624.382317,271.78749 M497.265327,117.26325 L498.356937,117.69498 L499.515237,117.82836 L500.612697,117.62478 L501.617727,117.1404 L502.385247,116.36235 L502.876647,115.41933 L503.032257,114.34995 L502.812297,113.2794 L502.283457,112.28607 L501.494877,111.47409 L500.486337,110.90547 L499.354947,110.60127 L498.213027,110.62818 L497.131947,110.99088 L496.232217,111.61449 L495.602757,112.47444 L495.292707,113.48883 L495.309087,114.58629 L495.688167,115.64046 L496.355067,116.52966 L497.265327,117.26325 M497.154177,117.38493 L496.200627,116.66187 L495.468207,115.69545 L495.061047,114.6249 L494.973297,113.52159 L495.244737,112.44636 M503.173827,115.67439 L503.157447,115.7013 L502.594677,116.63847 L501.727707,117.39429 L500.667687,117.84474 L499.487157,117.99918 L498.285567,117.87633 L497.154177,117.38493 M497.828097,116.32608 L500.530797,116.4501 M500.530797,116.4501 L501.851727,114.31602 M501.851727,114.31602 L500.424327,112.06962 M500.424327,112.06962 L497.748537,111.96315 M497.748537,111.96315 L496.428777,114.09606 M496.428777,114.09606 L497.828097,116.32608 M500.973057,115.40178 L500.530797,116.4501 M500.973057,115.40178 L501.735897,114.1335 M496.958787,113.21388 L498.270357,115.27893 M498.270357,115.27893 L497.828097,116.32608 M498.270357,115.27893 L500.973057,115.40178 M707.916807,465.42483 L707.208957,464.49234 L706.340817,463.81608 L705.311217,463.39839 L704.314377,463.30128 L703.349127,463.55868 L702.545337,464.10624 L701.998947,464.94279 L701.708787,465.93963 L701.708787,467.06517 L702.030537,468.15912 L702.609687,469.18755 L703.413477,469.99251 L704.378727,470.57166 L705.408327,470.7963 L706.405167,470.73195 L707.306067,470.31426 L707.981157,469.60641 L708.400017,468.67392 L708.560307,467.61156 L708.400017,466.48602 L707.916807,465.42483 M708.013917,465.39207 L708.495957,466.48602 L708.689007,467.67591 L708.593067,468.80262 L708.174207,469.79946 L707.499117,470.57166 L707.113017,470.86065 M702.738387,463.49433 L703.220427,463.23693 L704.250027,463.04505 L705.311217,463.20534 L706.373577,463.65579 L707.273307,464.39523 L708.013917,465.39207 M707.080257,465.90687 L704.893527,464.42799 M704.893527,464.42799 L702.931437,465.58512 M702.931437,465.58512 L703.156077,468.19071 M703.156077,468.19071 L705.311217,469.67076 M705.311217,469.67076 L707.273307,468.54522 M707.273307,468.54522 L707.080257,465.90687 M703.574937,465.23178 L704.893527,464.42799 M703.574937,465.23178 L702.931437,465.61788 M705.761667,466.71183 L703.574937,465.23178 M705.987477,469.28466 L705.761667,466.71183 M705.761667,466.71183 L707.080257,465.90687 M631.877337,356.25447 L629.175807,357.83046 M629.175807,357.83046 L628.114617,356.09418 M628.114617,356.09418 L627.502707,354.03498 M629.819307,352.71639 L627.502707,354.03498 M633.324627,358.73136 L631.910097,359.56791 M631.910097,359.56791 L630.301347,358.8273 M630.301347,358.8273 L629.175807,357.83046 M627.502707,354.03498 L627.792867,353.16684 M627.792867,353.16684 L628.596657,352.00854 M629.207397,351.6552 L628.596657,352.00854 M628.114617,356.09418 L628.306497,356.51187 L628.532307,356.92956 L628.789707,357.31566 L629.078697,357.70176 M654.458337,350.20674 L654.747327,350.20674 L655.100667,350.46414 L655.551117,350.91459 L655.937217,351.5265 L656.258967,352.17 L656.452017,352.74798 L656.483607,353.19843 L656.356077,353.45583 L656.065917,353.42424 L655.712577,353.19843 L655.293717,352.71639 L654.876027,352.13724 L654.554277,351.49374 L654.361227,350.883 L654.329637,350.43255 L654.458337,350.20674 M638.342757,358.50555 L638.439867,358.92441 L638.793207,359.88966 L639.275247,360.91809 L639.887157,361.88334 L640.562247,362.75148 L641.205747,363.39498 L641.205747,363.42774 M635.222367,359.14905 L634.964967,359.4708 L634.933377,360.08271 L635.093667,360.8865 L635.448177,361.85175 L635.930217,362.84859 L636.540957,363.84543 L637.184457,364.71357 L637.860717,365.35707 L638.439867,365.77593 L638.921907,365.90463 L639.114957,365.84028 M634.836267,360.1143 L634.836267,360.6291 L634.997727,361.43289 L635.351067,362.33379 L635.834277,363.26628 L636.412257,364.13559 L637.024167,364.87503 L637.634907,365.42142 L638.085357,365.67882 M627.857217,355.12893 L627.824457,355.35357 L627.953157,355.96548 L628.210557,356.60781 L628.596657,357.21972 L629.047107,357.76611 L629.175807,357.89481 M628.661007,357.60582 L629.078697,357.92757 L629.336097,358.08786 M629.014347,357.86322 L628.885647,357.76611 L628.661007,357.60582 M628.661007,357.60582 L628.563897,357.47712 L628.467957,357.34842 L628.370847,357.18696 L628.274907,357.05826 L628.178967,356.89797 L628.081857,356.73651 L628.017507,356.57622 L627.953157,356.41476 M627.792867,355.70808 L627.824457,356.19012 L628.017507,356.73651 L628.306497,357.28407 L628.692597,357.73452 L629.111457,357.99192 M627.953157,356.41476 L628.210557,356.89797 L628.563897,357.38001 L629.014347,357.83046 L629.078697,357.86322 M627.342417,356.76927 L627.535467,357.25131 L627.857217,357.70176 L628.210557,358.08786 L628.563897,358.3125 L628.885647,358.37685 L629.078697,358.34526 M627.599817,356.60781 L627.342417,356.76927 M627.502707,356.12577 L627.502707,356.15853 L627.502707,356.22288 L627.535467,356.28606 L627.535467,356.35041 L627.567057,356.41476 L627.567057,356.47911 L627.599817,356.54346 L627.599817,356.60781 M627.213717,356.28606 L627.502707,356.12577 M627.471117,355.57938 L627.406767,355.64373 L627.245307,355.90113 L627.213717,356.28606 M627.213717,356.28606 L627.567057,356.41476 M653.138577,357.34842 L655.841277,355.80402 M653.138577,357.34842 L651.724047,356.09418 M651.724047,356.09418 L650.726037,354.54978 M650.726037,354.54978 L653.395977,352.97379 M653.395977,352.97379 L654.811677,354.26079 M654.811677,354.26079 L655.841277,355.80402 M652.978287,351.10764 L653.395977,352.97379 M654.811677,354.26079 L654.554277,353.93904 L654.265287,353.55294 L654.007887,353.16684 L653.782077,352.78074 L653.524677,352.36188 L653.331627,351.94419 L653.138577,351.5265 L652.978287,351.10764 M650.726037,354.54978 L649.890657,352.94103 M649.890657,352.94103 L649.471797,351.07605 M649.471797,351.07605 L652.141737,349.50006 M652.141737,349.50006 L652.978287,351.10764 M656.227377,351.36504 L656.709417,352.29753 L656.902467,352.81233 L657.031167,353.26278 L657.095517,353.64888 L657.062757,353.97063 L656.869707,354.32397 L656.483607,354.32397 L656.194617,354.16368 L655.872867,353.90628 L655.551117,353.58453 L655.197777,353.16684 L654.618627,352.29753 M654.618627,352.29753 L654.136587,351.33345 L653.943537,350.85024 L653.814837,350.39979 L653.750487,349.9821 L653.782077,349.66035 L653.975127,349.3386 L654.361227,349.3386 L654.650217,349.4673 L654.971967,349.7247 L655.293717,350.07921 L655.648227,350.46414 L656.227377,351.36504 M656.645067,355.32198 L656.483607,355.38633 L656.291727,355.38633 L656.098677,355.32198 L655.872867,355.19328 L655.615467,355.03182 L655.358067,354.83877 L655.100667,354.58137 L654.811677,354.26079 M652.978287,351.10764 L652.849587,350.72154 L652.785237,350.3682 L652.720887,350.04645 L652.688127,349.75746 L652.720887,349.50006 L652.752477,349.30701 L652.849587,349.14555 L652.945527,349.04961 M655.841277,355.80402 L656.645067,355.32198 M654.747327,352.20159 L654.361227,351.42939 L654.103827,350.68995 L654.039477,350.14356 L654.136587,349.78905 L654.425577,349.7247 L654.843267,349.91775 L655.358067,350.39979 L655.872867,351.04329 L656.323317,351.81549 L656.645067,352.58769 L656.805357,353.26278 L656.773767,353.71323 L656.580717,353.93904 L656.194617,353.87469 L655.744167,353.52018 L655.229367,352.94103 L654.747327,352.20159 M652.945527,349.04961 L652.141737,349.50006 M649.890657,352.94103 L650.050947,353.32713 L650.212407,353.74599 L650.437047,354.16368 L650.661687,354.58137 L650.919087,355.00023 L651.176487,355.38633 L651.433887,355.73967 L651.724047,356.09418 M656.580717,353.93904 L656.645067,353.77758 L656.676657,353.32713 L656.516367,352.65204 L656.194617,351.87984 L655.744167,351.1404 L655.229367,350.46414 L654.747327,349.9821 L654.329637,349.78905 L654.136587,349.78905 M654.329637,356.67216 L656.998407,355.12893 M654.329637,356.67216 L653.524677,357.15537 M653.524677,357.15537 L653.138577,357.34842 M656.645067,355.32198 L656.998407,355.12893 M653.331627,348.8238 L652.945527,349.04961 M618.689097,312.25194 L617.370507,313.02414 L616.244967,313.69923 L615.312477,314.21403 L614.636217,314.63172 L614.218527,314.88912 L614.058237,314.98623 L614.186937,314.92188 L614.378817,314.82477 M632.038797,304.49952 L632.103147,304.46793 L632.263437,304.37082 L632.134737,304.43517 L631.717047,304.66098 L631.073547,305.04708 L630.172647,305.56188 L629.078697,306.20421 L627.760107,306.94482 L626.344407,307.78137 L624.801177,308.6811 L623.225187,309.582 L621.649197,310.51449 L620.104797,311.41539 L618.689097,312.25194 M614.282877,314.85753 L614.315637,314.82477 L614.571867,314.66448 L615.086667,314.37432 L615.891627,313.89228 L616.888467,313.28154 L618.111117,312.57369 L619.494057,311.7699 L621.005697,310.90059 L622.581687,309.9681 L624.157677,309.0672 L625.702077,308.13471 L627.180957,307.29816 L628.532307,306.52596 L629.690607,305.81811 L630.654687,305.27172 L631.395297,304.85403 L631.845747,304.59663 L632.006037,304.49952 M671.666697,420.07095 L671.731047,420.07095 L671.988447,419.91066 M695.307717,406.30473 L695.276127,406.30473 L694.761327,406.59372 L693.893187,407.10852 L692.670537,407.81637 L691.030197,408.74886 L689.035347,409.90716 L686.751507,411.22575 L684.340137,412.64028 L681.959187,414.02439 L679.708107,415.34298 L677.713257,416.50128 M676.812357,417.01491 L678.582567,415.98648 L680.480307,414.89253 L682.409637,413.73423 L684.371727,412.60869 L686.333817,411.48315 L688.199967,410.3892 L690.000597,409.32801 L691.673697,408.36276 L693.152577,407.49462 L694.439577,406.75401 L695.533527,406.14327 L696.337317,405.66123 L696.916467,405.33948 L697.205457,405.17802 L696.948057,405.33948 L696.401667,405.66123 L695.629467,406.14327 L695.147427,406.43343 M671.859747,420.0066 L671.473647,420.23241 L670.637097,420.71445 L670.090707,421.0362 L669.768957,421.19649 L670.026357,421.00344 L670.572747,420.68286 L671.376537,420.23241 L672.438897,419.58891 L673.693137,418.8483 L675.172017,417.98016 L676.812357,417.01491 M652.720887,357.67017 L651.819987,356.19012 M649.857897,352.78074 L648.989757,351.2691 M659.057607,354.00339 L658.318167,354.42108 L657.577557,354.83877 L656.805357,355.28922 L656.001567,355.77243 L655.197777,356.22288 L654.393987,356.70492 L653.557437,357.18696 L652.720887,357.67017 M659.861397,350.17515 L660.215907,350.97894 L660.344607,351.81549 L660.215907,352.61928 L659.829807,353.32713 L659.153547,353.93904 L659.057607,354.00339 M659.057607,348.75945 L659.861397,350.17515 M655.326477,347.60232 L656.452017,347.21622 L657.352917,347.31216 L658.221057,347.79537 L658.864557,348.47046 L659.057607,348.75945 M648.989757,351.2691 L649.826307,350.78589 L650.661687,350.30385 L651.466647,349.82181 L652.270437,349.37136 L653.074227,348.88815 L653.846427,348.4377 L654.585867,348.02001 L655.326477,347.60232 M647.542467,340.26759 L645.644727,341.36154 L643.714227,342.48708 L641.720547,343.64538 L639.790047,344.77092 L637.892307,345.89763 L636.091677,346.92606 L634.418577,347.92407 L632.938527,348.79221 L631.652697,349.53165 L630.590337,350.17515 L629.754957,350.65719 L629.207397,350.97894 L628.949997,351.1404 L628.918407,351.17199 M644.711067,364.77792 L644.743827,361.9161 L644.839767,358.98876 L645.032817,356.09418 L645.290217,353.19843 L645.611967,350.3682 L645.998067,347.63391 L646.448517,344.99673 L646.963317,342.51984 L647.542467,340.26759 M642.235347,366.22638 L642.524337,366.06492 L642.813327,365.90463 L643.103487,365.71158 L643.392477,365.55012 L643.714227,365.35707 L644.035977,365.16402 L644.390487,364.97097 L644.711067,364.77792 M642.942027,367.48062 L642.235347,366.22638 M667.099017,353.45583 L666.970317,353.52018 L666.551457,353.74599 L665.876367,354.13209 L664.911117,354.67848 L663.753987,355.35357 L662.371047,356.15853 L660.793887,357.05826 L659.057607,358.05627 L657.224217,359.14905 L655.326477,360.243 L653.364387,361.4013 L651.402297,362.52684 L649.471797,363.65238 L647.638407,364.74633 L645.933717,365.74317 L644.357727,366.67566 L642.942027,367.48062 M663.013377,354.19644 L663.689637,355.38633 M646.030827,364.00689 L647.864217,362.94453 L649.793547,361.81899 L651.788397,360.6291 L653.814837,359.4708 L655.776927,358.3125 L657.706257,357.18696 L659.508057,356.12577 L661.179987,355.16052 L662.660037,354.32397 L663.947037,353.58453 L664.943877,353.00538 L665.716077,352.55493 L666.198117,352.29753 L666.359577,352.20159 L666.262467,352.26594 L665.844777,352.52334 L665.168517,352.94103 L664.204437,353.48859 L663.013377,354.19644 M649.955007,338.85306 L649.247157,340.91109 L648.603657,343.22769 L648.024507,345.80052 L647.478117,348.5664 L647.027667,351.49374 L646.641567,354.54978 L646.352577,357.67017 L646.126767,360.85374 L646.030827,364.00689 M656.420427,335.15352 L656.323317,335.18628 L655.969977,335.37933 L655.455177,335.70108 L654.682977,336.11877 L653.750487,336.66516 L652.656537,337.30866 L651.369537,338.0481 L649.955007,338.85306 M641.656197,364.16718 L640.755297,365.35707 L639.887157,366.16203 L639.017847,366.45102 L638.246817,366.12927 L637.506207,365.38983 L637.377507,365.19678 M634.900617,360.95085 L634.836267,360.78939 L634.547277,359.8569 L634.578867,359.0847 L635.190777,358.37685 L636.895467,357.86322 L637.892307,357.73452 M637.892307,357.73452 L641.656197,364.16718 M663.013377,354.19644 L660.118797,355.86837 M660.087207,355.86837 L660.087207,355.86837 L659.797047,355.99707 L659.250657,356.31882 L658.446867,356.80086 L657.417267,357.38001 L656.194617,358.08786 L654.811677,358.89165 L653.364387,359.7282 L651.884337,360.59634 L650.437047,361.46565 L649.054107,362.26944 M649.054107,362.26944 L646.030827,364.00689 M646.673157,354.09933 L646.641567,354.16368 L646.481277,354.45267 L646.288227,354.80718 L646.126767,355.22487 L645.998067,355.70808 L645.869367,356.22288 L645.773427,356.73651 L645.709077,357.28407 L645.676317,357.79887 L645.676317,358.3125 L645.709077,358.76295 L645.805017,359.14905 L645.902127,359.4708 L645.998067,359.7282 L646.159527,359.88966 L646.191117,359.92125 M649.955007,338.88465 L647.542467,340.26759 M647.799867,363.00888 L644.711067,364.77792 M650.308347,350.52849 L648.989757,351.2691 M650.308347,350.52849 L655.326477,347.60232 M650.469807,350.46414 L650.308347,350.52849 M647.799867,363.00888 L647.671167,363.07323 L647.574057,363.13758 L647.478117,363.20193 L647.349417,363.26628 L647.252307,363.29904 L647.156367,363.36339 L647.059257,363.42774 L646.963317,363.49209 M646.963317,363.49209 L642.235347,366.22638 M647.671167,364.71357 L646.963317,363.49209 M444.985047,112.14801 L446.359797,109.85949 L447.818787,107.43408 L449.325747,104.92443 L450.867807,102.36096 L452.425077,99.76941 L453.982347,97.17786 L455.523237,94.61439 L457.031367,92.10474 L458.489187,89.67933 L459.865107,87.39081 M472.050657,94.71501 L472.077567,94.73139 L471.719547,94.51611 L470.892357,94.01886 L469.459107,93.15774 L467.749737,92.13048 L463.808007,89.76006 L459.865107,87.39081 M444.985047,112.14801 L448.237647,114.10308 L451.353357,115.97508 L454.192947,117.68211 L455.406237,118.41102 L456.398397,119.00772 L457.032537,119.38914 L457.170597,119.47221 M454.567347,103.94748 L455.025987,102.49668 L455.799357,101.08449 L456.810237,99.96597 L457.986087,99.1341 L459.353817,98.60526 L461.301867,98.61228 L462.409857,99.01593 L463.424247,99.70038 L465.095007,101.79234 L465.876567,103.98843 L466.012287,105.57261 L465.742017,106.83504 L465.117237,107.99919 L464.322807,108.75969 L462.919977,109.53072 L460.719207,110.00925 L459.252027,109.95192 L457.888977,109.65942 L456.693237,109.08963 L455.689377,108.26127 L454.692537,106.61157 L454.478427,104.90688 L454.567347,103.94748 M467.725167,108.96561 L468.703287,107.33931 L469.631097,105.79608 L470.526147,104.30667 L471.321747,102.9834 L472.000347,101.85318 L472.564287,100.91601 L472.978467,100.22688 L473.227677,99.8127 L473.309577,99.67581 M462.124377,118.28466 L462.223827,118.11852 L462.473037,117.70551 L462.887217,117.01638 L463.433607,116.10612 L464.129757,114.94899 L464.925357,113.62572 L465.820407,112.13631 L466.748217,110.59308 L467.725167,108.96561 M459.865107,87.39081 L450.519147,81.77364 M435.639087,106.53084 L444.985047,112.14801 M477.595287,114.89868 L478.573407,113.27121 L479.517597,111.6999 L480.412647,110.21166 L481.208247,108.88839 L481.903227,107.73009 L482.467167,106.79292 L482.881347,106.10379 L483.130557,105.69078 L483.212457,105.55272 M471.978117,124.24464 L472.061187,124.10658 L472.309227,123.6924 L472.723407,123.00327 L473.287347,122.0661 L473.983497,120.9078 L474.777927,119.58453 L475.672977,118.09629 L476.618337,116.52498 L477.595287,114.89868 M729.983007,509.58765 L730.336347,505.53477 L730.722447,501.64335 L731.141307,498.07251 L731.333187,496.49652 L731.558997,495.17793 L731.816397,494.27703 L732.073797,493.92369 L732.298437,494.18109 L732.555837,494.95329 L732.813237,496.43217 L733.070637,498.23397 L733.585437,502.51149 L734.035887,506.75742 M729.983007,509.58765 L727.184367,509.652 L724.257027,509.68476 L721.298097,509.71635 L718.274817,509.74911 L715.250367,509.74911 L712.259847,509.71635 L709.299747,509.68476 L706.469517,509.62041 L703.735227,509.55606 L701.162397,509.46012 M703.156077,493.85934 L703.156077,493.85934 L702.899847,494.43849 L702.674037,495.56403 L702.385047,497.43018 L702.127647,499.61691 L701.612847,504.57069 L701.162397,509.46012 M713.159577,505.43883 L711.712287,504.50634 L710.748207,503.31645 L710.233407,501.22566 L710.619507,498.90906 L711.230247,497.52612 L712.098387,496.17477 L713.545677,494.76024 L714.897027,493.98804 L716.086917,493.69788 L717.276807,493.76223 L718.306407,494.11674 L719.657757,495.08199 L721.072287,497.07567 L721.587087,498.45861 L721.812897,499.9059 L721.715787,501.3216 L721.233747,502.64019 L720.043857,504.24894 L718.563807,505.21419 L716.987817,505.72782 L715.283127,505.88928 L713.803077,505.63188 L713.159577,505.43883 M728.471367,490.2885 L728.438607,490.32126 L728.116857,490.44996 L727.473357,490.5459 L726.540867,490.64301 L725.318217,490.70736 L723.870927,490.77171 L722.230587,490.83606 L720.461547,490.86765 L718.596567,490.90041 L716.730417,490.90041 L714.865437,490.86765 L713.063637,490.83606 L711.423297,490.77171 L709.976007,490.70736 L708.753357,490.64301 L707.788107,490.5459 L707.144607,490.44996 L706.791267,490.32126 L706.759677,490.2885 M729.983007,521.39295 L729.983007,509.58765 M701.162397,521.23266 L703.735227,521.3286 L706.469517,521.42571 L709.299747,521.4573 L712.259847,521.52165 L715.250367,521.52165 L718.274817,521.52165 L721.298097,521.52165 L724.257027,521.49006 L727.184367,521.4573 L729.983007,521.39295 M701.162397,509.46012 L701.162397,521.23266 M731.558997,510.61725 L731.494647,511.3251 L731.461887,512.06454 L731.397537,512.90109 L731.365947,513.76923 L731.333187,514.70289 L731.301597,515.63538 L731.301597,516.60063 L731.301597,517.56471 M731.301597,520.46046 L731.301597,517.56471 M734.035887,506.75742 L734.035887,518.56272 M732.717297,516.60063 L732.717297,519.46362 M732.717297,516.60063 L732.717297,515.63538 L732.717297,514.67013 L732.684537,513.76923 L732.652947,512.90109 L732.620187,512.06454 L732.555837,511.29351 L732.524247,510.61725 L732.459897,510.00651 M732.459897,510.00651 L732.202497,508.17312 L732.073797,507.65832 L731.976687,507.68991 L731.816397,508.30182 L731.687697,509.39577 L731.558997,510.61725 M732.717297,519.46362 L734.035887,518.56272 M729.983007,521.39295 L731.301597,520.46046 M728.502957,478.80612 L728.471367,478.83771 L728.149617,478.93482 L727.506117,479.03076 L726.573627,479.12787 L725.350977,479.22381 L723.903687,479.28816 L722.263347,479.35251 L720.494307,479.3841 L718.596567,479.3841 L718.499457,479.3841 M731.301597,519.46362 L732.717297,519.46362 M456.369147,50.31234 L457.678377,48.13497 M393.290937,12.39966 L395.992467,14.02362 L398.915127,15.77979 L401.974677,17.61903 L405.200367,19.55772 L408.592197,21.59586 L412.065927,23.68431 L415.621557,25.8219 L419.233347,27.99225 L422.900127,30.19653 L426.593817,32.41719 L430.260597,34.6203 L433.872387,36.79065 L437.456097,38.94579 L440.957907,41.04945 L444.321657,43.07121 L447.574257,45.02628 L450.689967,46.89945 L453.611457,48.65562 L456.369147,50.31234 M388.220157,20.83536 L393.290937,12.39966 M375.014367,12.89808 L375.152427,12.98115 L375.566607,13.22919 L376.255737,13.64454 L377.219817,14.22369 L378.461187,14.97015 L379.922517,15.84765 L381.658797,16.89129 L383.616207,18.06831 L385.821657,19.39392 L388.220157,20.83536 M457.611687,48.05775 L457.628067,48.02967 L457.633917,47.9583 L457.650297,47.93022 L457.666677,47.90331 L457.672527,47.83077 L457.688907,47.80386 L457.678377,47.7594 L457.694757,47.73249 M457.694757,47.73249 L458.606187,46.21617 L459.462627,44.85429 M386.664057,0.9477 L386.719047,0.98046 L386.993997,1.1466 L387.546237,1.47771 L388.373427,1.97496 L389.448657,2.62197 L390.798837,3.43395 L392.398227,4.39452 L394.245657,5.50485 L396.313047,6.74739 L398.601567,8.12331 L401.081967,9.61389 L403.728507,11.20509 L406.568097,12.91212 L409.545747,14.70105 L412.633377,16.55784 L415.832157,18.47898 L419.112837,20.4516 L422.475417,22.47336 L425.839167,24.49395 L429.257907,26.54964 L432.648567,28.58778 L436.012317,30.60954 L439.319907,32.59737 L442.573677,34.55244 L445.716297,36.44199 L448.748937,38.26485 L451.643517,40.00464 L454.373127,41.64498 L456.936597,43.18587 L459.308187,44.61093 M459.462627,44.85429 L459.450927,44.80983 L459.440397,44.76537 L459.428697,44.72091 L459.401787,44.70453 L459.391257,44.66124 L459.363177,44.64369 L459.335097,44.62731 L459.308187,44.61093 M457.694757,47.73249 L457.800057,47.87055 L457.826967,47.88693 M457.678377,48.13497 L457.694757,48.10689 L457.727517,48.0519 L457.743897,48.02499 L457.760277,47.99691 L457.777827,47.96883 L457.794207,47.94192 L457.810587,47.91384 L457.826967,47.88693 M457.678377,48.13497 L457.782507,48.27303 L457.831647,48.37716 L457.815267,48.40524 M457.815267,48.40524 L456.589107,50.44572 M456.369147,50.31234 L456.396057,50.32872 L456.451047,50.36265 L456.507207,50.39541 L456.534117,50.41179 L456.562197,50.42817 L456.589107,50.44572 M457.826967,47.88693 L457.865577,48.13497 L457.849197,48.35025 L457.815267,48.40524 M459.462627,44.85429 L459.594837,45.00873 L459.693117,45.21816 L459.654507,45.34452 M459.654507,45.34452 L458.661177,46.9989 L457.815267,48.40524 M393.483987,12.51549 L388.413207,20.95119 M388.220157,20.83536 L388.248237,20.85174 L388.275147,20.86929 L388.303227,20.88567 L388.330137,20.90205 L388.358217,20.91843 L388.386297,20.93481 L388.413207,20.95119 M388.964277,21.28347 L394.035057,12.8466 M388.413207,20.95119 L388.964277,21.28347 M394.145037,12.91329 L389.075427,21.34899 M459.501237,44.72676 L459.583137,44.77707 L459.621747,44.83791 L459.688437,44.91513 L459.710667,45.00288 L459.732897,45.0918 L459.727047,45.16317 L459.704817,45.26262 L459.654507,45.34452 M459.501237,44.72676 L459.473157,44.71038 L459.418167,44.67762 L459.308187,44.61093 M429.763347,107.31474 L430.644357,102.66516 L431.999217,97.85061 L434.005767,93.01383 L436.601997,88.38297 L439.324587,84.72672 L442.366587,81.41445 L445.380507,78.6474 L448.455267,76.21731 M448.455267,76.21731 L448.465797,76.2606 L448.476327,76.30506 L448.488027,76.34952 L448.526637,76.41036 L448.565247,76.4712 L448.575777,76.51449 L448.614387,76.57533 L448.669377,76.60926 M448.669377,76.60926 L445.584087,78.99489 L442.559637,81.71748 L439.566777,84.94785 L436.888647,88.5924 L434.298267,93.15189 L432.368937,97.92198 L431.046837,102.68154 L430.210287,107.32059 M430.210287,107.32059 L430.155297,107.28783 L430.082757,107.28198 L430.039467,107.29251 L429.966927,107.28783 L429.895557,107.28198 L429.851097,107.29251 L429.807807,107.30421 L429.763347,107.31474 M411.145137,128.73744 L412.799517,129.35637 L414.355617,129.95307 L415.811097,130.52754 M459.099927,48.9528 L411.145137,128.73744 M463.318947,51.48702 L462.849777,51.20622 L462.353697,50.90787 L461.829537,50.59314 L461.306547,50.27841 L460.782387,49.96251 L460.231317,49.6314 L459.679077,49.30029 L459.099927,48.9528 M448.455267,76.21731 L463.318947,51.48702 M415.811097,130.52754 L429.763347,107.31474 M410.870187,128.5713 L458.824977,48.78666 M410.296887,128.33964 L410.870187,128.5713 M458.532477,48.08583 L410.296887,128.33964 M458.824977,48.78666 L458.532477,48.08583 M458.532477,48.08583 L458.576937,48.0753 L458.665857,48.05307 L458.709147,48.04137 L458.753607,48.03084 L458.786367,47.97585 L458.830827,47.96415 L458.875287,47.95362 L458.919747,47.94309 M458.919747,47.94309 L458.974737,48.16305 L459.182997,48.62637 M458.824977,48.78666 L458.885817,48.74805 L458.929107,48.73752 L458.973567,48.72582 L459.034407,48.68721 L459.078867,48.67668 L459.123327,48.66498 L459.166617,48.65445 L459.182997,48.62637 M410.147127,128.77488 L410.064057,128.72457 L409.982157,128.67543 L409.931847,128.57013 L409.866327,128.49291 L409.844097,128.40516 L409.838247,128.28933 L409.860477,128.18988 L409.910787,128.10681 M410.296887,128.33964 L410.240727,128.30571 L410.158827,128.25657 L410.075757,128.20626 L410.020767,128.1735 L409.992687,128.15712 L409.937697,128.12319 L409.910787,128.10681 M410.147127,128.77488 L410.147127,128.77488 L410.163507,128.7468 L410.152977,128.70351 L410.185737,128.64852 L410.218497,128.59236 L410.240727,128.49408 L410.274657,128.43792 L410.296887,128.33964 M458.532477,48.08583 L458.477487,48.05307 L458.395587,48.00276 L458.312517,47.95362 L458.257527,47.91969 L458.229447,47.90331 L458.174457,47.87055 L458.147547,47.85417 M458.919747,47.94309 L458.824977,47.84832 L458.714997,47.7828 L458.633097,47.73249 L458.505567,47.69388 L458.389737,47.69973 L458.284437,47.74887 L458.224767,47.78748 L458.147547,47.85417 M410.693517,128.99016 L410.147127,128.77488 M410.693517,128.99016 L410.709897,128.96325 L410.742657,128.90709 L410.775417,128.8521 L410.781267,128.78073 L410.814027,128.72574 L410.836257,128.62629 L410.870187,128.5713 M411.145137,128.73744 L411.118227,128.71989 L411.090147,128.70351 L411.063237,128.68713 L411.035157,128.67075 L410.980167,128.63799 L410.952087,128.62044 L410.897097,128.58768 L410.870187,128.5713 M410.693517,128.99016 L410.764887,128.99601 L410.836257,129.00186 L410.880717,128.99016 L410.941557,128.95155 L411.002397,128.91294 L411.063237,128.87433 L411.112377,128.79243 L411.145137,128.73744 M459.099927,48.9528 L459.117477,48.92472 L459.150237,48.86973 L459.166617,48.84165 L459.182997,48.81474 L459.188847,48.7422 L459.205227,48.71529 L459.194697,48.67083 L459.182997,48.62637 M459.099927,48.9528 L459.073017,48.93525 L459.044937,48.91887 L459.018027,48.90249 L458.989947,48.88611 L458.934957,48.85335 L458.908047,48.8358 L458.851887,48.80304 L458.824977,48.78666 M415.331397,130.76505 L413.874747,130.18941 L412.347897,129.60909 L410.693517,128.99016 M415.331397,130.76505 L415.402767,130.76973 L415.474137,130.77558 L415.518597,130.76505 L415.606347,130.74282 L415.667187,130.70421 L415.728027,130.6656 L415.778337,130.58253 L415.811097,130.52754 M459.182997,48.62637 L459.762147,48.97503 L460.314387,49.30614 L460.865457,49.63725 L461.388447,49.95198 L461.912607,50.26788 L462.408687,50.56506 L462.904767,50.86341 L463.402017,51.16176 M463.318947,51.48702 L463.335327,51.46011 L463.368087,51.40512 L463.384467,51.37704 L463.373937,51.33258 L463.406697,51.27759 L463.396167,51.2343 L463.384467,51.18984 L463.402017,51.16176 M459.654507,45.34452 L459.731727,45.279 L459.808947,45.21231 L459.914247,45.16317 L460.058157,45.17487 L460.157607,45.19593 L460.267587,45.26262 L460.361187,45.35622 L460.426707,45.43344 M460.426707,45.43344 L459.614727,46.78479 L458.919747,47.94309 M465.141807,48.26718 L464.645727,47.96883 L464.093487,47.63772 L463.542417,47.30661 L462.963267,46.95795 L462.357207,46.59408 L461.749977,46.22904 L461.088927,45.83124 L460.426707,45.43344 M463.402017,51.16176 L464.378967,49.53546 L465.141807,48.26718 M430.210287,107.32059 L429.934167,108.09279 M449.221617,76.00203 L448.669377,76.60926 M456.330537,64.17567 L455.784147,65.08476 L455.120757,66.18807 L454.359087,67.45635 L453.496797,68.8896 L452.552607,70.46091 L451.525347,72.17028 L450.415017,74.01771 L449.221617,76.00203 M459.446247,66.04767 L456.330537,64.17567 M459.615897,66.63852 L458.937297,67.76874 L458.125317,69.11892 L457.147197,70.74639 L456.053247,72.56574 L454.827087,74.60505 L453.485097,76.83858 L452.043657,79.23708 L450.519147,81.77364 L448.927947,84.42018 L447.271227,87.1767 L445.580577,89.98938 L443.858337,92.85588 L442.134927,95.72355 L440.427897,98.56314 L438.737247,101.37465 L437.080527,104.13234 L435.489327,106.77888 L433.982367,109.28736 L432.539757,111.68586 L431.214147,113.89131 L430.004367,115.90371 L428.911587,117.72306 L427.949847,119.32245 L427.137867,120.6738 L426.492027,121.74903 L425.994777,122.57622 L425.647287,123.1542 L425.481147,123.43032 L425.464767,123.4584 M459.615897,66.63852 L459.666207,66.55545 L459.672057,66.48408 L459.676737,66.41154 L459.655677,66.32379 L459.633447,66.23487 L459.594837,66.1752 L459.528147,66.09798 L459.446247,66.04767 M459.654507,45.34452 L459.704817,45.26262 L459.782037,45.19593 L459.869787,45.1737 L459.930627,45.13509 L460.019547,45.11403 L460.118997,45.13626 L460.217277,45.15732 L460.273437,45.19125 M460.426707,45.43344 L460.416177,45.39015 L460.405647,45.34569 L460.393947,45.30123 L460.367037,45.28485 L460.355337,45.24039 L460.328427,45.22401 L460.300347,45.20763 L460.273437,45.19125 M460.273437,45.19125 L460.934487,45.58905 L461.568627,45.9693 L462.202767,46.35072 L462.808827,46.71576 L463.387977,47.06325 L463.939047,47.39436 L464.463207,47.71026 L464.959287,48.00744 M465.141807,48.26718 L465.130107,48.22272 L465.119577,48.17943 L465.107877,48.13497 L465.080967,48.11859 L465.070437,48.07413 L465.042357,48.05775 L465.014277,48.04137 L464.959287,48.00744 M429.414687,108.08109 L429.763347,107.31474 M429.414687,108.08109 L415.894167,130.57785 M429.934167,108.09279 L429.851097,108.04248 L429.751647,108.02142 L429.696657,107.98749 L429.625287,107.98164 L429.536367,108.00387 L429.493077,108.01557 L429.448617,108.0261 L429.414687,108.08109 M448.455267,76.21731 L448.968897,75.55041 M448.968897,75.55041 L448.934967,75.6054 L448.946667,75.64869 L448.940817,75.72123 L448.979427,75.78207 L449.018037,75.84174 L449.073027,75.87567 L449.138547,75.95289 L449.221617,76.00203 M463.400847,51.53733 L448.968897,75.55041 M463.402017,51.16176 L463.412547,51.20622 L463.423077,51.25068 L463.434777,51.29514 L463.445307,51.33843 L463.439457,51.41097 L463.423077,51.43788 L463.390317,51.49287 L463.400847,51.53733 M415.894167,130.57785 L415.833327,130.61646 L415.783017,130.69836 L415.722177,130.73697 L415.634427,130.7592 L415.545507,130.78143 L415.474137,130.77558 L415.402767,130.76973 L415.331397,130.76505 M465.141807,48.26718 L465.152337,48.31164 L465.162867,48.3561 L465.174567,48.39939 L465.185097,48.44385 L465.180417,48.51522 L465.162867,48.5433 L465.146487,48.57138 L465.140637,48.64275 M465.140637,48.64275 L464.378967,49.91103 L463.400847,51.53733 M456.176097,63.55791 L456.126957,63.63981 L456.104727,63.73926 L456.098877,63.81063 L456.121107,63.89955 L456.143337,63.9873 L456.181947,64.04814 L456.263847,64.09845 L456.330537,64.17567 M464.959287,48.00744 L465.042357,48.05775 L465.107877,48.13497 L465.146487,48.19581 L465.168717,48.28356 L465.190947,48.37248 L465.185097,48.44385 L465.162867,48.5433 L465.140637,48.64275 M456.193647,63.52983 L456.159717,63.58482 L456.137487,63.68427 L456.115257,63.78372 L456.137487,63.87147 L456.176097,63.93231 L456.198327,64.02123 L456.263847,64.09845 L456.346917,64.14759 M456.346917,64.14759 L459.462627,66.02076 M459.462627,66.02076 L459.544527,66.0699 L459.611217,66.14712 L459.649827,66.20796 L459.672057,66.29571 L459.694287,66.38463 L459.672057,66.48408 L459.666207,66.55545 L459.615897,66.63852 M340.391727,100.84698 L340.391727,100.84698 L340.358967,100.90197 L340.248987,101.02248 L340.082847,101.1114 L339.906177,101.15469 L339.592617,101.11608 M340.943967,101.17809 L340.391727,100.84698 M339.916707,101.57472 L339.916707,101.57472 L340.160067,101.60748 L340.479477,101.57472 L340.690077,101.47527 L340.893657,101.26116 L340.943967,101.17809 M339.916707,101.57472 L339.763437,101.33136 L339.592617,101.11608 M339.592617,101.11608 L339.580917,101.07162 L339.570387,101.02833 L339.575067,100.95579 L339.608997,100.9008 M339.608997,100.9008 L339.851187,100.93473 L339.983397,100.9008 L340.105077,100.82475 L340.182297,100.75806 L340.198677,100.72998 M340.391727,100.84698 L340.336737,100.81305 L340.281747,100.78029 L340.254837,100.76391 L340.198677,100.72998 M345.171177,62.55054 L345.154797,62.57745 L345.370077,62.40663 L345.877857,61.99947 L346.694517,61.32672 L348.130107,59.93793 L349.455717,58.48245 L350.521587,57.02112 L351.017667,56.19393 M351.017667,56.19393 L355.724577,48.36429 M355.724577,48.36429 L356.238207,47.51019 L356.719077,46.52271 M357.525207,44.49393 L357.674967,44.05752 L358.023627,42.91677 L358.255287,41.9679 L358.477587,40.97457 L358.565337,40.39074 L358.593417,40.21875 M340.198677,100.72998 L388.171017,20.91843 M325.447317,95.42871 L325.502307,95.46264 L325.838097,95.589 L327.311127,96.13656 L328.430817,96.58467 L329.776317,97.09245 L333.178677,98.42508 L335.225007,99.2043 L339.608997,100.9008 M374.965227,12.98115 L375.103287,13.06422 L375.516297,13.31226 L376.205427,13.72644 L377.170677,14.30676 L378.410877,15.05205 L379.872207,15.93072 L381.609657,16.97436 L383.567067,18.15138 L385.772517,19.47699 L388.171017,20.91843 M388.364067,21.03426 L340.391727,100.84698 M388.171017,20.91843 L388.197927,20.93481 L388.226007,20.95119 L388.252917,20.96757 L388.280997,20.98512 L388.309077,21.0015 L388.335987,21.01788 L388.364067,21.03426 M340.943967,101.17809 L388.915137,21.36537 M388.364067,21.03426 L388.915137,21.36537 M341.053947,101.24478 L341.021187,101.29977 L340.816437,101.51388 L340.590627,101.64141 L340.270047,101.67417 L339.972867,101.60748 M389.025117,21.43206 L341.053947,101.24478 M339.592617,101.11608 L339.592617,101.11608 L335.235537,99.43596 L333.205587,98.62866 L329.786847,97.32411 L328.430817,96.77187 L327.321657,96.36822 L325.866177,95.79375 L325.529217,95.66622 L325.474227,95.63346 M325.921167,96.20208 L325.921167,96.20208 L325.948077,96.21846 L326.748357,96.51096 L327.547467,96.80463 L328.612167,97.21881 L331.441227,98.31861 L333.205587,99.00423 L335.223837,99.76707 L339.916707,101.57472 M339.955317,101.63556 L335.306907,99.81621 L333.315567,99.06975 L331.551207,98.3853 L328.677687,97.29603 L327.641067,96.89823 L326.858337,96.57765 L326.058057,96.28398 L326.031147,96.2676 M351.017667,56.19393 L355.359537,48.97152 M345.232017,62.51193 L345.205107,62.49555 L345.540897,62.24751 L346.341177,61.60167 L346.992867,61.01784 L347.490117,60.56622 M350.294607,57.33585 L351.017667,56.19393 M349.860537,54.74781 L350.014977,54.6156 L350.628057,54.15813 L351.710307,53.23266 L353.024217,51.92109 L354.338127,50.42115 L355.359537,48.97152 M351.017667,56.19393 L350.201007,57.42945 M346.992867,61.01784 L346.617297,61.39224 L345.938697,61.96086 L345.370077,62.40663 L345.187557,62.52246 M355.359537,48.97152 L351.017667,56.19393 M353.881827,48.12093 L353.871297,48.07647 L353.826837,48.46257 L353.638467,49.39974 L353.422017,50.3217 L353.107287,51.40746 M353.056977,51.67773 L352.930617,52.01469 M352.930617,52.01469 L352.068327,52.88517 L351.913887,53.01738 M351.074997,53.78958 L350.506377,54.23535 L350.014977,54.6156 L349.937757,54.68229 M358.560657,40.27491 L358.577037,40.24683 L358.554807,40.53348 L358.388667,41.37237 L358.210827,42.16563 L357.940557,43.24203 M356.382117,47.14632 L355.708197,48.39237 L354.740607,49.87593 L353.542527,51.36885 L352.973907,52.00299 M352.946997,51.98661 L353.295657,50.84469 L353.543697,49.86891 L353.737917,48.8592 L353.859597,48.21921 L353.904057,48.02148 M352.946997,51.98661 L353.796417,51.07167 L354.873987,49.6548 L355.972617,47.95128 L356.723757,46.45134 L357.486597,44.62029 L357.845787,43.52283 L358.123077,42.56343 L358.366437,41.47182 L358.482267,40.716 L358.571187,40.3182 L358.587567,40.29129 M332.174817,98.53389 L332.025057,98.78193 M349.876917,54.7209 L350.048907,54.56061 L350.644437,54.13122 L351.726687,53.20458 L352.930617,52.01469 M352.930617,52.01469 L353.278107,50.87277 L353.527317,49.89699 L353.721537,48.88728 L353.826837,48.27537 L353.871297,48.07647 M322.867467,114.7068 L320.910057,113.52978 L319.007637,112.38669 L317.188287,111.29274 L315.505827,110.28186 L314.017587,109.38798 L312.749307,108.62514 L311.729067,108.01206 L310.984947,107.56512 L310.515777,107.28315 L310.350807,107.1837 M310.350807,107.1837 L310.411647,107.14509 L310.460787,107.06202 L310.566087,107.01288 L310.653837,106.99065 L310.742757,106.96842 L310.814127,106.97427 L310.913577,106.9965 L310.996647,107.04564 M310.996647,107.04564 L311.133537,107.12871 L311.574627,107.3943 L312.291837,107.82486 L313.283997,108.42156 L314.525367,109.16685 L315.986697,110.04552 L317.584917,111.00609 L319.349277,112.06728 L321.196707,113.17761 L323.099127,114.3207 M322.867467,114.7068 L322.900227,114.65181 L322.949367,114.56874 L322.999677,114.48567 L323.032437,114.43068 L323.066367,114.37569 L323.082747,114.34878 L323.099127,114.3207 M310.350807,107.1837 L307.815417,111.40155 M322.867467,114.7068 L320.332077,118.92465 M307.815417,111.40155 L307.980387,111.501 L308.449557,111.78297 L309.193677,112.22991 L310.213917,112.84299 L311.482197,113.60583 L312.970437,114.50088 L314.652897,115.51059 L316.472247,116.60454 L318.374667,117.74763 L320.332077,118.92465 M399.453327,160.73928 L322.867467,114.7068 M323.099127,114.3207 L399.686157,160.35318 M399.453327,160.73928 L399.487257,160.68429 L399.536397,160.60122 L399.586707,160.51932 L399.619467,160.46316 L399.652227,160.40817 L399.668607,160.38126 L399.686157,160.35318 M399.453327,160.73928 L396.917937,164.95713 M320.332077,118.92465 L396.917937,164.95713 M411.941907,168.246 L411.805017,168.16293 L411.335847,167.88096 L410.591727,167.43402 L409.571487,166.82094 L408.303207,166.0581 L406.786887,165.14667 L405.132507,164.15334 L403.313157,163.05939 L401.410737,161.9163 L399.453327,160.73928 M411.941907,168.246 L409.407687,172.46385 M396.917937,164.95713 L398.875347,166.13415 L400.777767,167.27724 L402.597117,168.37119 L404.251497,169.36569 L405.767817,170.27712 L407.036097,171.03879 L408.056337,171.65187 L408.800457,172.09881 L409.269627,172.38078 L409.407687,172.46385 M399.686157,160.35318 L401.587407,161.49627 L403.434837,162.6066 L405.172287,163.65141 L406.798587,164.62836 L408.259917,165.50703 L409.472037,166.23594 L410.465367,166.83264 L411.209487,167.27958 L411.650577,167.54517 L411.788637,167.62824 M411.941907,168.246 L411.975837,168.19101 L411.998067,168.09156 L412.020297,167.99211 L411.998067,167.90436 L411.975837,167.81544 L411.937227,167.7546 L411.871707,167.67738 L411.788637,167.62824 M341.192007,101.51505 L340.954497,101.78532 L340.678377,101.99358 L340.247817,102.14802 L339.729507,102.13632 L339.502527,102.07548 M394.317027,13.12857 L341.192007,101.51505 M456.318837,50.39541 L453.617307,48.77145 L450.777717,47.06442 L447.745077,45.24156 L444.547467,43.31925 L441.266787,41.3478 L437.848047,39.29328 L434.374317,37.20483 L430.817517,35.06724 L427.233807,32.91327 L423.622017,30.74292 L420.038307,28.58895 L416.481507,26.45136 L412.980867,24.34653 L409.534047,22.27563 L406.226457,20.28663 L403.000767,18.34794 L399.940047,16.5087 L397.045467,14.76891 L394.317027,13.12857 M403.276887,138.64383 L456.318837,50.39541 M403.946127,143.21151 L402.998427,141.85431 L402.751557,140.76738 L402.812397,139.79043 L403.111917,138.91995 L403.276887,138.64383 M396.638307,120.46788 L395.809947,121.47057 L394.733547,122.13747 L393.469947,122.4288 L392.108067,122.3235 L391.628367,122.18544 M437.849217,51.90354 L396.638307,120.46788 M437.360157,50.03271 L437.724027,50.36499 L437.976747,50.81661 L438.025887,51.29748 L437.932287,51.76548 L437.849217,51.90354 M392.559687,23.10633 L395.537337,24.89526 L398.653047,26.76843 L401.933727,28.73988 L405.324387,30.77802 L408.798117,32.86647 L412.354917,35.00406 L415.965537,37.17441 L419.605407,39.36231 L423.244107,41.54904 L426.855897,43.71939 L430.439607,45.87453 L433.941417,47.97819 L437.360157,50.03271 M390.926367,23.70069 L391.214187,23.34735 L391.578057,23.11686 L391.964157,22.97295 L392.350257,23.01741 L392.559687,23.10633 M343.833867,102.05208 L390.926367,23.70069 M344.196567,103.88313 L343.909917,103.6737 L343.688787,103.35312 L343.590507,102.95649 L343.667727,102.5154 L343.833867,102.05208 M391.628367,122.18544 L387.972117,120.77559 L384.232797,119.3166 L380.422107,117.85176 L376.584507,116.37054 L372.745737,114.88815 L368.908137,113.40693 L365.097447,111.94209 L361.341747,110.51118 L357.657417,109.08495 L354.100617,107.69733 L350.653797,106.3764 L347.334507,105.09408 L344.196567,103.88313 M436.989267,50.33574 L433.598607,48.2976 L430.124877,46.21032 L426.569247,44.07273 L422.984367,41.91876 L419.373747,39.74724 L415.761957,37.57689 L412.205157,35.4393 L408.676437,33.31809 L405.202707,31.23081 L401.867037,29.22543 L398.613267,27.27036 L395.525637,25.41474 L392.576067,23.64102 M392.576067,23.64102 L392.521077,23.60826 L392.510547,23.5638 L392.471937,23.50296 L392.476617,23.43159 L392.482467,23.36022 L392.504697,23.26077 L392.510547,23.1894 L392.559687,23.10633 M436.989267,50.33574 L437.017347,50.35329 L437.061807,50.34159 L437.105097,50.33106 L437.165937,50.29245 L437.199867,50.23746 L437.277087,50.17077 L437.309847,50.11578 L437.360157,50.03271 M344.196567,103.88313 L344.245707,103.80123 L344.278467,103.74507 L344.355687,103.67955 L344.389617,103.62456 L344.434077,103.61286 L344.521827,103.5918 L344.566287,103.5801 L344.593197,103.59648 M344.593197,103.59648 L347.985027,104.88465 L351.569907,106.28865 L355.297527,107.70435 L359.163207,109.20195 L363.128337,110.72178 L367.220997,112.28022 L371.312487,113.83983 L375.458967,115.43103 L379.590237,117.05148 L383.681727,118.60992 L387.701847,120.16251 L391.640067,121.66596 M391.628367,122.18544 L391.650597,122.08599 L391.672827,121.98654 L391.705587,121.93155 L391.711437,121.85901 L391.717287,121.78764 L391.678677,121.7268 L391.666977,121.68351 L391.640067,121.66596 M391.640067,121.66596 L392.075307,121.81572 L393.266367,121.89411 L394.397757,121.63554 L395.341947,121.0014 L396.087237,120.13677 M396.638307,120.46788 L396.555237,120.41757 L396.445257,120.35205 L396.362187,120.30174 L396.280287,120.2526 L396.197217,120.20229 L396.142227,120.16953 L396.087237,120.13677 M437.849217,51.90354 L437.766147,51.8544 L437.656167,51.78771 L437.573097,51.7374 L437.491197,51.68826 L437.408127,51.63795 L437.353137,51.60519 L437.298147,51.57243 M437.298147,51.57243 L437.347287,51.48936 L437.430357,51.1641 L437.397597,50.84469 L437.232627,50.55687 L436.989267,50.33574 M396.087237,120.13677 L437.298147,51.57243 M344.439927,102.41595 L344.384937,102.38319 L344.301867,102.33288 L344.246877,102.30012 L344.163807,102.25098 L344.081907,102.20067 L343.998837,102.15153 L343.915767,102.10122 L343.833867,102.05208 M344.439927,102.41595 L344.301867,102.70845 L344.235177,103.0068 L344.273787,103.25484 L344.400147,103.48065 L344.593197,103.59648 M392.576067,23.64102 L392.421627,23.58603 L392.179437,23.55327 L391.925547,23.66325 L391.710267,23.83407 L391.533597,24.06573 M391.533597,24.06573 L391.478607,24.0318 L391.395537,23.98266 L391.340547,23.94873 L391.257477,23.89959 L391.174407,23.84928 L391.092507,23.80014 L391.009437,23.74983 L390.926367,23.70069 M344.439927,102.41595 L345.504627,102.8313 M345.840417,104.0832 L345.674277,103.98375 L345.552597,103.87377 L345.448467,103.73571 L345.404007,103.55904 L345.360717,103.38237 L345.360717,103.19517 L345.405177,102.99627 L345.504627,102.8313 M392.497677,24.64488 L392.580747,24.50682 L392.708277,24.35823 L392.856867,24.29856 L393.023007,24.20964 L393.155217,24.17688 L393.342417,24.17688 L393.469947,24.21549 L393.624387,24.27048 M392.497677,24.64488 L391.533597,24.06573 M391.533597,24.06573 L344.439927,102.41595 M345.504627,102.8313 L392.497677,24.64488 M346.165677,103.2291 L346.110687,103.38354 L346.039317,103.56489 L345.972627,103.67487 L345.917637,103.82931 L345.895407,103.92876 L345.845097,104.01183 L345.856797,104.05629 L345.840417,104.0832 M346.165677,103.2291 L346.055697,103.16241 L345.972627,103.1121 L345.862647,103.04658 L345.779577,102.99627 L345.697677,102.94713 L345.614607,102.89682 L345.559617,102.86406 L345.504627,102.8313 M346.165677,103.2291 L348.758397,104.2236 M348.758397,104.2236 L348.675327,104.36166 L348.575877,104.52663 L348.509187,104.63661 L348.426117,104.77467 L348.376977,104.85774 L348.326667,104.94081 L348.293907,104.9958 M393.159897,25.04268 L393.049917,24.97716 L392.966847,24.92685 L392.856867,24.86016 L392.773797,24.81102 L392.690727,24.76071 L392.608827,24.71157 L392.552667,24.67881 L392.497677,24.64488 M393.159897,25.04268 L393.242967,24.90462 L393.342417,24.73965 L393.407937,24.62967 L393.491007,24.49161 L393.541317,24.40854 L393.590457,24.32664 L393.606837,24.29856 L393.624387,24.27048 M436.525947,51.10794 L433.796337,49.4676 M433.796337,49.4676 L429.082407,46.63386 M429.082407,46.63386 L424.395387,43.81767 M424.395387,43.81767 L419.708367,41.00031 M419.708367,41.00031 L415.022517,38.18295 M415.022517,38.18295 L410.335497,35.36676 M410.335497,35.36676 L405.648477,32.5494 M405.648477,32.5494 L400.961457,29.73204 M400.961457,29.73204 L396.275607,26.91585 M396.275607,26.91585 L393.159897,25.04268 M436.525947,51.10794 L436.609017,50.96988 L436.708467,50.80491 L436.773987,50.69493 L436.857057,50.55687 L436.907367,50.4738 L436.956507,50.3919 L436.972887,50.36382 L436.989267,50.33574 M350.003277,105.64749 L350.036037,105.5925 L350.086347,105.50943 L350.135487,105.42753 L350.218557,105.28947 L350.285247,105.17949 L350.384697,105.01335 L350.467767,104.87529 M350.467767,104.87529 L353.941497,106.21377 M353.941497,106.21377 L353.842047,106.37874 L353.758977,106.5168 L353.677077,106.65486 L353.610387,106.76484 L353.543697,106.87482 L353.494557,106.95789 L353.478177,106.9848 L353.460627,107.01288 M355.650867,106.86546 L359.125767,108.20277 M355.171167,107.66574 L355.187547,107.63766 L355.203927,107.60958 L355.236687,107.55459 L355.286997,107.47269 L355.352517,107.36154 L355.419207,107.25156 L355.485897,107.14158 L355.568967,107.00352 L355.650867,106.86546 M359.125767,108.20277 L359.042697,108.34083 L358.959627,108.47889 L358.894107,108.58887 L358.827417,108.70002 L358.760727,108.81 L358.711587,108.89307 L358.677657,108.94806 L358.661277,108.97497 L358.644897,109.00305 M360.835137,108.85563 L364.308867,110.19294 M360.354267,109.65474 L360.370647,109.62783 L360.388197,109.59975 L360.420957,109.54476 L360.470097,109.46169 L360.536787,109.35171 L360.603477,109.24173 L360.668997,109.13175 L360.752067,108.99369 L360.835137,108.85563 M364.308867,110.19294 L364.226967,110.331 L364.143897,110.46906 L364.077207,110.57904 L364.011687,110.68902 L363.944997,110.80017 L363.894687,110.88207 L363.861927,110.93706 L363.845547,110.96514 L363.829167,110.99322 M366.019407,110.8458 L369.493137,112.18311 M365.538537,111.64491 L365.554917,111.618 L365.571297,111.58992 L365.605227,111.53493 L365.654367,111.45186 L365.721057,111.34188 L365.786577,111.2319 L365.853267,111.12075 L365.936337,110.98386 L366.019407,110.8458 M369.493137,112.18311 L369.410067,112.32117 L369.326997,112.45923 L369.261477,112.56921 L369.194787,112.67919 L369.129267,112.78917 L369.078957,112.87224 L369.046197,112.92723 L369.029817,112.95531 L369.012267,112.98222 M371.230587,112.85235 L374.677407,114.17328 M370.749717,113.65146 L370.766097,113.62338 L370.782477,113.59647 L370.816407,113.54148 L370.865547,113.45841 L370.932237,113.34843 L370.998927,113.23845 L371.064447,113.1273 L371.147517,112.98924 L371.230587,112.85235 M374.677407,114.17328 L374.594337,114.31134 L374.511267,114.44823 L374.444577,114.55938 L374.379057,114.66936 L374.312367,114.77934 L374.263227,114.86241 L374.229297,114.9174 L374.212917,114.94548 L374.196537,114.97239 M376.413687,114.84135 L379.860507,116.16345 M379.860507,116.16345 L379.778607,116.30034 L379.695537,116.4384 L379.628847,116.54838 L379.562157,116.65953 L379.496637,116.76951 L379.446327,116.85258 L379.413567,116.90757 L379.397187,116.93448 L379.380807,116.96256 M375.933987,115.64163 L375.950367,115.61355 L375.966747,115.58664 L375.999507,115.53165 L376.049817,115.44858 L376.116507,115.3386 L376.182027,115.22745 L376.248717,115.11747 L376.331787,114.97941 L376.413687,114.84135 M381.597957,116.83152 L385.044777,118.15245 M385.044777,118.15245 L384.961707,118.29051 L384.878637,118.42857 L384.813117,118.53855 L384.746427,118.6497 L384.679737,118.75968 L384.630597,118.84158 L384.597837,118.89774 L384.580287,118.92465 L384.563907,118.95273 M381.117087,117.6318 L381.134637,117.60372 L381.151017,117.57564 L381.183777,117.52065 L381.234087,117.43875 L381.299607,117.3276 L381.366297,117.21762 L381.431817,117.10764 L381.514887,116.96958 L381.597957,116.83152 M386.782227,118.82169 L390.229047,120.14262 M390.229047,120.14262 L390.145977,120.28068 L390.062907,120.41874 L389.996217,120.52872 L389.930697,120.6387 L389.864007,120.74985 L389.814867,120.83175 L389.780937,120.88674 L389.764557,120.91482 L389.748177,120.94173 M386.301357,119.6208 L386.317737,119.59389 L386.334117,119.56581 L386.368047,119.51082 L386.417187,119.42775 L386.483877,119.31777 L386.549397,119.20779 L386.616087,119.09781 L386.699157,118.95975 L386.782227,118.82169 M391.965327,120.81186 L392.445027,120.94992 L392.903667,121.00023 L393.383367,120.95109 L393.852537,120.85749 L394.271397,120.65859 L394.697277,120.38949 L395.010837,120.05253 L395.315037,119.67228 M395.315037,119.67228 L395.453097,119.75535 L395.618067,119.8548 L395.729217,119.92032 L395.866107,120.00339 L395.949177,120.0537 L396.032247,120.10284 L396.087237,120.13677 M391.965327,120.81186 L391.910337,120.9663 L391.838967,121.14765 L391.800357,121.27518 L391.744197,121.42962 L391.721967,121.52907 L391.672827,121.61097 L391.656447,121.63905 L391.640067,121.66596 M391.485627,121.61097 L391.502007,121.58406 L391.518387,121.55598 L391.551147,121.50099 L391.601457,121.41792 L391.666977,121.30794 L391.733667,121.19796 L391.800357,121.08681 L391.883427,120.94992 L391.965327,120.81186 M395.315037,119.67228 L436.525947,51.10794 M436.525947,51.10794 L436.664007,51.19101 L436.828977,51.29046 L436.938957,51.35715 L437.077017,51.44022 L437.160087,51.48936 L437.243157,51.5385 L437.298147,51.57243 M393.159897,25.04268 L346.165677,103.2291 M339.502527,102.07548 L339.552837,101.99358 L339.585597,101.93859 L339.662817,101.8719 L339.723657,101.83329 L339.768117,101.82276 L339.828957,101.78415 L339.900327,101.79 L339.955317,101.82276 M339.955317,101.82276 L340.082847,101.86137 L340.457247,101.86137 L340.711137,101.75139 L340.910037,101.60865 L341.020017,101.48697 L341.053947,101.43198 M341.192007,101.51505 L341.163927,101.4975 L341.135847,101.48112 L341.108937,101.46474 L341.080857,101.44836 L341.053947,101.43198 M341.053947,101.43198 L394.178967,13.0455 M394.178967,13.0455 L394.178967,13.0455 L394.205877,13.06188 L394.233957,13.07826 L394.260867,13.09581 L394.288947,13.11219 L394.317027,13.12857 M395.022537,27.25047 L395.121987,27.0855 L395.260047,26.9802 L395.398107,26.87607 L395.574777,26.83161 L395.751447,26.78832 L395.938647,26.78832 L396.093087,26.84331 L396.275607,26.91585 M348.758397,104.2236 L395.022537,27.25047 M399.709557,30.06783 L399.809007,29.90286 L399.947067,29.79756 L400.085127,29.69343 L400.261797,29.64897 L400.437297,29.60451 L400.625667,29.60568 L400.780107,29.66067 L400.961457,29.73204 M396.275607,26.91585 L396.396117,27.02583 L396.544707,27.15219 L396.633627,27.31833 L396.676917,27.495 L396.693297,27.65529 L396.693297,27.84249 L396.666387,28.01331 L396.566937,28.17828 M396.566937,28.17828 L350.467767,104.87529 M353.941497,106.21377 L399.709557,30.06783 M404.396577,32.88519 L404.496027,32.71905 L404.632917,32.61492 L404.770977,32.50962 L404.947647,32.46633 L405.124317,32.42187 L405.312687,32.42187 L405.467127,32.47803 L405.648477,32.5494 M400.961457,29.73204 L401.083137,29.84319 L401.231727,29.96955 L401.320647,30.13569 L401.363937,30.31236 L401.408397,30.48786 L401.380317,30.65985 L401.352237,30.83067 L401.252787,30.99564 M401.252787,30.99564 L355.650867,106.86546 M359.125767,108.20277 L404.396577,32.88519 M409.082427,35.70138 L409.181877,35.53641 L409.319937,35.43111 L409.486077,35.34336 L409.634667,35.28252 L409.811337,35.23923 L409.998537,35.23923 L410.181057,35.3106 L410.335497,35.36676 M405.648477,32.5494 L405.797067,32.67576 L405.918747,32.78691 L406.006497,32.95188 L406.050957,33.12855 L406.094247,33.30522 L406.067337,33.47604 L406.039257,33.64686 L405.939807,33.813 M405.939807,33.813 L360.835137,108.85563 M364.308867,110.19294 L409.082427,35.70138 M410.335497,35.36676 L410.484087,35.49312 L410.605767,35.6031 L410.693517,35.76924 L410.737977,35.94591 L410.781267,36.12258 L410.754357,36.2934 L410.726277,36.46422 L410.626827,36.62919 M413.769447,38.51874 L413.868897,38.35377 L414.006957,38.24847 L414.173097,38.16072 L414.321687,38.09988 L414.498357,38.05542 L414.685557,38.05659 L414.868077,38.12796 L415.022517,38.18295 M410.626827,36.62919 L366.019407,110.8458 M369.493137,112.18311 L413.769447,38.51874 M418.456467,41.3361 L418.555917,41.16996 L418.693977,41.06583 L418.858947,40.97808 L419.008707,40.91724 L419.212287,40.88916 L419.372577,40.87278 L419.553927,40.94532 L419.708367,41.00031 M415.022517,38.18295 L415.171107,38.31048 L415.291617,38.42046 L415.380537,38.5866 L415.423827,38.76327 L415.468287,38.93877 L415.440207,39.11076 L415.413297,39.28158 L415.340757,39.46293 M415.340757,39.46293 L371.230587,112.85235 M374.677407,114.17328 L418.456467,41.3361 M423.143487,44.15229 L423.269847,44.0037 L423.379827,43.88319 L423.545967,43.79427 L423.694557,43.73343 L423.899307,43.70652 L424.059597,43.69014 L424.240947,43.76151 L424.395387,43.81767 M419.708367,41.00031 L419.858127,41.12667 L419.978637,41.23782 L420.067557,41.40279 L420.110847,41.57946 L420.155307,41.75613 L420.127227,41.92695 L420.099147,42.09777 L420.027777,42.28029 M379.860507,116.16345 L423.143487,44.15229 M420.027777,42.28029 L376.413687,114.84135 M427.829337,46.96965 L427.956867,46.82106 L428.066847,46.69938 L428.232987,46.61163 L428.381577,46.55079 L428.586327,46.52388 L428.773527,46.52388 L428.927967,46.57887 L429.082407,46.63386 M424.395387,43.81767 L424.543977,43.94403 L424.665657,44.05518 L424.753407,44.22015 L424.797867,44.39682 L424.841157,44.57349 L424.841157,44.76069 L424.786167,44.91513 L424.714797,45.09765 M385.044777,118.15245 L427.829337,46.96965 M424.714797,45.09765 L381.597957,116.83152 M432.516357,49.78701 L432.643887,49.63842 L432.753867,49.51674 L432.920007,49.42899 L433.068597,49.36815 L433.272177,49.34007 L433.460547,49.34007 L433.614987,49.39623 L433.796337,49.4676 M429.082407,46.63386 L429.230997,46.76139 L429.352677,46.87137 L429.440427,47.03751 L429.484887,47.21418 L429.528177,47.39085 L429.528177,47.57805 L429.473187,47.73249 L429.400647,47.91384 M390.229047,120.14262 L432.516357,49.78701 M429.400647,47.91384 L386.782227,118.82169 M433.796337,49.4676 L433.918017,49.57875 L434.038527,49.68873 L434.127447,49.8537 L434.198817,50.04675 L434.215197,50.20704 L434.215197,50.39424 L434.160207,50.54868 L434.087667,50.7312 M434.087667,50.7312 L391.965327,120.81186 M403.276887,138.64383 L403.304967,138.66021 L403.359957,138.69297 L403.414947,138.7269 L403.443027,138.74328 L403.469937,138.75966 L403.498017,138.77604 M403.498017,138.77604 L403.364637,138.99717 L403.171587,139.63131 L403.099047,140.37543 L403.280397,141.19794 L403.969527,142.17489 M403.946127,143.21151 L404.029197,143.07345 L404.095887,142.96347 L404.123967,142.79265 L404.162577,142.66629 L404.128647,142.53291 L404.095887,142.4007 L404.046747,142.29657 L403.969527,142.17489 M456.539967,50.52762 L403.498017,138.77604 M456.318837,50.39541 L456.346917,50.41179 L456.401907,50.44455 L456.456897,50.47848 L456.484977,50.49486 L456.511887,50.51124 L456.539967,50.52762 M325.385307,96.21729 L325.385307,96.21729 L325.539747,96.27345 L325.986687,96.4665 L326.758887,96.74262 L327.823587,97.1568 L329.169087,97.66575 L330.807087,98.31276 L332.697807,99.03699 L334.871667,99.85482 L337.308777,100.79433 L339.955317,101.82276 M403.969527,142.17489 L405.904707,144.01296 L407.612907,145.60299 L409.161987,147.0222 L410.452497,148.24836 L411.542937,149.24169 L412.375977,150.04197 L412.982037,150.59421 L413.345907,150.92532 L413.467587,151.03647 M389.433447,20.8143 L389.599587,20.53818 M389.848797,20.12517 L390.543777,18.96687 M390.776607,18.58077 L391.256307,17.78166 M391.720797,17.00946 L392.433327,15.82425 M392.664987,15.43815 L392.863887,15.10821 M391.312467,17.81559 L391.428297,17.62254 M391.400217,17.60499 L391.284387,17.79804 M391.631877,17.22006 L391.748877,17.02701 M391.659957,17.23644 L391.775787,17.04339 M391.659957,17.23644 L391.428297,17.62254 M311.847237,133.03953 L320.298147,118.97964 M307.782657,111.45654 L299.331747,125.51643 M307.782657,111.45654 L307.947627,111.55599 L308.416797,111.83796 L309.160917,112.2849 L310.181157,112.89798 L311.449437,113.66082 L312.937677,114.55587 L314.618967,115.56675 L316.438317,116.65953 L318.340737,117.80379 L320.298147,118.97964 M299.331747,125.51643 L299.496717,125.61588 L299.965887,125.89785 L300.710007,126.34596 L301.730247,126.95904 L302.998527,127.72071 L304.486767,128.61576 L306.168057,129.62664 L307.987407,130.72059 L309.889827,131.86368 L311.847237,133.03953 M396.885177,165.01212 L388.434267,179.07318 M320.298147,118.97964 L396.885177,165.01212 M388.434267,179.07318 L311.847237,133.03953 M400.922847,186.57873 L409.373757,172.51884 M396.885177,165.01212 L398.842587,166.18914 L400.745007,167.33223 L402.564357,168.42618 L404.218737,169.42068 L405.735057,170.33211 L407.003337,171.09378 L408.023577,171.70686 L408.767697,172.15497 L409.235697,172.43577 L409.373757,172.51884 M388.434267,179.07318 L390.391677,180.24903 L392.294097,181.39212 L394.113447,182.48607 L395.767827,183.48057 L397.284147,184.392 L398.552427,185.15367 L399.572667,185.76675 L400.316787,186.21486 L400.784787,186.49683 L400.922847,186.57873 M428.147577,20.77803 L426.990447,20.08188 L425.915217,19.43604 L424.978047,18.8721 L424.232757,18.42516 L423.736677,18.12681 L423.516717,17.9946 L423.488637,17.97822 M432.806517,23.57901 L432.779607,23.56263 L432.558477,23.42925 L432.062397,23.1309 L431.346357,22.70034 L430.381107,22.12002 L429.305877,21.47418 L428.147577,20.77803 M428.380407,20.39193 L429.482547,21.05532 L430.502787,21.6684 L431.384967,22.19841 L432.074097,22.61259 L432.488277,22.8618 L432.653247,22.96125 M424.134477,17.84016 L424.272537,17.92323 L424.685547,18.17127 L425.374677,18.58662 L426.256857,19.11663 L427.277097,19.72971 L428.380407,20.39193 M727.088427,440.97885 L726.380577,440.04636 L725.479677,439.33851 L724.482837,438.91965 L723.806577,438.82371 M727.313067,444.80709 L727.570467,444.22794 L727.699167,443.16558 L727.537707,442.04004 L727.088427,440.97885 M490.763637,150.05835 L491.838867,150.51699 L492.997167,150.65037 L494.094627,150.44796 L495.099657,149.96241 L495.867177,149.18553 L495.916317,149.10246 M488.869407,145.84284 L488.774637,146.31201 L488.807397,147.38139 L489.170097,148.46364 L489.836997,149.35167 L490.763637,150.05835 M480.733227,144.33003 L481.824837,144.76176 L482.956227,144.87876 L484.081767,144.69156 L485.058717,144.1908 L485.853147,143.4303 L485.887077,143.37414 M478.855377,140.08644 L478.761777,140.55561 L478.776987,141.65307 L479.129157,142.69086 L479.824137,143.59644 L480.733227,144.33003 M732.910347,450.95076 L732.202497,450.04986 L731.301597,449.34201 L730.304757,448.92432 L729.628497,448.82721 M733.167747,454.81059 L733.392387,454.23144 L733.521087,453.16908 L733.359627,452.04354 L732.910347,450.95076 M506.991537,116.31672 L507.735657,116.01369 L508.933737,115.83234 L510.147027,115.99965 L511.249167,116.47467 L512.230797,117.21411 L512.936307,118.16415 L513.343467,119.2347 L513.458127,120.35439 L513.187857,121.42962 M699.457707,461.27484 L698.718267,461.11455 L697.655907,460.6641 L696.756177,459.92466 L696.015567,458.95941 L695.533527,457.83387 L695.340477,456.67557 L695.436417,455.51727 L695.790927,454.68189 M632.134737,287.87031 L632.552427,287.70885 L633.486087,287.06652 L634.193937,286.16562 L634.578867,285.07167 L634.643217,283.91337 L634.354227,282.78783 L633.775077,281.79099 L632.938527,280.9872 L631.877337,280.4724 L630.751797,280.27935 L629.626257,280.43964 L628.628247,280.95444 L628.242147,281.2446 M626.312817,277.86681 L626.730507,277.70535 L627.664167,277.06302 L628.339257,276.16212 L628.756947,275.06817 L628.821297,273.90987 L628.532307,272.78433 L627.953157,271.78749 L627.116607,270.9837 L626.055417,270.4689 L624.929877,270.27585 L623.804337,270.43614 L622.774737,270.91935 L622.420227,271.20834 M496.934217,110.57202 L497.722797,110.25846 L498.903327,110.10402 L500.089707,110.25378 L501.236307,110.71827 L502.189857,111.4425 L502.923447,112.40775 L503.330607,113.4783 L503.400807,114.60969 L503.173827,115.67439 M705.279627,471.24675 L704.540187,471.11805 L703.510587,470.6676 L702.578097,469.92816 L701.837487,468.93132 L701.355447,467.83737 L701.162397,466.64748 L701.291097,465.52077 L701.612847,464.65263 M656.902467,353.84193 L656.902467,354.06774 L656.869707,354.16368 M631.941687,307.55556 L631.877337,307.58832 L631.555587,307.74861 L630.976437,308.10195 L630.141057,308.58516 L629.078697,309.1959 L627.824457,309.90375 L626.473107,310.70754 L625.025817,311.54409 L623.546937,312.41223 L622.131237,313.24878 L620.779887,314.02098 L619.589997,314.72883 L618.560397,315.33957 L617.789367,315.79002 L617.241807,316.11177 L616.984407,316.27206 M677.713257,416.50128 L675.944217,417.56247 L674.303877,418.49496 L672.985287,419.29875 L672.084387,419.81355 L671.633937,420.07095 L671.666697,420.07095 M680.383197,418.30191 L679.031847,419.1057 L677.874717,419.78196 L676.909467,420.36111 L676.201617,420.7788 L675.751167,421.0362 L675.590877,421.1649 L675.558117,421.1649 M694.343637,410.22891 L694.214937,410.29326 L693.828837,410.48631 L693.152577,410.87124 L692.252847,411.4188 L691.094547,412.0623 L689.775957,412.83333 L688.295907,413.70264 L686.719917,414.60354 L685.111167,415.53603 L683.470827,416.50128 L681.894837,417.43377 L680.383197,418.30191 M659.057607,348.75945 L655.808517,350.68995 M656.612307,352.07289 L659.861397,350.17515 M731.494647,510.52131 L732.459897,510.00651 M731.301597,516.56787 L732.717297,516.60063 M457.611687,48.05775 L454.937067,46.45017 L452.097477,44.74314 L449.120997,42.95421 L445.977207,41.06466 L442.696527,39.09321 L439.333947,37.07145 L435.887127,34.99938 L432.386487,32.89572 L428.829687,30.75813 L425.272887,28.62054 L421.717257,26.48295 L418.188537,24.36174 L414.714807,22.27329 L411.296067,20.21877 L407.987307,18.23094 L404.816607,16.32501 L401.757057,14.48577 L398.834397,12.7296 L396.104787,11.08926 L393.569397,9.56475 L391.252797,8.17245 L389.130417,6.89598 L387.256077,5.76927 L385.628607,4.79232 L384.250347,3.96396 L383.120127,3.28419 L382.292937,2.78694 L381.741867,2.45583 L381.438837,2.27331 L381.410757,2.25693 M381.686877,2.0475 L381.714957,2.06388 L382.017987,2.2464 L382.569057,2.57751 L383.396247,3.07476 L384.526467,3.75453 L385.877817,4.56651 L387.504117,5.54346 L389.378457,6.67017 L391.502007,7.94664 L393.817437,9.33777 L396.353997,10.86228 L399.083607,12.50379 L401.978187,14.24358 L405.037737,16.08282 L408.208437,17.98758 L411.517197,19.97658 L414.907857,22.01472 L418.381587,24.102 L421.882227,26.20683 L425.439027,28.34442 L428.995827,30.48201 L432.524547,32.60322 L436.025187,34.70805 L439.472007,36.77895 L442.834587,38.80071 L446.088357,40.75578 L449.230977,42.64533 L452.208627,44.43426 L455.048217,46.14129 L457.694757,47.73249 M459.462627,44.85429 L457.064127,43.41285 L454.472577,41.85441 L451.714887,40.19769 L448.820307,38.4579 L445.760757,36.61866 L442.590057,34.71273 L439.336287,32.75766 L436.000617,30.75228 L432.609957,28.71414 L429.191217,26.65962 L425.772477,24.6051 L422.354907,22.55058 L418.991157,20.52882 L415.682397,18.53982 L412.456707,16.60113 L409.342167,14.72913 L406.364517,12.93903 L403.524927,11.232 L400.823397,9.60804 L398.341827,8.11746 L396.026397,6.72516 L393.957837,5.48262 L392.111577,4.37229 L390.484107,3.39417 L389.133927,2.58219 L388.030617,1.91997 L387.203427,1.42272 L386.652357,1.09161 L386.376237,0.92547 L386.321247,0.89271 M429.934167,108.09279 L428.475177,110.5182 L427.133187,112.75173 L425.923407,114.76413 L424.847007,116.55657 L423.919197,118.0998 L423.139977,119.39616 L422.526897,120.4164 L422.078787,121.16052 L421.814367,121.60161 L421.731297,121.73967 M424.847007,123.61167 L424.930077,123.47361 L425.178117,123.0606 L425.575917,122.39838 L426.156237,121.4343 L426.868767,120.24792 L427.729887,118.81467 L428.740767,117.13338 L429.867477,115.25787 L431.126397,113.16357 L432.485937,110.90313 L433.943757,108.47655 L435.468267,105.93999 L437.075847,103.26537 L438.732567,100.50885 L440.423217,97.69734 L442.130247,94.85775 L443.852487,91.99008 L445.559517,89.15049 L447.233787,86.36589 L448.874127,83.63628 L450.447777,81.01782 L451.955907,78.50934 L453.380967,76.13775 L454.706577,73.9323 L455.916357,71.9199 L457.010307,70.10055 L457.970877,68.50116 L458.782857,67.15098 L459.446247,66.04767 M330.415137,97.96527 L330.332067,98.10216 M330.023187,97.80498 L329.923737,97.96995 M318.807567,106.41267 L318.945627,106.49574 L319.359807,106.74378 L320.048937,107.15796 L321.013017,107.73828 L322.226307,108.46719 L323.714547,109.36224 L325.423917,110.3895 L327.381327,111.56535 L329.586777,112.89096 L331.958367,114.31602 L334.549917,115.87446 L337.334517,117.54756 L340.256007,119.30373 L343.344807,121.16052 L346.542417,123.08283 L349.850007,125.07066 L353.241837,127.1088 L356.715567,129.19725 L360.216207,131.30091 L363.744927,133.42212 L367.273647,135.54333 L370.775457,137.64816 L374.221107,139.71906 L377.639847,141.77358 L380.948607,143.76258 L384.146217,145.68489 L387.233847,147.54051 L390.156507,149.29668 L392.913027,150.9534 L395.504577,152.51184 L397.903077,153.95328 L400.108527,155.27889 L402.065937,156.45474 L403.775307,157.482 L405.264717,158.37705 L406.476837,159.10596 L407.442087,159.68628 L408.131217,160.10046 L408.545397,160.34967 L408.682287,160.43157 M339.502527,102.07548 L336.827907,101.03184 L334.390797,100.09116 L332.218107,99.27333 L330.271227,98.51634 L328.633227,97.86933 L327.287727,97.36155 L326.224197,96.9462 L325.440297,96.62562 L324.976977,96.46065 L324.822537,96.40449 M413.637237,152.18892 L413.515557,152.07894 L413.124777,151.73028 L412.507017,151.13475 L411.658767,150.36138 L410.555457,149.32359 L409.221657,148.10913 L407.672577,146.68992 L405.897687,145.02267 L403.946127,143.21151" id="Stroke-8" stroke="#FFFFFF" stroke-width="0.5967" stroke-linecap="round" stroke-linejoin="round"></path>
                </g>
            </g>
        </g>
    </g>
</svg>