<svg width="0" height="0" class="hidden">

	<symbol xmlns="http://www.w3.org/2000/svg" viewBox="0 0 17 19" id="user"><path d="M8.5 9.9a5 5 0 000-9.9 5 5 0 000 9.9z"/><path d="M17 13.8l-.5-.9a6.1 6.1 0 00-4.3-2.7 1 1 0 00-.6.2 5.3 5.3 0 01-6.2 0 .8.8 0 00-.6-.2A6 6 0 000 13.8v.4a8.6 8.6 0 001.6 2l1 .9A9.8 9.8 0 0017 14.2c.1-.1.1-.3 0-.4z"/></symbol>

	<symbol xmlns="http://www.w3.org/2000/svg" viewBox="0 0 29 26" id="search"><path fill-rule="evenodd" clip-rule="evenodd" d="M3.2 10c0-.3 0-.6.2-.8l7.4-7.4c.2-.2.5-.3.8-.2l10.1 2.7c.3 0 .5.3.6.6l2.7 10c0 .3 0 .6-.2.8l-7.4 7.4c-.2.2-.5.3-.8.2l-10-2.7a.8.8 0 01-.7-.6L3.2 10zm4.2 9.2l9.2 2.5 6.7-6.8L21 5.7l-9.3-2.5L5 10l2.5 9.2z"/><path fill-rule="evenodd" clip-rule="evenodd" d="M20.4 19c.3-.4.8-.4 1.1-.1l6.4 5.6a.8.8 0 01-1.1 1.2L20.4 20a.8.8 0 010-1.1z"/></symbol>

	<symbol xmlns="http://www.w3.org/2000/svg" viewBox="0 0 16 16" id="grid"><path fill-rule="evenodd" clip-rule="evenodd" d="M1.9 1.5c-.2 0-.4.2-.4.4V8c0 .2.2.4.4.4H6c.2 0 .4-.2.4-.4V2c0-.2-.2-.4-.4-.4H2zm-1.4.4C.5 1 1.1.5 1.9.5H6c.8 0 1.4.6 1.4 1.4V8c0 .8-.6 1.4-1.4 1.4H2C1 9.5.5 8.9.5 8.1V2z"/><path fill-rule="evenodd" clip-rule="evenodd" d="M1.9 11.5c-.3 0-.4.2-.4.3v2.4c0 .1.1.3.4.3H6c.3 0 .4-.2.4-.3v-2.4c0-.1-.1-.3-.4-.3H2zm-1.4.3c0-.7.6-1.3 1.4-1.3H6c.8 0 1.4.6 1.4 1.3v2.4c0 .7-.6 1.3-1.4 1.3H2c-.8 0-1.4-.6-1.4-1.3v-2.4z"/><path fill-rule="evenodd" clip-rule="evenodd" d="M9.9 1.5c-.3 0-.4.2-.4.3v3.4c0 .1.1.3.4.3H14c.3 0 .4-.2.4-.3V1.8c0-.1-.1-.3-.4-.3H10zm-1.4.3c0-.7.6-1.3 1.4-1.3H14c.8 0 1.4.6 1.4 1.3v3.4c0 .7-.6 1.3-1.4 1.3H10c-.8 0-1.4-.6-1.4-1.3V1.8z"/><path fill-rule="evenodd" clip-rule="evenodd" d="M9.9 8.5c-.2 0-.4.2-.4.4V14c0 .2.2.4.4.4H14c.2 0 .4-.2.4-.4V9c0-.2-.2-.4-.4-.4H10zm-1.4.4c0-.8.6-1.4 1.4-1.4H14c.8 0 1.4.6 1.4 1.4V14c0 .8-.6 1.4-1.4 1.4H10c-.8 0-1.4-.6-1.4-1.4V9z"/></symbol>

	<symbol xmlns="http://www.w3.org/2000/svg" viewBox="0 0 15 14" id="article"><path fill-rule="evenodd" clip-rule="evenodd" d="M.5 1C.5.7.7.5 1 .5h5c.3 0 .5.2.5.5v4c0 .3-.2.5-.5.5H1A.5.5 0 01.5 5V1zm1 .5v3h4v-3h-4z"/><path fill-rule="evenodd" clip-rule="evenodd" d="M8.5 1.5c0-.3.2-.5.5-.5h5a.5.5 0 010 1H9a.5.5 0 01-.5-.5z"/><path fill-rule="evenodd" clip-rule="evenodd" d="M8.5 5.5c0-.3.2-.5.5-.5h5a.5.5 0 010 1H9a.5.5 0 01-.5-.5z"/><path fill-rule="evenodd" clip-rule="evenodd" d="M.5 9.5c0-.3.2-.5.5-.5h13a.5.5 0 010 1H1a.5.5 0 01-.5-.5z"/><path fill-rule="evenodd" clip-rule="evenodd" d="M.5 13.5c0-.3.2-.5.5-.5h13a.5.5 0 010 1H1a.5.5 0 01-.5-.5z"/></symbol>

	<symbol xmlns="http://www.w3.org/2000/svg" viewBox="0 0 14 14" id="person"><path d="M12 8.5a7 7 0 00-2.8-1.7 3.8 3.8 0 10-4.4 0A7 7 0 000 13.4c0 .4.2.6.6.6h12.8c.4 0 .6-.2.6-.6a7 7 0 00-2-4.9zM4.2 3.8a2.7 2.7 0 115.4 0 2.7 2.7 0 01-5.4 0zm-3.2 9.1a6 6 0 0111.8 0H1z"/></symbol>

	<symbol xmlns="http://www.w3.org/2000/svg" viewBox="0 0 14 14" id="chart"><path d="M1 1S1 .9.8.8a.5.5 0 00-.7 0l-.1.4v11.8c0 .3.2.5.5.5h11.9l.3-.1a.5.5 0 000-.7l-.3-.1H1V1z"/><path d="M13.9 4.3a.5.5 0 000-.7.5.5 0 00-.7 0L9.5 7.3 7 4.9a.5.5 0 00-.7 0L2.4 8.7a.5.5 0 00-.1.6.5.5 0 00.3.2.5.5 0 00.5 0l3.6-3.6L9 8.3a.5.5 0 00.7 0l4-4z"/></symbol>

	<symbol xmlns="http://www.w3.org/2000/svg" viewBox="0 0 14 14" id="chart2"><path d="M1 1S1 .9.8.8a.5.5 0 00-.7 0l-.1.4v11.8c0 .3.2.5.5.5h11.9l.3-.1a.5.5 0 000-.7l-.3-.1H1V1z"/><path d="M13.9 4.3a.5.5 0 000-.7.5.5 0 00-.7 0L9.5 7.3 7 4.9a.5.5 0 00-.7 0L2.4 8.7a.5.5 0 00-.1.6.5.5 0 00.3.2.5.5 0 00.5 0l3.6-3.6L9 8.3a.5.5 0 00.7 0l4-4z"/></symbol>

	<symbol xmlns="http://www.w3.org/2000/svg" viewBox="0 0 15 16" id="list"><path d="M6 3.3c0-.2.3-.5.6-.5h6.8a.5.5 0 110 1H6.6a.5.5 0 01-.5-.5z"/><path d="M1.2 3.3a1.9 1.9 0 103.7 0 1.9 1.9 0 00-3.7 0zm1.8-1a1 1 0 110 2 1 1 0 010-2z"/><path d="M6 8c0-.3.3-.5.6-.5h6.8a.5.5 0 110 1H6.6A.5.5 0 016 8z"/><path d="M3 9.9A1.9 1.9 0 103 6a1.9 1.9 0 000 4zM3 7a1 1 0 110 1.8A1 1 0 013 7z"/><path d="M6 12.7c0-.3.3-.5.6-.5h6.8a.5.5 0 110 1H6.6a.5.5 0 01-.5-.5z"/><path d="M3 14.6a1.9 1.9 0 100-3.8 1.9 1.9 0 000 3.8zm0-2.8a1 1 0 110 1.8 1 1 0 010-1.8z"/></symbol>

	<symbol xmlns="http://www.w3.org/2000/svg" viewBox="0 0 14 14" id="heart"><path d="M13.3 3.4a4.1 4.1 0 00-2.2-2.2 4.2 4.2 0 00-4.3.6 4.1 4.1 0 00-2.6-1A4.2 4.2 0 00.3 3.5 4 4 0 000 5l.3 1.6.8 1.5c.5.7 1.2 1.6 2.1 2.4 1.5 1.3 3 2.3 3 2.3l.4.2H7l.4-.2s1.5-1 3-2.3c.8-.8 1.6-1.7 2-2.4.4-.5.7-1 .8-1.5.2-.5.4-1 .4-1.6a4 4 0 00-.4-1.6zm-6.5 8.4S1.2 8.2 1.2 5a3 3 0 013-3 3 3 0 012.6 1.7A3 3 0 019.5 2a3 3 0 013 2.9c0 3.2-5.7 6.8-5.7 6.8z"/></symbol>

	<symbol xmlns="http://www.w3.org/2000/svg" viewBox="0 0 15 14" id="star"><path d="M8.6.8a1 1 0 00-1.7 0L5.2 4l-3.7.6a1 1 0 00-.6 1.6L3.6 9 3 12.7a1 1 0 001.4 1l3.6-2a.5.5 0 10-.5-.9L4 12.6l.6-3.5a1 1 0 00-.3-.9L1.8 5.7l3.6-.5c.3 0 .6-.3.7-.5l1.6-3.3L9.5 5a.5.5 0 00.5.3h4.3a.5.5 0 100-1h-4L8.6.7z"/><path d="M9.5 7.6A.5.5 0 0110 7h4.3a.5.5 0 110 1H10a.5.5 0 01-.5-.5z"/><path d="M9.5 10.4a.5.5 0 01.5-.5h4.3a.5.5 0 110 1H10a.5.5 0 01-.5-.5z"/></symbol>

	<symbol xmlns="http://www.w3.org/2000/svg" viewBox="0 0 15 14" id="coverage"><path fill-rule="evenodd" clip-rule="evenodd" d="M7.8 13a6 6 0 100-12 6 6 0 000 12zm0 1a7 7 0 100-14 7 7 0 000 14z"/><path fill-rule="evenodd" clip-rule="evenodd" d="M7.8 9.5a2.5 2.5 0 100-5 2.5 2.5 0 000 5zm0 1a3.5 3.5 0 100-7 3.5 3.5 0 000 7z"/></symbol>

	<symbol xmlns="http://www.w3.org/2000/svg" viewBox="0 0 15 14" id="comparsion"><path d="M1.8 1L1.7.8a.5.5 0 00-.7 0l-.2.4v11.8c0 .3.2.5.5.5h12l.3-.1a.5.5 0 000-.7l-.4-.1H1.8V1z"/><path d="M14.7 6.3a.5.5 0 000-.7.5.5 0 00-.7 0l-3.7 3.7-2.5-2.4a.5.5 0 00-.6 0l-4 3.8a.5.5 0 000 .6.5.5 0 00.2.2.5.5 0 00.5 0l3.6-3.6 2.4 2.4a.5.5 0 00.7 0l4-4z"/><path d="M14.7 3.4a.5.5 0 000-.7.5.5 0 00-.7 0l-3.7 2.7L7.8 2a.5.5 0 00-.6 0l-4 3.8a.5.5 0 000 .6.5.5 0 00.2.2.5.5 0 00.5 0L7.5 3l2.4 3.4a.5.5 0 00.7 0l4-3z"/></symbol>

	<symbol xmlns="http://www.w3.org/2000/svg" viewBox="0 0 14 14" id="target"><path d="M10.4 0a.5.5 0 01.4.5v2.7h2.7a.5.5 0 01.3 1l-2.1 2.1a.5.5 0 01-.4.2h-3l-.8.8a1 1 0 11-2.1.2 1 1 0 011.3-1l.8-.8v-3a.5.5 0 01.2-.4L9.8.2a.5.5 0 01.6-.2zm.7 5.4l1-1h-1.9a.5.5 0 01-.5-.6v-2L8.7 3v2.5H11zm1.8 1.3A6.5 6.5 0 117.3 1l-.4.4c-.1.2-.3.4-.3.7h-.1a5.4 5.4 0 105.3 5.2c.3 0 .5-.2.6-.3l.5-.4zm-6.4-3a3.8 3.8 0 103.7 3.8h-1a2.7 2.7 0 11-2.7-2.7v-1z"/></symbol>

	<symbol xmlns="http://www.w3.org/2000/svg" viewBox="0 0 15 14" id="gear"><path d="M14.8 5.4a.5.5 0 00-.2-.3L13 4.2a6 6 0 00-.3-.4V2a.5.5 0 00-.2-.4A7.5 7.5 0 009.8 0a.5.5 0 00-.5 0L7.8 1h-.6L5.6 0a.5.5 0 00-.4 0c-1 .3-2 .9-2.7 1.6a.5.5 0 00-.2.4v1.8a6 6 0 00-.3.4l-1.6.9a.5.5 0 00-.2.3c-.3 1-.3 2.1 0 3.2a.5.5 0 00.2.3l1.6.9.3.4V12a.5.5 0 00.2.4c.8.7 1.7 1.3 2.7 1.6a.5.5 0 00.5 0l1.5-1h.6l1.6 1a.5.5 0 00.4 0c1-.3 2-.9 2.7-1.6a.5.5 0 00.2-.4v-1.8l.3-.4 1.6-.9a.5.5 0 00.2-.3c.3-1 .3-2.1 0-3.2zm-1 2.7l-1.5.8-.2.3a5 5 0 01-.4.6v2c-.6.5-1.3.9-2 1.1L8.2 12a.5.5 0 00-.3 0H7h-.3l-1.5.9c-.7-.2-1.4-.6-2-1.1v-1.7-.3a5 5 0 01-.4-.6l-.2-.3-1.5-.8a6 6 0 010-2.2l1.5-.8.2-.3.4-.6v-2c.6-.5 1.3-.9 2-1.1l1.5.9H8.2L9.7 1c.7.2 1.4.6 2 1.1v2l.4.6.2.3 1.5.8a6 6 0 010 2.2zM7.5 3.3c-.7 0-1.5.3-2 .7-.7.4-1.2 1-1.5 1.6a3.6 3.6 0 00.8 4 3.8 3.8 0 004.1.8c.7-.3 1.3-.8 1.7-1.4a3.6 3.6 0 00-.5-4.6c-.7-.7-1.6-1-2.6-1zm0 6.3c-.5 0-1-.1-1.5-.4-.4-.3-.8-.7-1-1.2a2.6 2.6 0 01.6-2.8 2.7 2.7 0 013-.6c.4.2.8.5 1.1 1a2.6 2.6 0 01-.3 3.2c-.5.5-1.2.8-1.9.8z"/></symbol>

	<symbol xmlns="http://www.w3.org/2000/svg" viewBox="0 0 12 14" id="bulb"><path d="M6.2 0C3.2 0 .7 2.4.7 5.3c0 1 .5 2.2 1.2 3.3.5.7 1.1 1.5 1.8 2v1.7c0 .6.6 1.1 1.2 1.1l.6.6h1.3l.6-.6c.6 0 1.2-.5 1.2-1.2v-1.6c.7-.5 1.3-1.3 1.8-2 .7-1 1.3-2.2 1.3-3.3 0-3-2.5-5.3-5.5-5.3zm0 1.2c2.3 0 4.2 1.8 4.2 4 0 .8-.4 1.8-1 2.7-.5.8-1.3 1.6-2 2H4.9a7.7 7.7 0 01-2-2c-.5-.9-1-1.9-1-2.7 0-2.2 2-4 4.4-4zM5 11H7.4v1.2H4.9v-1.1l.2-.1z"/></symbol>

	<symbol xmlns="http://www.w3.org/2000/svg" viewBox="0 0 15 14" id="megaphone"><path d="M14.76 2.02A1.5 1.5 0 0012.8.61L1.84 4.3A1.5 1.5 0 00.82 5.72v1.56a1.5 1.5 0 001.02 1.41l1.97.67v1.12a2.99 2.99 0 005.85.87l3.13 1.06a1.5 1.5 0 001.97-1.42V2.02zm-1.65-.47a.5.5 0 01.66.47V11a.5.5 0 01-.66.48L2.16 7.75a.5.5 0 01-.34-.47V5.72a.5.5 0 01.34-.47l10.95-3.7zm-4.4 9.48a2 2 0 01-3.9-.55V9.7l3.9 1.33z"/></symbol>

	<symbol xmlns="http://www.w3.org/2000/svg" viewBox="0 0 16 16" id="magnifier"><path fill-rule="evenodd" clip-rule="evenodd" d="M7.26 1.75a5.51 5.51 0 100 11.03 5.51 5.51 0 000-11.03zM2.3 2.3a7.01 7.01 0 0110.43 9.36l2.8 2.81-1.06 1.06-2.8-2.8A7.01 7.01 0 012.3 2.3z"/></symbol>

	<symbol xmlns="http://www.w3.org/2000/svg" viewBox="0 0 15 16" id="bag"><path d="M13.54 4h-2.7v-.32A3.67 3.67 0 007.18 0a3.67 3.67 0 00-3.66 3.68V4H.82a.64.64 0 00-.64.64v10.72c0 .35.28.64.63.64h12.73c.35 0 .64-.29.64-.64V4.64a.64.64 0 00-.64-.64zm-8.6-.32a2.23 2.23 0 114.46 0V4H4.95v-.32zm7.8 10.88H1.61V5.44h1.9V7.2c0 .09.08.16.17.16h1.11c.09 0 .16-.07.16-.16V5.44H9.4V7.2c0 .09.08.16.16.16h1.12c.08 0 .16-.07.16-.16V5.44h1.9v9.12z"/></symbol>

	<symbol xmlns="http://www.w3.org/2000/svg" viewBox="0 0 18 18" id="facebook"><path d="M16 0H2a2 2 0 00-2 2v14c0 1.1.9 2 2 2h7v-7H7V8.53h2V6.48c0-2.17 1.21-3.69 3.77-3.69h1.8v2.6h-1.2c-1 0-1.37.75-1.37 1.45v1.69h2.57L14 11h-2v7h4a2 2 0 002-2V2a2 2 0 00-2-2z"/></symbol>

	<symbol xmlns="http://www.w3.org/2000/svg" viewBox="0 0 18 18" id="twitter"><path d="M16.07 0H1.93C.86 0 0 .86 0 1.93v14.14C0 17.14.86 18 1.93 18h14.14c1.07 0 1.93-.86 1.93-1.93V1.93C18 .86 17.14 0 16.07 0zm-1.96 6.38v.34c0 3.49-2.65 7.5-7.5 7.5-1.49 0-2.87-.43-4.04-1.18a5.53 5.53 0 003.9-1.1 2.64 2.64 0 01-2.46-1.82c.41.06.78.06 1.2-.05a2.64 2.64 0 01-2.12-2.59v-.03c.35.2.76.32 1.2.33a2.63 2.63 0 01-.82-3.52A7.48 7.48 0 008.9 7.02a2.64 2.64 0 014.5-2.41c.59-.11 1.16-.33 1.67-.64-.2.61-.61 1.13-1.16 1.45.53-.05 1.04-.2 1.52-.4-.36.52-.8.99-1.32 1.36z"/></symbol>

	<symbol xmlns="http://www.w3.org/2000/svg" viewBox="0 0 18 18" id="linkedin"><path d="M16.56 0H1.54C.72 0 0 .6 0 1.4v15.06C0 17.27.72 18 1.54 18h15.02c.82 0 1.44-.73 1.44-1.54V1.4c0-.8-.62-1.4-1.44-1.4zM5.58 15H3V7h2.58V15zm-1.2-9.23h-.02C3.54 5.77 3 5.15 3 4.38 3 3.6 3.55 3 4.4 3c.84 0 1.35.6 1.37 1.38 0 .77-.53 1.39-1.4 1.39zM15 15h-2.57v-4.38c0-1.05-.38-1.77-1.31-1.77-.72 0-1.14.48-1.33.95-.07.17-.08.4-.08.64V15H7.13V7H9.7V8.1c.37-.53.96-1.3 2.32-1.3 1.7 0 2.97 1.11 2.97 3.52V15z"/></symbol>

</svg>