<svg width="38" height="30" viewBox="0 0 38 30" fill="none" xmlns="http://www.w3.org/2000/svg">
<path d="M26.1487 16.4222C30.4566 15.587 33.2684 13.0677 33.2684 8.59505C33.2684 3.92031 29.9699 0.606235 25.0673 0.606234C21.1379 0.606234 18.5244 2.38452 17.3708 6.26442L16.3434 9.76711C15.7486 11.7609 14.559 12.6905 12.8287 12.6905C10.6837 12.6905 9.00747 10.9796 9.00747 8.33909C9.00747 5.92762 10.3954 4.37836 13.117 3.89337L12.324 0C7.42132 0.673593 4.66357 3.71824 4.66357 8.36603C4.66357 13.3641 8.21439 16.8264 13.2252 16.8264C17.1365 16.8264 19.5518 14.9672 20.7234 11.1682L21.7327 7.88104C22.4537 5.6043 23.4811 4.62085 25.3557 4.63432C27.4825 4.62085 28.9966 6.34525 28.9966 8.63547C28.9966 11.1412 27.1401 12.2998 25.2836 12.7713L26.1487 16.4222Z" fill="#660091"/>
<path d="M0 21.2064C3.98167 25.8524 9.56068 28.8365 15.6354 29.5696C21.71 30.3026 27.8388 28.7313 32.8113 25.1658L30.7346 22.2695C26.4869 25.3152 21.2515 26.6575 16.0623 26.0313C10.8731 25.4051 6.10738 22.856 2.7061 18.8872L0 21.2064Z" fill="#660091"/>
<path d="M33.9926 24.2628C35.1322 23.3358 36.1859 22.308 37.141 21.1919L34.4331 18.8748C33.6173 19.8282 32.7171 20.7062 31.7437 21.498L33.9926 24.2628Z" fill="#FF8802"/>
</svg>
